<?xml version="1.0" encoding="iso-8859-1"?>
<!-- Generator: Adobe Illustrator 19.0.0, SVG Export Plug-In . SVG Version: 6.00 Build 0)  -->
<svg version="1.1" id="Capa_1" xmlns="http://www.w3.org/2000/svg" xmlns:xlink="http://www.w3.org/1999/xlink" x="0px" y="0px"
	 viewBox="0 0 496 496" style="enable-background:new 0 0 496 496;" xml:space="preserve">
<path style="fill:#F0BC5E;" d="M432,320H64V0h368V320z"/>
<path d="M456,80h-24v16h24c13.232,0,24,10.768,24,24v232H16V120c0-13.232,10.768-24,24-24h24V80H40C17.944,80,0,97.944,0,120v256
	c0,22.056,17.944,40,40,40h152v16.84l-144,16V496h400v-47.168l-144-16V416h152c22.056,0,40-17.944,40-40V120
	C496,97.944,478.056,80,456,80z M64,463.168l128-14.224V480H64V463.168z M432,463.168V480H304v-31.056L432,463.168z M288,480h-80
	v-64h80V480z M456,400H40c-13.232,0-24-10.768-24-24v-8h464v8C480,389.232,469.232,400,456,400z"/>
<path d="M192,27.056v137.888L329.888,96L192,27.056z M208,52.944L294.112,96L208,139.056V52.944z"/>
<polygon points="224,224 240,224 240,208 400,208 400,192 240,192 240,176 224,176 224,192 160,192 160,208 224,208 "/>
<rect x="96" y="184" width="16" height="32"/>
<rect x="128" y="184" width="16" height="32"/>
<path d="M120,288c13.232,0,24-10.768,24-24s-10.768-24-24-24s-24,10.768-24,24S106.768,288,120,288z M120,256c4.416,0,8,3.584,8,8
	s-3.584,8-8,8s-8-3.584-8-8S115.584,256,120,256z"/>
<path d="M184,288c13.232,0,24-10.768,24-24s-10.768-24-24-24s-24,10.768-24,24S170.768,288,184,288z M184,256c4.416,0,8,3.584,8,8
	s-3.584,8-8,8s-8-3.584-8-8S179.584,256,184,256z"/>
<g>
</g>
<g>
</g>
<g>
</g>
<g>
</g>
<g>
</g>
<g>
</g>
<g>
</g>
<g>
</g>
<g>
</g>
<g>
</g>
<g>
</g>
<g>
</g>
<g>
</g>
<g>
</g>
<g>
</g>
</svg>
