<?xml version="1.0" encoding="iso-8859-1"?>
<!-- Generator: Adobe Illustrator 19.0.0, SVG Export Plug-In . SVG Version: 6.00 Build 0)  -->
<svg version="1.1" id="Capa_1" xmlns="http://www.w3.org/2000/svg" xmlns:xlink="http://www.w3.org/1999/xlink" x="0px" y="0px"
	 viewBox="0 0 496 496" style="enable-background:new 0 0 496 496;" xml:space="preserve">
<path d="M360,480H40c-13.232,0-24-10.768-24-24V64h335.512V48H16v-8c0-13.232,10.768-24,24-24h320c13.232,0,24,10.768,24,24v8
	h-15.456v16H384v200h16V40c0-22.056-17.944-40-40-40H40C17.944,0,0,17.944,0,40v416c0,22.056,17.944,40,40,40h320
	c22.056,0,40-17.944,40-40h-16C384,469.232,373.232,480,360,480z"/>
<path d="M32,464h224v-80H32V464z M48,400h192v48H48V400z"/>
<path d="M272,96H32v256h240V96z M256,112v64h-16v-48h-48v48h-16v-48h-48v48h-16v-48H64v48H48v-64H256z M224,256h-16v-32h16V256z
	 M192,208v48h-16v-48h-48v48h-16v-48H64v48H48v-64h208v64h-16v-48H192z M160,256h-16v-32h16V256z M96,256H80v-32h16V256z M96,176H80
	v-32h16V176z M160,176h-16v-32h16V176z M224,176h-16v-32h16V176z M96,336H80v-32h16V336z M160,336h-16v-32h16V336z M224,336h-16v-32
	h16V336z M240,336v-48h-48v48h-16v-48h-48v48h-16v-48H64v48H48v-64h208v64H240z"/>
<path d="M368,80h-80v64h80V80z M352,128h-48V96h48V128z"/>
<path d="M368,160h-80v64h80V160z M352,208h-48v-32h48V208z"/>
<rect x="72" y="416" width="144" height="16"/>
<circle style="fill:#F0BC5E;" cx="392" cy="360" r="104"/>
<path d="M392,320c8.824,0,16,7.176,16,16h16c0-14.872-10.232-27.288-24-30.864V288h-16v17.136c-13.768,3.576-24,15.992-24,30.864
	c0,17.648,14.352,32,32,32c8.824,0,16,7.176,16,16s-7.176,16-16,16s-16-7.176-16-16h-16c0,14.872,10.232,27.288,24,30.864V432h16
	v-17.136c13.768-3.576,24-15.992,24-30.864c0-17.648-14.352-32-32-32c-8.824,0-16-7.176-16-16S383.176,320,392,320z"/>
<rect x="448" y="352" width="16" height="16"/>
<rect x="320" y="352" width="16" height="16"/>
<g>
</g>
<g>
</g>
<g>
</g>
<g>
</g>
<g>
</g>
<g>
</g>
<g>
</g>
<g>
</g>
<g>
</g>
<g>
</g>
<g>
</g>
<g>
</g>
<g>
</g>
<g>
</g>
<g>
</g>
</svg>
