<?xml version="1.0" encoding="iso-8859-1"?>
<!-- Generator: Adobe Illustrator 19.0.0, SVG Export Plug-In . SVG Version: 6.00 Build 0)  -->
<svg version="1.1" id="Capa_1" xmlns="http://www.w3.org/2000/svg" xmlns:xlink="http://www.w3.org/1999/xlink" x="0px" y="0px"
	 viewBox="0 0 499.416 499.416" style="enable-background:new 0 0 499.416 499.416;" xml:space="preserve">
<path style="fill:#F0BC5E;" d="M485.656,364.052C466.528,344.924,456,319.5,456,292.452v-74.744c0-70.576-57.424-128-128-128
	s-128,57.424-128,128v74.744c0,27.048-10.528,52.48-29.656,71.6l-6.52,6.52l7.376,5.536c1.08,0.816,21.456,15.808,50.288,22.448
	c2-0.616,4.056-1.104,6.152-1.456L296,385.708V371.62c-32.76-12.808-56-44.608-56-81.912h-8c-13.256,0-24-10.744-24-24
	s10.744-24,24-24h8v-16h1.352c30.52,0,60.472-8.296,86.648-24c26.176,15.704,56.12,24,86.648,24H416v16h8c13.256,0,24,10.744,24,24
	s-10.744,24-24,24h-8c0,37.296-23.24,69.096-56,81.912v14.088l68.36,11.392c2.096,0.352,4.152,0.84,6.152,1.456
	c28.832-6.64,49.208-21.632,50.288-22.448l7.384-5.528L485.656,364.052z"/>
<path d="M288,378.932l-61.68,10.28c-19.88,3.32-36.52,17.16-43.416,36.104l-26.328,72.392h342.84l-26.328-72.4
	c-6.888-18.944-23.528-32.784-43.424-36.104L368,378.932v-1.224h-1.744c31.616-13.792,54.36-44.12,57.344-80h0.4
	c17.648,0,32-14.352,32-32s-14.352-32-32-32v-16h-9.352c-29.072,0-57.608-7.904-82.528-22.856L328,192.38l-4.12,2.472
	c-24.92,14.952-53.456,22.856-82.528,22.856H232v16c-14.872,0-27.288,10.232-30.864,24H200h-16H16v-240h240v94.256
	c5.064-3.464,10.448-6.456,16-9.176V1.708H0v272h184h16h1.136c3.576,13.768,15.992,24,30.864,24h0.408
	c2.984,35.88,25.728,66.208,57.344,80H288V378.932z M197.936,430.78c4.928-13.528,16.816-23.416,31.016-25.792l60.232-10.04
	c3.592,15.04,15.6,26.848,30.816,29.944v56.816h-85.76l5.512-22.064l-15.512-3.872l-6.48,25.936h-38.336L197.936,430.78z
	 M328,409.708c-13.232,0-24-10.768-24-24v-3.16c7.688,1.992,15.696,3.16,24,3.16s16.312-1.168,24-3.16v3.16
	C352,398.94,341.232,409.708,328,409.708z M458.064,430.78l18.512,50.928H438.24l-6.488-25.936l-15.512,3.872l5.52,22.064H336V424.9
	c15.216-3.104,27.224-14.912,30.816-29.944l60.224,10.04C441.248,407.364,453.136,417.244,458.064,430.78z M440,265.708
	c0,8.824-7.176,16-16,16v-32C432.824,249.708,440,256.884,440,265.708z M328,210.964c24.488,13.808,51.92,21.552,80,22.616v8.128h-8
	h-8h-56v16h-16v-16h-56h-8h-8v-8.128C276.08,232.524,303.512,224.772,328,210.964z M384,257.708v8c0,4.416-3.584,8-8,8h-16
	c-4.416,0-8-3.584-8-8v-8H384z M304,257.708v8c0,4.416-3.584,8-8,8h-16c-4.416,0-8-3.584-8-8v-8H304z M216,265.708
	c0-8.824,7.176-16,16-16v32C223.176,281.708,216,274.532,216,265.708z M248,289.708v-32h8v8c0,13.232,10.768,24,24,24h16
	c10.416,0,19.216-6.712,22.528-16h18.952c3.312,9.288,12.112,16,22.528,16h16c13.232,0,24-10.768,24-24v-8h8v32
	c0,44.112-35.888,80-80,80S248,333.82,248,289.708z"/>
<path d="M368,313.708h-16c0,13.232-10.768,24-24,24s-24-10.768-24-24h-16c0,22.056,17.944,40,40,40S368,335.764,368,313.708z"/>
<rect x="352" y="433.708" width="48" height="16"/>
<polygon points="72,113.708 72,33.708 51.72,33.708 33.344,61.268 46.656,70.148 56,56.132 56,113.708 "/>
<polygon points="208,113.708 208,33.708 187.72,33.708 169.344,61.268 182.656,70.148 192,56.132 192,113.708 "/>
<polygon points="112,49.708 112,65.708 96,65.708 96,81.708 112,81.708 112,97.708 128,97.708 128,81.708 144,81.708 144,65.708 
	128,65.708 128,49.708 "/>
<path d="M152,189.02l15.032-15.032c5.784-5.784,8.968-13.472,8.968-21.656c0-16.88-13.744-30.624-30.624-30.624h-2.752
	c-16.88,0-30.624,13.744-30.624,30.624v9.376h16v-9.376c0-8.064,6.56-14.624,14.624-14.624h2.752c8.064,0,14.624,6.56,14.624,14.624
	c0,3.848-1.56,7.624-4.28,10.344L136,182.396v27.312h16V189.02z"/>
<rect x="32" y="161.708" width="64" height="16"/>
<rect x="32" y="193.708" width="64" height="16"/>
<rect x="136" y="225.708" width="16" height="16"/>
<g>
</g>
<g>
</g>
<g>
</g>
<g>
</g>
<g>
</g>
<g>
</g>
<g>
</g>
<g>
</g>
<g>
</g>
<g>
</g>
<g>
</g>
<g>
</g>
<g>
</g>
<g>
</g>
<g>
</g>
</svg>
