<?xml version="1.0" encoding="iso-8859-1"?>
<!-- Generator: Adobe Illustrator 19.0.0, SVG Export Plug-In . SVG Version: 6.00 Build 0)  -->
<svg version="1.1" id="Capa_1" xmlns="http://www.w3.org/2000/svg" xmlns:xlink="http://www.w3.org/1999/xlink" x="0px" y="0px"
	 viewBox="0 0 496 496" style="enable-background:new 0 0 496 496;" xml:space="preserve">
<g>
	<path style="fill:#F0BC5E;" d="M405.688,400h-43.376l-7.128-20.504c-5.368-1.696-10.56-3.84-15.52-6.424l-19.52,9.464
		l-30.672-30.672l9.464-19.52c-2.576-4.96-4.728-10.16-6.424-15.52L272,309.688v-43.376l20.504-7.128
		c1.696-5.368,3.84-10.56,6.424-15.52l-9.464-19.52l30.672-30.672l19.52,9.464c4.96-2.576,10.16-4.728,15.52-6.424L362.312,176
		h43.376l7.128,20.504c5.368,1.696,10.56,3.84,15.52,6.424l19.52-9.464l30.672,30.672l-9.464,19.52
		c2.576,4.96,4.728,10.16,6.424,15.52L496,266.312v43.376l-20.504,7.128c-1.696,5.368-3.84,10.56-6.424,15.52l9.464,19.52
		l-30.672,30.672l-19.52-9.464c-4.96,2.576-10.16,4.728-15.52,6.424L405.688,400z"/>
	<path style="fill:#F0BC5E;" d="M256,288H0V80h256V288z"/>
</g>
<path d="M376,416H120V288h-16v168c0,22.056,17.944,40,40,40h208c22.056,0,40-17.944,40-40v-56h-16V416z M352,480H144
	c-13.232,0-24-10.768-24-24v-24h256v24C376,469.232,365.232,480,352,480z"/>
<path d="M120,64h256v112h16V40c0-22.056-17.944-40-40-40H144c-22.056,0-40,17.944-40,40v40h16V64z M144,16h208
	c13.232,0,24,10.768,24,24v8H120v-8C120,26.768,130.768,16,144,16z"/>
<rect x="216" y="448" width="64" height="16"/>
<path d="M439.376,320.104C445.016,310.392,448,299.288,448,288c0-35.288-28.712-64-64-64s-64,28.712-64,64s28.712,64,64,64
	c17.096,0,33.168-6.656,45.256-18.744l-11.312-11.312C408.88,331.008,396.824,336,384,336c-26.472,0-48-21.528-48-48
	s21.528-48,48-48s48,21.528,48,48c0,8.472-2.232,16.792-6.464,24.072L439.376,320.104z"/>
<path d="M384,272c8.824,0,16,7.176,16,16h16c0-17.648-14.352-32-32-32s-32,14.352-32,32s14.352,32,32,32v-16
	c-8.824,0-16-7.176-16-16S375.176,272,384,272z"/>
<path d="M96,176h16c0-8.824,7.176-16,16-16v-16C110.352,144,96,158.352,96,176z"/>
<path d="M224,208c0-21.416-14.088-39.592-33.488-45.76C184.152,133.288,158.064,112,128,112c-29.808,0-55.704,20.984-62.4,50.248
	C45.832,168.456,32,186.88,32,208c0,26.472,21.528,48,48,48h96C202.472,256,224,234.472,224,208z M48,208
	c0-15.328,10.944-28.528,26.008-31.392l5.72-1.824l0.808-5.656C83.904,145.688,104.304,128,128,128
	c20.56,0,38.648,13.272,45.288,32.08c-9.488,0.512-18.456,3.792-26.096,9.52l9.608,12.8c5.568-4.192,12.208-6.4,19.2-6.4
	c17.648,0,32,14.352,32,32s-14.352,32-32,32H80C62.352,240,48,225.648,48,208z"/>
<g>
</g>
<g>
</g>
<g>
</g>
<g>
</g>
<g>
</g>
<g>
</g>
<g>
</g>
<g>
</g>
<g>
</g>
<g>
</g>
<g>
</g>
<g>
</g>
<g>
</g>
<g>
</g>
<g>
</g>
</svg>
