<?xml version="1.0" encoding="iso-8859-1"?>
<!-- Generator: Adobe Illustrator 19.0.0, SVG Export Plug-In . SVG Version: 6.00 Build 0)  -->
<svg version="1.1" id="Capa_1" xmlns="http://www.w3.org/2000/svg" xmlns:xlink="http://www.w3.org/1999/xlink" x="0px" y="0px"
	 viewBox="0 0 496 496" style="enable-background:new 0 0 496 496;" xml:space="preserve">
<rect x="64" y="96" style="fill:#F0BC5E;" width="288" height="96"/>
<polygon points="103.664,186.296 88.336,181.704 109.248,112 80,112 80,120 64,120 64,96 130.752,96 "/>
<polygon points="215.664,186.296 200.336,181.704 221.248,112 192,112 192,120 176,120 176,96 242.752,96 "/>
<polygon points="327.664,186.296 312.336,181.704 333.248,112 304,112 304,120 288,120 288,96 354.752,96 "/>
<path d="M384,64H32v160h352V64z M256,80v128h-96V80H256z M48,80h96v128H48V80z M368,208h-96V80h96V208z"/>
<polygon points="336,320 264,320 264,304 320,304 320,256 96,256 96,304 152,304 152,320 80,320 80,240 336,240 "/>
<path d="M479.752,424H480V240c0-13.232-10.768-24-24-24c-3.16,0-6.16,0.648-8.928,1.76C444.312,207.56,435.064,200,424,200h-8V56
	c0-13.232-10.768-24-24-24h-27.056l-16-32H67.056l-16,32H24C10.768,32,0,42.768,0,56v272c0,13.232,10.768,24,24,24h96v-16H24
	c-4.416,0-8-3.592-8-8V56c0-4.408,3.584-8,8-8h288V32H68.944l8-16h262.112l8,16H328v16h64c4.416,0,8,3.592,8,8v272
	c0,4.408-3.584,8-8,8h-96v16h96c13.232,0,24-10.768,24-24h8c2.816,0,5.488-0.576,8-1.472V424h0.248
	c-9.8,7.296-16.248,18.872-16.248,32c0,22.056,17.944,40,40,40s40-17.944,40-40C496,442.872,489.552,431.296,479.752,424z M432,240
	v64c0,4.408-3.584,8-8,8h-8v-96h8c4.416,0,8,3.592,8,8V240z M448,304v-64c0-4.408,3.584-8,8-8s8,3.592,8,8v176.808
	c-2.584-0.528-5.264-0.808-8-0.808s-5.416,0.28-8,0.808V304z M456,480c-13.232,0-24-10.768-24-24s10.768-24,24-24s24,10.768,24,24
	S469.232,480,456,480z"/>
<circle style="fill:#F0BC5E;" cx="208" cy="392" r="104"/>
<path d="M208,384c-8.824,0-16-7.176-16-16s7.176-16,16-16s16,7.176,16,16h16c0-14.864-10.232-27.288-24-30.864V320h-16v17.136
	c-13.768,3.576-24,16-24,30.864c0,17.648,14.352,32,32,32c8.824,0,16,7.176,16,16s-7.176,16-16,16s-16-7.176-16-16h-16
	c0,14.864,10.232,27.288,24,30.864V464h16v-17.136c13.768-3.576,24-16,24-30.864C240,398.352,225.648,384,208,384z"/>
<rect x="264" y="384" width="16" height="16"/>
<rect x="136" y="384" width="16" height="16"/>
<g>
</g>
<g>
</g>
<g>
</g>
<g>
</g>
<g>
</g>
<g>
</g>
<g>
</g>
<g>
</g>
<g>
</g>
<g>
</g>
<g>
</g>
<g>
</g>
<g>
</g>
<g>
</g>
<g>
</g>
</svg>
