<?xml version="1.0" encoding="iso-8859-1"?>
<!-- Generator: Adobe Illustrator 19.0.0, SVG Export Plug-In . SVG Version: 6.00 Build 0)  -->
<svg version="1.1" id="Capa_1" xmlns="http://www.w3.org/2000/svg" xmlns:xlink="http://www.w3.org/1999/xlink" x="0px" y="0px"
	 viewBox="0 0 496 496" style="enable-background:new 0 0 496 496;" xml:space="preserve">
<path style="fill:#F0BC5E;" d="M392,0c-57.44,0-104,46.56-104,104c0,5.456,0.544,10.768,1.352,16H296c8.84,0,16,7.16,16,16v16h16
	c8.84,0,16,7.16,16,16v28.208C358.368,203.704,374.672,208,392,208c57.44,0,104-46.56,104-104S449.44,0,392,0z"/>
<path d="M328,144h-8v-8c0-13.232-10.768-24-24-24H177.888c-9.152,0-17.376,5.088-21.472,13.264L147.056,144H96v-32H32v32h-8
	c-13.232,0-24,10.768-24,24v192c0,13.232,10.768,24,24,24h24v112h256V384h24c13.232,0,24-10.768,24-24V168
	C352,154.768,341.232,144,328,144z M170.736,132.424c1.36-2.728,4.096-4.424,7.152-4.424H296c4.416,0,8,3.584,8,8v8H164.944
	L170.736,132.424z M48,128h32v16H48V128z M24,160h304c4.416,0,8,3.584,8,8v24H224v0.152C210.608,182.064,194.016,176,176,176
	s-34.608,6.064-48,16.152V192H16v-24C16,163.584,19.584,160,24,160z M320,208h16v64h-8c-4.416,0-8-3.584-8-8V208z M240,256
	c0,35.288-28.712,64-64,64s-64-28.712-64-64s28.712-64,64-64S240,220.712,240,256z M288,480H64v-96h224V480z M328,368H24
	c-4.416,0-8-3.584-8-8V208h96.152C102.064,221.392,96,237.984,96,256c0,44.112,35.888,80,80,80s80-35.888,80-80
	c0-18.016-6.064-34.608-16.152-48H304v56c0,13.232,10.768,24,24,24h8v72C336,364.416,332.416,368,328,368z"/>
<path d="M128,256c0,26.472,21.528,48,48,48v-16c-17.648,0-32-14.352-32-32s14.352-32,32-32s32,14.352,32,32h16
	c0-26.472-21.528-48-48-48S128,229.528,128,256z"/>
<path d="M32,352h64v-48H32V352z M48,320h32v16H48V320z"/>
<path d="M288,288c-17.648,0-32,14.352-32,32s14.352,32,32,32s32-14.352,32-32S305.648,288,288,288z M288,336
	c-8.824,0-16-7.176-16-16s7.176-16,16-16s16,7.176,16,16S296.824,336,288,336z"/>
<path d="M392,64c8.824,0,16,7.176,16,16h16c0-14.872-10.232-27.288-24-30.864V32h-16v17.136C370.232,52.712,360,65.128,360,80
	c0,17.648,14.352,32,32,32c8.824,0,16,7.176,16,16s-7.176,16-16,16s-16-7.176-16-16h-16c0,14.872,10.232,27.288,24,30.864V176h16
	v-17.136c13.768-3.576,24-15.992,24-30.864c0-17.648-14.352-32-32-32c-8.824,0-16-7.176-16-16S383.176,64,392,64z"/>
<rect x="448" y="96" width="16" height="16"/>
<rect x="320" y="96" width="16" height="16"/>
<rect x="80" y="384" style="fill:#F0BC5E;" width="192" height="80"/>
<g>
</g>
<g>
</g>
<g>
</g>
<g>
</g>
<g>
</g>
<g>
</g>
<g>
</g>
<g>
</g>
<g>
</g>
<g>
</g>
<g>
</g>
<g>
</g>
<g>
</g>
<g>
</g>
<g>
</g>
</svg>
