<?xml version="1.0" encoding="iso-8859-1"?>
<!-- Generator: Adobe Illustrator 19.0.0, SVG Export Plug-In . SVG Version: 6.00 Build 0)  -->
<svg version="1.1" id="Capa_1" xmlns="http://www.w3.org/2000/svg" xmlns:xlink="http://www.w3.org/1999/xlink" x="0px" y="0px"
	 viewBox="0 0 496 496" style="enable-background:new 0 0 496 496;" xml:space="preserve">
<g>
	<path style="fill:#F0BC5E;" d="M56,432c-13.232,0-24-10.768-24-24s10.768-24,24-24s24,10.768,24,24S69.232,432,56,432z"/>
	<path style="fill:#F0BC5E;" d="M304,208h-80v-80h80V208z"/>
</g>
<path d="M367.192,272H496V48h-32V0H192v48h-32v224h128.808c3.184,15.64,15.56,27.928,31.192,31.12V328c0,13.232,10.768,24,24,24h112
	c13.232,0,24,10.768,24,24s-10.768,24-24,24H288c0-13.232-10.768-24-24-24h-8v-12.712l-4.112-2.28
	C203.6,334.176,148.88,320,93.64,320H88c-48.52,0-88,39.48-88,88s39.48,88,88,88h5.64c55.24,0,109.968-14.176,158.248-41.008
	l4.112-2.28V440h8c13.232,0,24-10.768,24-24h168c22.056,0,40-17.944,40-40s-17.944-40-40-40H344c-4.408,0-8-3.584-8-8v-24.88
	C351.64,299.928,364.008,287.64,367.192,272z M240,400h-33.472c-3.312-9.288-12.112-16-22.528-16h-8v-36.688
	c22.152,6.112,43.672,14.544,64,25.432V400z M152,416c-4.408,0-8-3.584-8-8s3.592-8,8-8h32c4.408,0,8,3.584,8,8s-3.592,8-8,8H152z
	 M88,480c-39.696,0-72-32.296-72-72s32.304-72,72-72h5.64c23.36,0,46.6,2.792,69.272,8H160v40h-8c-13.232,0-24,10.768-24,24
	s10.768,24,24,24h8v40h2.904c-22.672,5.208-45.912,8-69.272,8H88z M176,468.688V432h8c10.416,0,19.216-6.712,22.528-16H240v27.248
	C219.672,454.144,198.152,462.576,176,468.688z M272,416c0,4.416-3.592,8-8,8h-8v-32h8c4.408,0,8,3.584,8,8V416z M448,16v208H336V16
	H448z M208,16h112v208H208V16z M304,264v-8H176V64h16v176h272V64h16v192H352v8c0,13.232-10.768,24-24,24S304,277.232,304,264z"/>
<rect x="224" y="32" width="80" height="16"/>
<rect x="224" y="64" width="80" height="16"/>
<rect x="224" y="96" width="80" height="16"/>
<rect x="352" y="32" width="80" height="16"/>
<rect x="352" y="64" width="80" height="16"/>
<rect x="352" y="96" width="80" height="16"/>
<rect x="352" y="128" width="80" height="16"/>
<rect x="352" y="160" width="80" height="16"/>
<rect x="352" y="192" width="80" height="16"/>
<g>
</g>
<g>
</g>
<g>
</g>
<g>
</g>
<g>
</g>
<g>
</g>
<g>
</g>
<g>
</g>
<g>
</g>
<g>
</g>
<g>
</g>
<g>
</g>
<g>
</g>
<g>
</g>
<g>
</g>
</svg>
