<?xml version="1.0" encoding="iso-8859-1"?>
<!-- Generator: Adobe Illustrator 19.0.0, SVG Export Plug-In . SVG Version: 6.00 Build 0)  -->
<svg version="1.1" id="Capa_1" xmlns="http://www.w3.org/2000/svg" xmlns:xlink="http://www.w3.org/1999/xlink" x="0px" y="0px"
	 viewBox="0 0 497.728 497.728" style="enable-background:new 0 0 497.728 497.728;" xml:space="preserve">
<rect x="136.864" y="449.728" width="192" height="16"/>
<path d="M248.864,0l-104,72V49.728h-64v66.576l-48,33.232V217l24-16.616v233.344h48v64h288v-64h48V200.376l24,16.616v-67.464
	L248.864,0z M96.864,65.728h32v17.344l-32,22.152V65.728z M424.864,417.728h-32v-176h-96v16h80v224h-256v-224h80v-16h-96v176h-32
	V189.304l176-121.848l176,121.848V417.728z M448.864,186.464L248.864,48l-200,138.464v-28.536l200-138.472l200,138.472V186.464z"/>
<polygon points="344.864,417.728 152.864,417.728 152.864,289.728 224.864,289.728 224.864,273.728 136.864,273.728 
	136.864,433.728 360.864,433.728 360.864,273.728 272.864,273.728 272.864,289.728 344.864,289.728 "/>
<rect x="344.864" y="449.728" width="16" height="16"/>
<path style="fill:#F0BC5E;" d="M248.864,405.04l-32-32v-22.624l12.688-12.688l-16-16l16-16l-12.688-12.688v-26.064
	c-28.936-12.632-48-41.384-48-73.248c0-44.112,35.888-80,80-80s80,35.888,80,80c0,31.864-19.064,60.616-48,73.248V373.04
	L248.864,405.04z"/>
<path d="M248.864,209.728c-17.648,0-32-14.352-32-32s14.352-32,32-32c17.648,0,32,14.352,32,32S266.512,209.728,248.864,209.728z
	 M248.864,161.728c-8.824,0-16,7.176-16,16s7.176,16,16,16c8.824,0,16-7.176,16-16S257.688,161.728,248.864,161.728z"/>
<g>
</g>
<g>
</g>
<g>
</g>
<g>
</g>
<g>
</g>
<g>
</g>
<g>
</g>
<g>
</g>
<g>
</g>
<g>
</g>
<g>
</g>
<g>
</g>
<g>
</g>
<g>
</g>
<g>
</g>
</svg>
