<?xml version="1.0" encoding="iso-8859-1"?>
<!-- Generator: Adobe Illustrator 19.0.0, SVG Export Plug-In . SVG Version: 6.00 Build 0)  -->
<svg version="1.1" id="Capa_1" xmlns="http://www.w3.org/2000/svg" xmlns:xlink="http://www.w3.org/1999/xlink" x="0px" y="0px"
	 viewBox="0 0 496 496" style="enable-background:new 0 0 496 496;" xml:space="preserve">
<polygon style="fill:#F0BC5E;" points="296,104 296,88 264,88 264,72 232,72 232,56 200,56 200,40 168,40 168,104 168,136 200,136 
	232,136 264,136 296,136 328,136 328,104 "/>
<path d="M456,400.72V376c0-22.056-17.944-40-40-40H256v-48h128v-30.776l-96-16V224h80c22.056,0,40-17.944,40-40V40
	c0-22.056-17.944-40-40-40H128c-22.056,0-40,17.944-40,40v144c0,22.056,17.944,40,40,40h80v17.224l-96,16V288h128v48H80
	c-22.056,0-40,17.944-40,40v24.72C17.336,404.552,0,424.264,0,448c0,26.472,21.528,48,48,48s48-21.528,48-48
	c0-23.736-17.336-43.448-40-47.28V376c0-13.232,10.768-24,24-24h96v48.72c-22.664,3.824-40,23.536-40,47.28
	c0,26.472,21.528,48,48,48s48-21.528,48-48c0-23.736-17.336-43.448-40-47.28V352h112v48.72c-22.664,3.824-40,23.536-40,47.28
	c0,26.472,21.528,48,48,48s48-21.528,48-48c0-23.736-17.336-43.448-40-47.28V352h96c13.232,0,24,10.768,24,24v24.72
	c-22.664,3.824-40,23.536-40,47.28c0,26.472,21.528,48,48,48s48-21.528,48-48C496,424.264,478.664,404.552,456,400.72z M368,270.776
	V272h-80v-14.56L368,270.776z M128,16h240c13.232,0,24,10.768,24,24v120H104V40C104,26.768,114.768,16,128,16z M104,184v-8h288v8
	c0,13.232-10.768,24-24,24H128C114.768,208,104,197.232,104,184z M272,224v48h-48v-48H272z M128,270.776l80-13.328V272h-80V270.776z
	 M80,448c0,17.648-14.352,32-32,32s-32-14.352-32-32s14.352-32,32-32S80,430.352,80,448z M216,448c0,17.648-14.352,32-32,32
	s-32-14.352-32-32s14.352-32,32-32S216,430.352,216,448z M344,448c0,17.648-14.352,32-32,32s-32-14.352-32-32s14.352-32,32-32
	S344,430.352,344,448z M448,480c-17.648,0-32-14.352-32-32s14.352-32,32-32s32,14.352,32,32S465.648,480,448,480z"/>
<path d="M352,128h-16V96h-32V80h-32V64h-32V48h-32V32h-48v96h-16v16h208V128z M320,112v16h-16v-16H320z M288,96v32h-16V96H288z
	 M256,80v48h-16V80H256z M224,64v64h-16V64H224z M176,48h16v80h-16V48z"/>
<g>
	<circle style="fill:#F0BC5E;" cx="48" cy="448" r="24"/>
	<circle style="fill:#F0BC5E;" cx="184" cy="448" r="24"/>
	<circle style="fill:#F0BC5E;" cx="312" cy="448" r="24"/>
	<circle style="fill:#F0BC5E;" cx="448" cy="448" r="24"/>
</g>
<g>
</g>
<g>
</g>
<g>
</g>
<g>
</g>
<g>
</g>
<g>
</g>
<g>
</g>
<g>
</g>
<g>
</g>
<g>
</g>
<g>
</g>
<g>
</g>
<g>
</g>
<g>
</g>
<g>
</g>
</svg>
