<?xml version="1.0" encoding="iso-8859-1"?>
<!-- Generator: Adobe Illustrator 19.0.0, SVG Export Plug-In . SVG Version: 6.00 Build 0)  -->
<svg version="1.1" id="Capa_1" xmlns="http://www.w3.org/2000/svg" xmlns:xlink="http://www.w3.org/1999/xlink" x="0px" y="0px"
	 viewBox="0 0 496 496" style="enable-background:new 0 0 496 496;" xml:space="preserve">
<path style="fill:#F0BC5E;" d="M400,112v152c0,26.512-21.488,48-48,48H144c-26.512,0-48-21.488-48-48V112H32v256h432V112H400z"/>
<path d="M456,80h-48V0H88v80H40C17.944,80,0,97.944,0,120v256c0,22.056,17.944,40,40,40h152v16.84l-144,16V496h400v-47.168l-144-16
	V416h152c22.056,0,40-17.944,40-40V120C496,97.944,478.056,80,456,80z M344,62.44L372.104,80H344V62.44z M351.096,48L392,22.44
	v51.128L351.096,48z M328,43.568V80H168V43.568L123.896,16h248.208L328,43.568z M152,80h-28.104L152,62.44V80z M144.904,48
	L104,73.56V22.44L144.904,48z M104,96h288v172.24c0,19.72-16.04,35.76-35.76,35.76H139.76c-19.72,0-35.76-16.04-35.76-35.76V96z
	 M64,463.168l128-14.224V480H64V463.168z M432,463.168V480H304v-31.056L432,463.168z M288,480h-80v-64h80V480z M456,400H40
	c-13.232,0-24-10.768-24-24v-8h432v-16H16V120c0-13.232,10.768-24,24-24h48v172.24c0,28.536,23.216,51.76,51.76,51.76h216.48
	c28.536,0,51.76-23.216,51.76-51.76V96h48c13.232,0,24,10.768,24,24v232h-16v16h16v8C480,389.232,469.232,400,456,400z"/>
<path d="M168.336,158.632C171.728,199.648,206.128,232,248,232s76.272-32.352,79.664-73.368C337.128,155.416,344,146.536,344,136
	c0-13.232-10.768-24-24-24s-24,10.768-24,24c0,10.296,6.552,19.024,15.672,22.424C308.44,190.704,281.12,216,248,216
	s-60.44-25.296-63.672-57.576C193.448,155.024,200,146.296,200,136c0-13.232-10.768-24-24-24s-24,10.768-24,24
	C152,146.536,158.872,155.416,168.336,158.632z M320,128c4.416,0,8,3.592,8,8s-3.584,8-8,8s-8-3.592-8-8S315.584,128,320,128z
	 M176,128c4.416,0,8,3.592,8,8s-3.584,8-8,8s-8-3.592-8-8S171.584,128,176,128z"/>
<rect x="424" y="112" width="16" height="16"/>
<rect x="424" y="144" width="16" height="16"/>
<rect x="424" y="176" width="16" height="16"/>
<rect x="56" y="112" width="16" height="16"/>
<rect x="56" y="144" width="16" height="16"/>
<rect x="56" y="176" width="16" height="16"/>
<g>
</g>
<g>
</g>
<g>
</g>
<g>
</g>
<g>
</g>
<g>
</g>
<g>
</g>
<g>
</g>
<g>
</g>
<g>
</g>
<g>
</g>
<g>
</g>
<g>
</g>
<g>
</g>
<g>
</g>
</svg>
