<?xml version="1.0" encoding="iso-8859-1"?>
<!-- Generator: Adobe Illustrator 19.0.0, SVG Export Plug-In . SVG Version: 6.00 Build 0)  -->
<svg version="1.1" id="Capa_1" xmlns="http://www.w3.org/2000/svg" xmlns:xlink="http://www.w3.org/1999/xlink" x="0px" y="0px"
	 viewBox="0 0 496 496" style="enable-background:new 0 0 496 496;" xml:space="preserve">
<g>
	<path style="fill:#F0BC5E;" d="M416,400H80v-96h336V400z"/>
	<path style="fill:#F0BC5E;" d="M352,96h-80V32h80V96z"/>
</g>
<path d="M480,416V136c0-22.056-17.944-40-40-40h-24V48h-32V0H112v48H80v48H56c-22.056,0-40,17.944-40,40v280H0v40
	c0,22.056,17.944,40,40,40h416c22.056,0,40-17.944,40-40v-40H480z M368,16v192H256V16H368z M128,16h112v192H128V16z M96,64h16v160
	h272V64h16v176H272v8c0,13.232-10.768,24-24,24s-24-10.768-24-24v-8H96V64z M32,136c0-13.232,10.768-24,24-24h24v16H64
	c-8.824,0-16,7.176-16,16v256h16V144h16v112h128.808c3.72,18.232,19.872,32,39.192,32s35.48-13.768,39.192-32H416V144h16v256h16V144
	c0-8.824-7.176-16-16-16h-16v-16h24c13.232,0,24,10.768,24,24v280H32V136z M176,432h144v8c0,4.416-3.584,8-8,8H184
	c-4.416,0-8-3.584-8-8V432z M480,456c0,13.232-10.768,24-24,24H40c-13.232,0-24-10.768-24-24v-24h144v8c0,13.232,10.768,24,24,24
	h128c13.232,0,24-10.768,24-24v-8h144V456z"/>
<polygon points="192,328 176,328 176,344 96,344 96,360 176,360 176,376 192,376 192,360 400,360 400,344 192,344 "/>
<rect x="272" y="112" width="80" height="16"/>
<rect x="272" y="144" width="80" height="16"/>
<rect x="272" y="176" width="40" height="16"/>
<rect x="144" y="32" width="80" height="16"/>
<rect x="144" y="64" width="80" height="16"/>
<rect x="144" y="96" width="80" height="16"/>
<rect x="144" y="128" width="80" height="16"/>
<rect x="144" y="160" width="80" height="16"/>
<rect x="32" y="448" width="16" height="16"/>
<rect x="64" y="448" width="16" height="16"/>
<rect x="96" y="448" width="16" height="16"/>
<g>
</g>
<g>
</g>
<g>
</g>
<g>
</g>
<g>
</g>
<g>
</g>
<g>
</g>
<g>
</g>
<g>
</g>
<g>
</g>
<g>
</g>
<g>
</g>
<g>
</g>
<g>
</g>
<g>
</g>
</svg>
