<?xml version="1.0" encoding="iso-8859-1"?>
<!-- Generator: Adobe Illustrator 19.0.0, SVG Export Plug-In . SVG Version: 6.00 Build 0)  -->
<svg version="1.1" id="Capa_1" xmlns="http://www.w3.org/2000/svg" xmlns:xlink="http://www.w3.org/1999/xlink" x="0px" y="0px"
	 viewBox="0 0 496 496" style="enable-background:new 0 0 496 496;" xml:space="preserve">
<circle style="fill:#F0BC5E;" cx="248" cy="248" r="88"/>
<path d="M248,128c-66.168,0-120,53.832-120,120s53.832,120,120,120s120-53.832,120-120S314.168,128,248,128z M311.624,240
	c-1.048-19.064-5.624-35.824-11.928-50.12c11.736-5.04,19.456-10.672,23.232-13.808c16.216,16.888,26.76,39.2,28.656,63.928H311.624
	z M256,153.848c6.216,6.36,13.816,15.4,20.736,26.808c-6.168,1.504-13.08,2.632-20.736,3.104V153.848z M271.408,146.752
	c14.52,3.36,27.856,9.768,39.352,18.512c-3.52,2.632-9.616,6.6-18.32,10.24C285.656,163.696,278.128,154.08,271.408,146.752z
	 M240,153.904v29.848c-7.632-0.472-14.52-1.592-20.672-3.088C226.232,169.304,233.8,160.272,240,153.904z M203.56,175.504
	c-8.696-3.632-14.792-7.608-18.32-10.24c11.496-8.744,24.832-15.152,39.352-18.512C217.872,154.08,210.344,163.696,203.56,175.504z
	 M240,199.752V240h-39.616c1.08-16.992,5.384-32.008,11.216-44.808C219.848,197.472,229.288,199.176,240,199.752z M240,256v40.248
	c-10.736,0.584-20.192,2.288-28.448,4.576c-5.808-12.792-10.096-27.808-11.176-44.824L240,256L240,256z M240,312.248v29.912
	c-6.224-6.36-13.816-15.408-20.736-26.808C225.424,313.848,232.344,312.72,240,312.248z M224.592,349.248
	c-14.52-3.36-27.848-9.768-39.352-18.512c3.52-2.632,9.616-6.6,18.312-10.24C210.336,332.304,217.872,341.92,224.592,349.248z
	 M256,342.088V312.24c7.632,0.472,14.52,1.592,20.672,3.088C269.768,326.696,262.2,335.728,256,342.088z M292.44,320.496
	c8.696,3.632,14.792,7.6,18.312,10.24c-11.496,8.744-24.824,15.152-39.352,18.512C278.136,341.92,285.664,332.304,292.44,320.496z
	 M256,296.248V256h39.616c-1.08,16.992-5.384,32.008-11.224,44.808C276.152,298.528,266.712,296.824,256,296.248z M256,240v-40.248
	c10.736-0.584,20.192-2.288,28.44-4.576c5.808,12.792,10.096,27.808,11.176,44.824H256z M173.064,176.072
	c3.776,3.136,11.496,8.768,23.232,13.808c-6.304,14.296-10.872,31.056-11.928,50.12H144.4
	C146.304,215.264,156.848,192.96,173.064,176.072z M144.408,256h39.968c1.048,19.064,5.624,35.824,11.928,50.12
	c-11.736,5.04-19.456,10.672-23.232,13.808C156.848,303.04,146.304,280.728,144.408,256z M322.936,319.928
	c-3.776-3.136-11.496-8.768-23.232-13.808c6.304-14.296,10.872-31.056,11.928-50.12H351.6
	C349.696,280.728,339.152,303.04,322.936,319.928z"/>
<path d="M456,208c-2.048,0-4.016,0.304-5.984,0.608l-29-78.72C432.36,122.824,440,110.328,440,96c0-22.056-17.944-40-40-40
	c-14.328,0-26.824,7.64-33.888,18.992l-78.72-29C287.696,44.016,288,42.048,288,40c0-22.056-17.944-40-40-40s-40,17.944-40,40
	c0,2.048,0.304,4.016,0.608,5.984l-78.72,29C122.824,63.64,110.328,56,96,56c-22.056,0-40,17.944-40,40
	c0,14.328,7.64,26.824,18.992,33.888l-29,78.72C44.016,208.304,42.048,208,40,208c-22.056,0-40,17.944-40,40s17.944,40,40,40
	c2.048,0,4.016-0.304,5.984-0.608l29,78.72C63.64,373.176,56,385.672,56,400c0,22.056,17.944,40,40,40
	c14.328,0,26.824-7.64,33.888-18.992l78.72,29C208.304,451.984,208,453.952,208,456c0,22.056,17.944,40,40,40s40-17.944,40-40
	c0-2.048-0.304-4.016-0.608-5.984l78.72-29C373.176,432.36,385.672,440,400,440c22.056,0,40-17.944,40-40
	c0-14.328-7.64-26.824-18.992-33.888l29-78.72c1.976,0.304,3.944,0.608,5.992,0.608c22.056,0,40-17.944,40-40S478.056,208,456,208z
	 M400,72c13.232,0,24,10.768,24,24s-10.768,24-24,24s-24-10.768-24-24S386.768,72,400,72z M248,16c13.232,0,24,10.768,24,24
	s-10.768,24-24,24s-24-10.768-24-24S234.768,16,248,16z M96,72c13.232,0,24,10.768,24,24s-10.768,24-24,24s-24-10.768-24-24
	S82.768,72,96,72z M16,248c0-13.232,10.768-24,24-24s24,10.768,24,24s-10.768,24-24,24S16,261.232,16,248z M96,424
	c-13.232,0-24-10.768-24-24s10.768-24,24-24s24,10.768,24,24S109.232,424,96,424z M248,480c-13.232,0-24-10.768-24-24
	s10.768-24,24-24s24,10.768,24,24S261.232,480,248,480z M400,424c-13.232,0-24-10.768-24-24s10.768-24,24-24s24,10.768,24,24
	S413.232,424,400,424z M405.984,360.608C404.016,360.304,402.048,360,400,360c-8.136,0-15.696,2.472-22.024,6.664l-22.496-22.496
	l-11.312,11.312l22.496,22.496C362.472,384.304,360,391.864,360,400c0,2.048,0.304,4.016,0.608,5.984l-78.72,29
	C276.176,425.8,266.944,419.032,256,416.8V392h-16v24.808c-10.936,2.232-20.168,9-25.888,18.184l-78.72-29
	c0.304-1.976,0.608-3.944,0.608-5.992c0-8.136-2.472-15.696-6.664-22.024l22.496-22.496l-11.312-11.312l-22.496,22.496
	C111.696,362.472,104.136,360,96,360c-2.048,0-4.016,0.304-5.984,0.608l-29-78.72C70.2,276.176,76.968,266.944,79.2,256H104v-16
	H79.192c-2.232-10.936-9-20.168-18.184-25.888l29-78.72C91.984,135.696,93.952,136,96,136c8.136,0,15.696-2.472,22.024-6.664
	l22.504,22.496l11.312-11.312l-22.504-22.496C133.528,111.704,136,104.136,136,96c0-2.048-0.304-4.016-0.608-5.984l78.72-29
	C219.824,70.2,229.056,76.968,240,79.2V104h16V79.192c10.936-2.232,20.168-9,25.888-18.184l78.72,29
	C360.304,91.984,360,93.952,360,96c0,8.136,2.472,15.704,6.664,22.024L344.16,140.52l11.312,11.312l22.504-22.496
	C384.304,133.528,391.864,136,400,136c2.048,0,4.016-0.304,5.984-0.608l29,78.72C425.8,219.824,419.032,229.056,416.8,240H392v16
	h24.808c2.232,10.936,9,20.168,18.184,25.888L405.984,360.608z M456,272c-13.232,0-24-10.768-24-24s10.768-24,24-24s24,10.768,24,24
	S469.232,272,456,272z"/>
<g>
	<circle style="fill:#F0BC5E;" cx="248" cy="40" r="16"/>
	<circle style="fill:#F0BC5E;" cx="400" cy="96" r="16"/>
	<circle style="fill:#F0BC5E;" cx="96" cy="96" r="16"/>
	<circle style="fill:#F0BC5E;" cx="400" cy="400" r="16"/>
	<circle style="fill:#F0BC5E;" cx="96" cy="400" r="16"/>
	<circle style="fill:#F0BC5E;" cx="40" cy="248" r="16"/>
	<circle style="fill:#F0BC5E;" cx="456" cy="248" r="16"/>
	<circle style="fill:#F0BC5E;" cx="248" cy="456" r="16"/>
</g>
<g>
</g>
<g>
</g>
<g>
</g>
<g>
</g>
<g>
</g>
<g>
</g>
<g>
</g>
<g>
</g>
<g>
</g>
<g>
</g>
<g>
</g>
<g>
</g>
<g>
</g>
<g>
</g>
<g>
</g>
</svg>
