<?xml version="1.0" encoding="iso-8859-1"?>
<!-- Generator: Adobe Illustrator 19.0.0, SVG Export Plug-In . SVG Version: 6.00 Build 0)  -->
<svg version="1.1" id="Capa_1" xmlns="http://www.w3.org/2000/svg" xmlns:xlink="http://www.w3.org/1999/xlink" x="0px" y="0px"
	 viewBox="0 0 496 496" style="enable-background:new 0 0 496 496;" xml:space="preserve">
<g>
	<circle style="fill:#F0BC5E;" cx="352" cy="160" r="104"/>
	<path style="fill:#F0BC5E;" d="M192,368H48V224h144V368z"/>
	<path style="fill:#F0BC5E;" d="M496,496H256V336h240V496z"/>
</g>
<path d="M456,0H248c-22.056,0-40,17.944-40,40v64.896c-2.624-0.536-5.296-0.896-8-0.896H40c-22.056,0-40,17.944-40,40v312
	c0,22.056,17.944,40,40,40h160c22.056,0,40-17.944,40-40V319.192c2.584,0.528,5.264,0.808,8,0.808h208c22.056,0,40-17.944,40-40V40
	C496,17.944,478.056,0,456,0z M40,120h160c2.76,0,5.424,0.64,8,1.552V152H16v-8C16,130.768,26.768,120,40,120z M200,480H40
	c-13.232,0-24-10.768-24-24v-24h208v24C224,469.232,213.232,480,200,480z M224,312v104H16V168h192v112
	c0,13.128,6.448,24.704,16.248,32H224z M480,280c0,13.232-10.768,24-24,24H248c-13.232,0-24-10.768-24-24V40
	c0-13.232,10.768-24,24-24h208c13.232,0,24,10.768,24,24V280z"/>
<rect x="88" y="448" width="64" height="16"/>
<path d="M80,340.944L169.888,296L80,251.056V340.944z M96,276.944L134.112,296L96,315.056V276.944z"/>
<polygon points="320,368 304,368 304,432 288,432 288,448 304,448 304,464 320,464 320,448 336,448 336,432 320,432 "/>
<polygon points="384,368 368,368 368,384 352,384 352,400 368,400 368,464 384,464 384,400 400,400 400,384 384,384 "/>
<polygon points="448,368 432,368 432,408 416,408 416,424 432,424 432,464 448,464 448,424 464,424 464,408 448,408 "/>
<path d="M352,120c8.824,0,16,7.176,16,16h16c0-14.864-10.24-27.288-24-30.864V88h-16v17.136c-13.76,3.576-24,16-24,30.864
	c0,17.648,14.352,32,32,32c8.824,0,16,7.176,16,16s-7.176,16-16,16s-16-7.176-16-16h-16c0,14.864,10.24,27.288,24,30.864V232h16
	v-17.136c13.76-3.576,24-16,24-30.864c0-17.648-14.352-32-32-32c-8.824,0-16-7.176-16-16S343.176,120,352,120z"/>
<rect x="408" y="152" width="16" height="16"/>
<rect x="280" y="152" width="16" height="16"/>
<g>
</g>
<g>
</g>
<g>
</g>
<g>
</g>
<g>
</g>
<g>
</g>
<g>
</g>
<g>
</g>
<g>
</g>
<g>
</g>
<g>
</g>
<g>
</g>
<g>
</g>
<g>
</g>
<g>
</g>
</svg>
