<?xml version="1.0" encoding="iso-8859-1"?>
<!-- Generator: Adobe Illustrator 19.0.0, SVG Export Plug-In . SVG Version: 6.00 Build 0)  -->
<svg version="1.1" id="Capa_1" xmlns="http://www.w3.org/2000/svg" xmlns:xlink="http://www.w3.org/1999/xlink" x="0px" y="0px"
	 viewBox="0 0 496.944 496.944" style="enable-background:new 0 0 496.944 496.944;" xml:space="preserve">
<rect x="160.472" y="224.944" style="fill:#F0BC5E;" width="176" height="208"/>
<path d="M448.472,184.944v-8h48V124l-248-124l-248,124v52.944h48v8c0,10.416,6.712,19.216,16,22.528v194.952
	c-9.288,3.304-16,12.104-16,22.52v8H35.528l-24,48H0.472v16h496v-16h-11.056l-24-48h-12.944v-8c0-10.416-6.712-19.216-16-22.528
	V207.472C441.76,204.16,448.472,195.36,448.472,184.944z M384.472,400.944v-192h32v192H384.472z M352.472,424.944v8h-208v-8
	c0-10.416-6.712-19.216-16-22.528V207.472c9.288-3.312,16-12.112,16-22.528v-8h208v8c0,10.416,6.712,19.216,16,22.528v194.952
	C359.184,405.728,352.472,414.528,352.472,424.944z M112.472,208.944v192h-32v-192H112.472z M42.36,160.944L248.472,57.888
	l206.112,103.056H42.36z M432.472,184.944c0,4.408-3.592,8-8,8h-48c-4.408,0-8-3.592-8-8v-8h64V184.944z M248.472,17.888l232,116
	V156l-232-116l-232,116v-22.112L248.472,17.888z M128.472,176.944v8c0,4.408-3.592,8-8,8h-48c-4.408,0-8-3.592-8-8v-8H128.472z
	 M64.472,424.944c0-4.416,3.592-8,8-8h48c4.408,0,8,3.584,8,8v8h-64V424.944z M467.528,480.944H29.416l16-32h406.112
	L467.528,480.944z M368.472,432.944v-8c0-4.416,3.592-8,8-8h48c4.408,0,8,3.584,8,8v8H368.472z"/>
<rect x="180.587" y="320.941" transform="matrix(-0.7071 0.7071 -0.7071 -0.7071 656.7614 385.8429)" width="135.767" height="16"/>
<path d="M280.472,336.944c-13.232,0-24,10.768-24,24s10.768,24,24,24s24-10.768,24-24S293.704,336.944,280.472,336.944z
	 M280.472,368.944c-4.408,0-8-3.584-8-8s3.592-8,8-8c4.408,0,8,3.584,8,8S284.88,368.944,280.472,368.944z"/>
<path d="M216.472,320.944c13.232,0,24-10.768,24-24s-10.768-24-24-24s-24,10.768-24,24S203.24,320.944,216.472,320.944z
	 M216.472,288.944c4.408,0,8,3.584,8,8s-3.592,8-8,8s-8-3.584-8-8S212.064,288.944,216.472,288.944z"/>
<rect x="144.472" y="208.944" width="208" height="16"/>
<g>
</g>
<g>
</g>
<g>
</g>
<g>
</g>
<g>
</g>
<g>
</g>
<g>
</g>
<g>
</g>
<g>
</g>
<g>
</g>
<g>
</g>
<g>
</g>
<g>
</g>
<g>
</g>
<g>
</g>
</svg>
