<?xml version="1.0" encoding="iso-8859-1"?>
<!-- Generator: Adobe Illustrator 19.0.0, SVG Export Plug-In . SVG Version: 6.00 Build 0)  -->
<svg version="1.1" id="Capa_1" xmlns="http://www.w3.org/2000/svg" xmlns:xlink="http://www.w3.org/1999/xlink" x="0px" y="0px"
	 viewBox="0 0 496 496" style="enable-background:new 0 0 496 496;" xml:space="preserve">
<g>
	<circle style="fill:#F0BC5E;" cx="392" cy="104" r="104"/>
	<circle style="fill:#F0BC5E;" cx="104" cy="104" r="104"/>
	<circle style="fill:#F0BC5E;" cx="248" cy="344" r="48"/>
</g>
<path d="M376,168c13.232,0,24-10.768,24-24V56h24V40h-40v81.472c-2.512-0.896-5.184-1.472-8-1.472c-13.232,0-24,10.768-24,24
	S362.768,168,376,168z M376,136c4.416,0,8,3.592,8,8s-3.584,8-8,8s-8-3.592-8-8S371.584,136,376,136z"/>
<path d="M440,248H320v16h120c22.056,0,40,17.944,40,40s-17.944,40-40,40h-57.192L405,326.248l-10-12.496L347.192,352L395,390.248
	l10-12.496L382.808,360H440c30.872,0,56-25.12,56-56S470.872,248,440,248z"/>
<path d="M16,304c0-22.056,17.944-40,40-40h97.192L131,281.752l10,12.496L188.808,256L141,217.752l-10,12.496L153.192,248H56
	c-30.872,0-56,25.12-56,56s25.128,56,56,56h88v-16H56C33.944,344,16,326.056,16,304z"/>
<path d="M336,344c0-48.52-39.48-88-88-88s-88,39.48-88,88c0,26.488,11.608,50.96,32,67.768V416h-16v16h16v16h-16v16h16v32h112v-32
	h16v-16h-16v-16h16v-16h-16v-4.232C324.392,394.96,336,370.488,336,344z M288,448h-16v16h16v16h-80v-16h48v-16h-48v-16h80V448z
	 M248,360c-8.824,0-16-7.176-16-16s7.176-16,16-16s16,7.176,16,16S256.824,360,248,360z M256,416v-41.136
	c13.768-3.576,24-16,24-30.864c0-17.648-14.352-32-32-32s-32,14.352-32,32c0,14.864,10.232,27.288,24,30.864V416h-32v-12.104
	l-3.184-2.4C186.496,387.72,176,366.76,176,344c0-39.696,32.296-72,72-72s72,32.304,72,72c0,22.76-10.496,43.72-28.816,57.504
	L288,403.896V416H256z"/>
<path d="M104,144c-8.824,0-16-7.176-16-16H72c0,14.864,10.232,27.288,24,30.864V176h16v-17.136c13.768-3.576,24-16,24-30.864
	c0-17.648-14.352-32-32-32c-8.824,0-16-7.176-16-16s7.176-16,16-16s16,7.176,16,16h16c0-14.864-10.232-27.288-24-30.864V32H96
	v17.136c-13.768,3.576-24,16-24,30.864c0,17.648,14.352,32,32,32c8.824,0,16,7.176,16,16S112.824,144,104,144z"/>
<rect x="160" y="96" width="16" height="16"/>
<rect x="32" y="96" width="16" height="16"/>
<g>
</g>
<g>
</g>
<g>
</g>
<g>
</g>
<g>
</g>
<g>
</g>
<g>
</g>
<g>
</g>
<g>
</g>
<g>
</g>
<g>
</g>
<g>
</g>
<g>
</g>
<g>
</g>
<g>
</g>
</svg>
