<?xml version="1.0" encoding="iso-8859-1"?>
<!-- Generator: Adobe Illustrator 19.0.0, SVG Export Plug-In . SVG Version: 6.00 Build 0)  -->
<svg version="1.1" id="Capa_1" xmlns="http://www.w3.org/2000/svg" xmlns:xlink="http://www.w3.org/1999/xlink" x="0px" y="0px"
	 viewBox="0 0 496 496" style="enable-background:new 0 0 496 496;" xml:space="preserve">
<g>
	<rect x="328" y="456" style="fill:#F0BC5E;" width="128" height="32"/>
	<rect x="328" y="392" style="fill:#F0BC5E;" width="128" height="32"/>
	<rect x="328" y="328" style="fill:#F0BC5E;" width="128" height="32"/>
	<rect x="168" y="456" style="fill:#F0BC5E;" width="128" height="32"/>
	<rect x="168" y="392" style="fill:#F0BC5E;" width="128" height="32"/>
	<rect x="168" y="328" style="fill:#F0BC5E;" width="128" height="32"/>
	<rect x="8" y="456" style="fill:#F0BC5E;" width="128" height="32"/>
	<rect x="8" y="392" style="fill:#F0BC5E;" width="128" height="32"/>
	<rect x="328" y="264" style="fill:#F0BC5E;" width="128" height="32"/>
	<path style="fill:#F0BC5E;" d="M104,216C46.656,216,0,169.344,0,112S46.656,8,104,8s104,46.656,104,104S161.344,216,104,216z"/>
</g>
<path d="M104,152c-8.824,0-16-7.176-16-16H72c0,14.864,10.232,27.288,24,30.864V184h16v-17.136c13.768-3.576,24-16,24-30.864
	c0-17.648-14.352-32-32-32c-8.824,0-16-7.176-16-16s7.176-16,16-16s16,7.176,16,16h16c0-14.864-10.232-27.288-24-30.864V40H96
	v17.136c-13.768,3.576-24,16-24,30.864c0,17.648,14.352,32,32,32c8.824,0,16,7.176,16,16S112.824,152,104,152z"/>
<path d="M0,416v16v16v16v32h144v-32v-16v-16v-16v-32H0V416z M128,480H16v-16h112V480z M128,448H16v-16h112V448z M16,400h112v16H16
	V400z"/>
<path d="M160,352v16v16v16v16v16v16v8v40h144v-40v-8v-16v-16v-16v-16v-16v-16v-32H160V352z M288,448h-80v16h80v16H176v-16h16v-16
	h-16v-16h112V448z M288,416H176v-16h112V416z M288,384H176v-16h112V384z M176,336h112v16H176V336z"/>
<path d="M320,288v16v16v8v24v16v16v16v16v16v16v16v32h144v-32v-16v-16v-16v-16v-16v-16v-16v-24v-8v-16v-16v-32H320V288z M448,480
	H336v-16h112V480z M448,448H336v-16h112V448z M448,416H336v-16h112V416z M448,384H336v-16h112V384z M448,320h-16v16h16v16H336v-16
	h80v-16h-80v-16h112V320z M336,272h112v16H336V272z"/>
<path d="M376,0c-13.232,0-24,10.768-24,24s10.768,24,24,24h36.688l-117.84,117.84l-63.368-39.608L3.056,305.656l9.888,12.584
	L232.52,145.76l64.632,40.392L451.312,32H376c-4.416,0-8-3.592-8-8s3.584-8,8-8h104v104c0,4.408-3.584,8-8,8s-8-3.592-8-8V52.688
	L302.608,214.072L231.192,174.4L27,337.752l10,12.496L232.808,193.6l72.584,40.328L448,91.312V120c0,13.232,10.768,24,24,24
	s24-10.768,24-24V0H376z"/>
<rect x="32" y="104" width="16" height="16"/>
<rect x="160" y="104" width="16" height="16"/>
<g>
</g>
<g>
</g>
<g>
</g>
<g>
</g>
<g>
</g>
<g>
</g>
<g>
</g>
<g>
</g>
<g>
</g>
<g>
</g>
<g>
</g>
<g>
</g>
<g>
</g>
<g>
</g>
<g>
</g>
</svg>
