<?xml version="1.0" encoding="iso-8859-1"?>
<!-- Generator: Adobe Illustrator 19.0.0, SVG Export Plug-In . SVG Version: 6.00 Build 0)  -->
<svg version="1.1" id="Capa_1" xmlns="http://www.w3.org/2000/svg" xmlns:xlink="http://www.w3.org/1999/xlink" x="0px" y="0px"
	 viewBox="0 0 496 496" style="enable-background:new 0 0 496 496;" xml:space="preserve">
<g>
	<circle style="fill:#F0BC5E;" cx="376" cy="120" r="88"/>
	<path style="fill:#F0BC5E;" d="M440,432c-13.232,0-24-10.768-24-24s10.768-24,24-24s24,10.768,24,24S453.232,432,440,432z"/>
	<path style="fill:#F0BC5E;" d="M128,208H32v-80h96V208z"/>
</g>
<path d="M408,320h-5.64c-55.24,0-109.968,14.176-158.248,41.008L240,363.296V376h-8c-13.232,0-24,10.768-24,24h-24
	c-13.232,0-24,10.768-24,24v32c0,13.232-10.768,24-24,24s-24-10.768-24-24V272h208v-45.952C336.736,234.92,355.776,240,376,240
	c66.168,0,120-53.832,120-120S442.168,0,376,0c-31.384,0-59.904,12.208-81.304,32H0v240h96v184c0,22.056,17.944,40,40,40
	s40-17.944,40-40v-32c0-4.408,3.592-8,8-8h24c0,13.232,10.768,24,24,24h8v12.704l4.112,2.288C292.4,481.824,347.12,496,402.36,496
	H408c48.52,0,88-39.48,88-88S456.52,320,408,320z M368,55.624c-6.496-0.552-12.72-1.712-18.52-3.256
	c6.272-10.024,12.92-18.392,18.52-24.76V55.624z M368,71.704V112h-39.568c1.304-16.544,6.408-31.856,13.048-45.248
	C349.576,69.152,358.488,71.016,368,71.704z M368,128v40.296c-9.512,0.688-18.424,2.552-26.52,4.952
	c-6.64-13.392-11.744-28.704-13.048-45.248H368z M368,184.376v28.016c-5.6-6.376-12.256-14.752-18.536-24.776
	C355.264,186.08,361.496,184.92,368,184.376z M354.88,221.832c-15.208-3.152-29.136-9.712-41.136-18.72
	c4.32-2.688,11.272-6.616,20.08-10.224C340.832,204.584,348.384,214.376,354.88,221.832z M384,212.392v-28.016
	c6.496,0.552,12.72,1.712,18.52,3.256C396.248,197.648,389.6,206.024,384,212.392z M418.152,192.912
	c8.8,3.608,15.752,7.52,20.088,10.208c-11.992,9.008-25.92,15.568-41.12,18.712C403.608,214.384,411.16,204.6,418.152,192.912z
	 M384,168.296V128h39.568c-1.304,16.544-6.408,31.856-13.048,45.248C402.424,170.848,393.512,168.984,384,168.296z M384,112V71.704
	c9.512-0.688,18.424-2.552,26.52-4.952c6.64,13.392,11.744,28.704,13.048,45.248H384z M384,55.624V27.608
	c5.6,6.376,12.256,14.752,18.536,24.776C396.736,53.92,390.504,55.08,384,55.624z M397.12,18.168
	c15.208,3.152,29.136,9.712,41.136,18.72c-4.32,2.688-11.272,6.616-20.08,10.224C411.168,35.416,403.616,25.624,397.12,18.168z
	 M333.848,47.088c-8.8-3.608-15.752-7.52-20.088-10.208c11.992-9.008,25.92-15.568,41.12-18.712
	C348.392,25.616,340.84,35.4,333.848,47.088z M326.208,61.28c-7.152,14.904-12.544,32.032-13.792,50.72h-40.008
	c1.904-24.832,12.52-47.232,28.848-64.144C305.08,50.472,313.968,56.104,326.208,61.28z M312.408,128
	c1.256,18.688,6.64,35.816,13.792,50.72c-12.24,5.176-21.128,10.808-24.952,13.424C284.92,175.232,274.304,152.832,272.4,128
	H312.408z M450.744,192.144c-3.824-2.616-12.712-8.248-24.952-13.424c7.152-14.904,12.544-32.032,13.792-50.72h40.008
	C477.688,152.832,467.072,175.232,450.744,192.144z M479.592,112h-40.008c-1.256-18.688-6.64-35.816-13.792-50.72
	c12.24-5.176,21.128-10.808,24.952-13.424C467.072,64.768,477.688,87.168,479.592,112z M280.232,48
	c-10.536,13.976-18.192,30.24-21.808,48H16V48H280.232z M16,112h240.408c-0.176,2.656-0.408,5.296-0.408,8
	c0,39.272,19.048,74.096,48.304,96H304v40H16V112z M320,347.312V384h-8c-10.416,0-19.216,6.712-22.528,16H256v-27.256
	C276.328,361.856,297.848,353.424,320,347.312z M312,416c-4.408,0-8-3.592-8-8s3.592-8,8-8h32c4.408,0,8,3.592,8,8s-3.592,8-8,8H312
	z M232,424c-4.408,0-8-3.592-8-8v-16c0-4.408,3.592-8,8-8h8v32H232z M256,416h33.472c3.312,9.288,12.112,16,22.528,16h8v36.688
	c-22.152-6.112-43.672-14.544-64-25.432V416z M408,480h-5.64c-23.36,0-46.6-2.792-69.272-8H336v-40h8c13.232,0,24-10.768,24-24
	s-10.768-24-24-24h-8v-40h-2.912c22.672-5.208,45.912-8,69.272-8H408c39.696,0,72,32.304,72,72S447.696,480,408,480z"/>
<rect x="144" y="128" width="88" height="16"/>
<rect x="144" y="160" width="88" height="16"/>
<rect x="144" y="192" width="104" height="16"/>
<rect x="272" y="224" width="16" height="16"/>
<rect x="32" y="224" width="224" height="16"/>
<rect x="32" y="64" width="16" height="16"/>
<rect x="64" y="64" width="16" height="16"/>
<rect x="96" y="64" width="16" height="16"/>
<g>
</g>
<g>
</g>
<g>
</g>
<g>
</g>
<g>
</g>
<g>
</g>
<g>
</g>
<g>
</g>
<g>
</g>
<g>
</g>
<g>
</g>
<g>
</g>
<g>
</g>
<g>
</g>
<g>
</g>
</svg>
