<?xml version="1.0" encoding="iso-8859-1"?>
<!-- Generator: Adobe Illustrator 19.0.0, SVG Export Plug-In . SVG Version: 6.00 Build 0)  -->
<svg version="1.1" id="Capa_1" xmlns="http://www.w3.org/2000/svg" xmlns:xlink="http://www.w3.org/1999/xlink" x="0px" y="0px"
	 viewBox="0 0 496 496" style="enable-background:new 0 0 496 496;" xml:space="preserve">
<path style="fill:#F0BC5E;" d="M496,240H0V0h496V240z"/>
<polygon points="464,88 448,88 448,48 408,48 408,32 464,32 "/>
<polygon points="48,88 32,88 32,32 88,32 88,48 48,48 "/>
<polygon points="464,208 408,208 408,192 448,192 448,152 464,152 "/>
<polygon points="88,208 32,208 32,152 48,152 48,192 88,192 "/>
<path d="M360,320h-32v16h32c39.696,0,72-32.304,72-72v-8h-72c-37.168,0-67.856,28.32-71.616,64.512
	c-12.624,1.728-23.888,7.712-32.384,16.408V240h-16v96.92c-8.496-8.696-19.76-14.68-32.384-16.408
	C203.856,284.32,173.168,256,136,256H64v8c0,39.696,32.304,72,72,72h32v-16h-32c-28.168,0-51.536-20.896-55.432-48H136
	c30.88,0,56,25.12,56,56v8h8c19.312,0,35.472,13.768,39.192,32H160v64h16.936l8,64h126.128l8-64H336v-64h-79.192
	c3.72-18.232,19.872-32,39.192-32h8v-8c0-30.88,25.12-56,56-56h55.432C411.536,299.104,388.168,320,360,320z M296.936,480h-97.872
	l-2-16H272v-16h-76.936l-2-16h109.88L296.936,480z M320,416H176v-32h144V416z"/>
<rect x="64" y="384" width="16" height="16"/>
<rect x="48" y="400" width="16" height="16"/>
<rect x="64" y="416" width="16" height="16"/>
<rect x="80" y="400" width="16" height="16"/>
<rect x="408" y="448" width="16" height="16"/>
<rect x="392" y="464" width="16" height="16"/>
<rect x="408" y="480" width="16" height="16"/>
<rect x="424" y="464" width="16" height="16"/>
<path d="M248,96c4.408,0,8,3.592,8,8h16c0-10.416-6.712-19.216-16-22.528V64h-16v17.472c-9.288,3.312-16,12.112-16,22.528
	c0,13.232,10.768,24,24,24c4.408,0,8,3.592,8,8s-3.592,8-8,8s-8-3.592-8-8h-16c0,10.416,6.712,19.216,16,22.528V176h16v-17.472
	c9.288-3.312,16-12.112,16-22.528c0-13.232-10.768-24-24-24c-4.408,0-8-3.592-8-8S243.592,96,248,96z"/>
<path d="M322.072,167.528C331.184,153.352,336,136.92,336,120c0-48.52-39.48-88-88-88s-88,39.48-88,88s39.48,88,88,88
	c24.128,0,47.464-10.064,64.016-27.624l-11.64-10.976C286.632,183.976,268.024,192,248,192c-39.696,0-72-32.304-72-72
	s32.304-72,72-72s72,32.304,72,72c0,13.848-3.936,27.288-11.384,38.872L322.072,167.528z"/>
<rect x="288" y="112" width="16" height="16"/>
<rect x="192" y="112" width="16" height="16"/>
<g>
</g>
<g>
</g>
<g>
</g>
<g>
</g>
<g>
</g>
<g>
</g>
<g>
</g>
<g>
</g>
<g>
</g>
<g>
</g>
<g>
</g>
<g>
</g>
<g>
</g>
<g>
</g>
<g>
</g>
</svg>
