<?xml version="1.0" encoding="iso-8859-1"?>
<!-- Generator: Adobe Illustrator 19.0.0, SVG Export Plug-In . SVG Version: 6.00 Build 0)  -->
<svg version="1.1" id="Capa_1" xmlns="http://www.w3.org/2000/svg" xmlns:xlink="http://www.w3.org/1999/xlink" x="0px" y="0px"
	 viewBox="0 0 496 496" style="enable-background:new 0 0 496 496;" xml:space="preserve">
<rect x="224" y="448" width="64" height="16"/>
<path d="M456,264h-16v114.216l-48-27.432l-48,27.432V264h-16v141.784l56-32V416H128v-16h-16v56c0,22.056,17.944,40,40,40h208
	c22.056,0,40-17.944,40-40v-82.216l56,32V264z M360,480H152c-13.232,0-24-10.768-24-24v-24h256v24C384,469.232,373.232,480,360,480z
	"/>
<rect x="360" y="280" width="16" height="48"/>
<rect x="408" y="280" width="16" height="48"/>
<path d="M360,0H152c-22.056,0-40,17.944-40,40v40h16V64h256v24h16V40C400,17.944,382.056,0,360,0z M128,48v-8
	c0-13.232,10.768-24,24-24h208c13.232,0,24,10.768,24,24v8H128z"/>
<g>
	<path style="fill:#F0BC5E;" d="M272,400H0V80h272V400z"/>
	<path style="fill:#F0BC5E;" d="M392,288c-57.344,0-104-46.656-104-104S334.656,80,392,80s104,46.656,104,104S449.344,288,392,288z"
		/>
</g>
<path d="M392,256c-39.696,0-72-32.304-72-72s32.304-72,72-72s72,32.304,72,72S431.696,256,392,256z M392,128
	c-30.88,0-56,25.12-56,56s25.12,56,56,56s56-25.12,56-56S422.88,128,392,128z"/>
<rect x="32" y="256" width="208" height="16"/>
<rect x="32" y="288" width="208" height="16"/>
<rect x="32" y="320" width="208" height="16"/>
<rect x="32" y="352" width="176" height="16"/>
<path d="M240,240H32V112h208V240z M48,224h176v-96H48V224z"/>
<rect x="224" y="352" width="16" height="16"/>
<g>
</g>
<g>
</g>
<g>
</g>
<g>
</g>
<g>
</g>
<g>
</g>
<g>
</g>
<g>
</g>
<g>
</g>
<g>
</g>
<g>
</g>
<g>
</g>
<g>
</g>
<g>
</g>
<g>
</g>
</svg>
