<?xml version="1.0" encoding="iso-8859-1"?>
<!-- Generator: Adobe Illustrator 19.0.0, SVG Export Plug-In . SVG Version: 6.00 Build 0)  -->
<svg version="1.1" id="Capa_1" xmlns="http://www.w3.org/2000/svg" xmlns:xlink="http://www.w3.org/1999/xlink" x="0px" y="0px"
	 viewBox="0 0 498.536 498.536" style="enable-background:new 0 0 498.536 498.536;" xml:space="preserve">
<path style="fill:#F0BC5E;" d="M240,465.268H32v-80h208V465.268z"/>
<rect x="216" y="65.268" width="168" height="16"/>
<rect x="168" y="97.268" width="216" height="16"/>
<path d="M494.072,332.06c-20.912-24.4-48.056-41.952-78.072-51.224V1.268H100.688L0,101.956v395.312h416V393.7
	c30.008-9.28,57.16-26.824,78.072-51.224l4.464-5.208L494.072,332.06z M96,28.58v68.688H27.312L96,28.58z M400,481.268H16v-368h96
	v-96h288v259.456c-11.016-2.248-22.312-3.456-33.76-3.456h-12.48c-44.328,0-86.488,17.432-117.832,48.192L69.76,313.148
	l-36.184,24.12l36.176,24.12l166.168-8.312c31.344,30.76,73.512,48.192,117.84,48.192h12.488c11.448,0,22.744-1.208,33.76-3.456
	v83.456H400z M221.888,337.764L74.24,345.148l-11.816-7.88l11.824-7.88l147.64,7.384l-0.424,0.496L221.888,337.764z M366.24,385.268
	h-12.48c-38.304,0-74.76-14.472-102.68-40h81.608l29.656,29.656l11.312-11.312l-18.344-18.344H432v-16h-32.008l12.8-9.6l-9.592-12.8
	l-29.864,22.4h-50.92l26.016-17.344l-8.872-13.312l-45.984,30.656H251.08c27.92-25.528,64.376-40,102.68-40h12.488
	c42.192,0,82.264,17.408,111.008,48C448.504,367.86,408.44,385.268,366.24,385.268z"/>
<rect x="64" y="129.268" width="320" height="16"/>
<rect x="32" y="161.268" width="352" height="16"/>
<rect x="32" y="193.268" width="64" height="16"/>
<rect x="112" y="193.268" width="272" height="16"/>
<rect x="32" y="225.268" width="352" height="16"/>
<rect x="32" y="257.268" width="208" height="16"/>
<rect x="368" y="33.268" width="16" height="16"/>
<rect x="320" y="33.268" width="16" height="16"/>
<rect x="272" y="33.268" width="16" height="16"/>
<rect x="32" y="129.268" width="16" height="16"/>
<g>
</g>
<g>
</g>
<g>
</g>
<g>
</g>
<g>
</g>
<g>
</g>
<g>
</g>
<g>
</g>
<g>
</g>
<g>
</g>
<g>
</g>
<g>
</g>
<g>
</g>
<g>
</g>
<g>
</g>
</svg>
