<?xml version="1.0" encoding="iso-8859-1"?>
<!-- Generator: Adobe Illustrator 19.0.0, SVG Export Plug-In . SVG Version: 6.00 Build 0)  -->
<svg version="1.1" id="Capa_1" xmlns="http://www.w3.org/2000/svg" xmlns:xlink="http://www.w3.org/1999/xlink" x="0px" y="0px"
	 viewBox="0 0 499.416 499.416" style="enable-background:new 0 0 499.416 499.416;" xml:space="preserve">
<g>
	<circle style="fill:#F0BC5E;" cx="104" cy="105.708" r="104"/>
	<path style="fill:#F0BC5E;" d="M328,81.708c-70.576,0-128,57.424-128,128v32h40v-16c30.736,0,60.208-12.208,81.944-33.944
		l6.056-6.056l6.056,6.056c21.736,21.736,51.208,33.944,81.944,33.944v16h40v-32C456,139.132,398.576,81.708,328,81.708z"/>
</g>
<path d="M473.096,425.308c-6.896-18.96-23.528-32.784-43.424-36.096l-64.968-10.832c19.536-8.112,35.776-22.536,46.304-40.672H424
	c13.232,0,24-10.768,24-24c13.232,0,24-10.768,24-24v-32c0-13.232-10.768-24-24-24h-24v-16h-8c-28.824,0-55.912-11.224-76.28-31.6
	L328,174.396l-11.72,11.712c-20.368,20.376-47.456,31.6-76.28,31.6h-8v16h-24c-13.232,0-24,10.768-24,24v32
	c0,13.232,10.768,24,24,24h27.16c7.584,29.296,28.592,53.232,56.136,64.672l-64.968,10.832
	c-19.888,3.312-36.52,17.144-43.424,36.096l-26.328,72.4h342.84L473.096,425.308z M208,297.708c-4.416,0-8-3.592-8-8v-32
	c0-4.408,3.584-8,8-8h24v40c0,2.704,0.184,5.352,0.408,8H208z M316.904,423.492l-32.952,21.968l-17.52-46.712l30.576-5.096
	L316.904,423.492z M309.752,383.916c5.92,1.144,12.008,1.792,18.248,1.792s12.328-0.648,18.248-1.792L328,411.284L309.752,383.916z
	 M358.984,393.652l30.576,5.096l-17.52,46.712l-32.952-21.968L358.984,393.652z M424,321.708h-5.6c0.928-2.616,1.736-5.288,2.44-8
	H432C432,318.116,428.416,321.708,424,321.708z M448,249.708c4.416,0,8,3.592,8,8v32c0,4.408-3.584,8-8,8v-24h-16v24h-8.408
	c0.224-2.648,0.408-5.296,0.408-8v-40H448z M248,289.708v-56.256c30.088-1.904,58.104-14.528,79.592-36.024L328,197.02l0.408,0.408
	c21.496,21.504,49.504,34.128,79.592,36.032v56.248c0,11.376-2.424,22.192-6.728,32H358.52c-3.312-9.288-12.112-16-22.528-16h-16
	c-13.232,0-24,10.768-24,24s10.768,24,24,24h16c10.416,0,19.216-6.712,22.528-16h33.32c-14.616,19.384-37.76,32-63.848,32
	C283.888,369.708,248,333.82,248,289.708z M344,329.708c0,4.408-3.584,8-8,8h-16c-4.416,0-8-3.592-8-8s3.584-8,8-8h16
	C340.416,321.708,344,325.3,344,329.708z M197.936,430.78c4.928-13.536,16.816-23.416,31.016-25.784l21.392-3.568l25.696,68.528
	L328,435.324l51.952,34.632l25.696-68.528l21.392,3.568c14.2,2.368,26.088,12.248,31.016,25.784l18.52,50.928H438.24l-6.488-25.944
	l-15.512,3.88l5.52,22.064H234.24l5.512-22.056l-15.512-3.88l-6.48,25.936h-38.336L197.936,430.78z"/>
<circle cx="280" cy="257.708" r="8"/>
<circle cx="376" cy="257.708" r="8"/>
<path d="M104,65.708c8.824,0,16,7.176,16,16h16c0-14.864-10.232-27.288-24-30.864V33.708H96v17.136c-13.768,3.576-24,16-24,30.864
	c0,17.648,14.352,32,32,32c8.824,0,16,7.176,16,16s-7.176,16-16,16s-16-7.176-16-16H72c0,14.864,10.232,27.288,24,30.864v17.136h16
	v-17.136c13.768-3.576,24-16,24-30.864c0-17.648-14.352-32-32-32c-8.824,0-16-7.176-16-16S95.176,65.708,104,65.708z"/>
<rect x="160" y="97.708" width="16" height="16"/>
<rect x="32" y="97.708" width="16" height="16"/>
<g>
</g>
<g>
</g>
<g>
</g>
<g>
</g>
<g>
</g>
<g>
</g>
<g>
</g>
<g>
</g>
<g>
</g>
<g>
</g>
<g>
</g>
<g>
</g>
<g>
</g>
<g>
</g>
<g>
</g>
</svg>
