<?xml version="1.0" encoding="iso-8859-1"?>
<!-- Generator: Adobe Illustrator 19.0.0, SVG Export Plug-In . SVG Version: 6.00 Build 0)  -->
<svg version="1.1" id="Capa_1" xmlns="http://www.w3.org/2000/svg" xmlns:xlink="http://www.w3.org/1999/xlink" x="0px" y="0px"
	 viewBox="0 0 496 496" style="enable-background:new 0 0 496 496;" xml:space="preserve">
<g>
	<path style="fill:#F0BC5E;" d="M432,80H288c-13.232,0-24,10.768-24,24v80c0,13.232,10.768,24,24,24h40h64h40
		c13.232,0,24-10.768,24-24v-80C456,90.768,445.232,80,432,80z"/>
	<path style="fill:#F0BC5E;" d="M208,80H64c-13.232,0-24,10.768-24,24v80c0,13.232,10.768,24,24,24h40h64h40
		c13.232,0,24-10.768,24-24v-80C232,90.768,221.232,80,208,80z"/>
</g>
<path d="M472,240h-72.76l-5.84-58.384C392.168,169.296,381.904,160,369.52,160h-19.04c-12.384,0-22.648,9.296-23.872,21.608
	L320.76,240H175.24l-5.84-58.384C168.168,169.296,157.904,160,145.52,160h-19.04c-12.384,0-22.648,9.296-23.872,21.608L96.76,240H24
	c-13.232,0-24,10.768-24,24v16c0,10.416,6.712,19.216,16,22.528V496h48V304h32v32H80v40c0,10.416,6.712,19.216,16,22.528V496h48v-48
	h32v48h48v-97.472c9.288-3.312,16-12.112,16-22.528v-40h-16v-32h48v32h-16v40c0,10.416,6.712,19.216,16,22.528V496h48v-48h32v48h48
	v-97.472c9.288-3.312,16-12.112,16-22.528v-40h-16v-32h32v192h48V302.528c9.288-3.312,16-12.112,16-22.528v-16
	C496,250.768,485.232,240,472,240z M342.52,183.2c0.408-4.104,3.832-7.2,7.952-7.2h19.048c4.128,0,7.544,3.096,7.952,7.2l5.68,56.8
	h-46.32L342.52,183.2z M118.52,183.2c0.408-4.104,3.832-7.2,7.952-7.2h19.048c4.128,0,7.544,3.096,7.952,7.2l5.68,56.8h-46.32
	L118.52,183.2z M48,480H32V304h16V480z M112,480v-80h16v80H112z M144,432v-32h32v32H144z M192,480v-80h16v80H192z M224,376
	c0,4.408-3.584,8-8,8H104c-4.416,0-8-3.592-8-8v-24h128V376z M208,336h-96v-32h96V336z M288,480v-80h16v80H288z M320,432v-32h32v32
	H320z M368,480v-80h16v80H368z M400,376c0,4.408-3.584,8-8,8H280c-4.416,0-8-3.592-8-8v-24h128V376z M384,336h-96v-32h96V336z
	 M448,480V304h16v176H448z M480,280c0,4.408-3.584,8-8,8H24c-4.416,0-8-3.592-8-8v-16c0-4.408,3.584-8,8-8h448c4.416,0,8,3.592,8,8
	V280z"/>
<path d="M224,56c0,13.232,10.768,24,24,24s24-10.768,24-24s-10.768-24-24-24S224,42.768,224,56z M256,56c0,4.408-3.584,8-8,8
	s-8-3.592-8-8s3.584-8,8-8C252.416,48,256,51.592,256,56z"/>
<path d="M248,16c22.056,0,40,17.944,40,40h16c0-30.88-25.128-56-56-56s-56,25.12-56,56h16C208,33.944,225.944,16,248,16z"/>
<g>
</g>
<g>
</g>
<g>
</g>
<g>
</g>
<g>
</g>
<g>
</g>
<g>
</g>
<g>
</g>
<g>
</g>
<g>
</g>
<g>
</g>
<g>
</g>
<g>
</g>
<g>
</g>
<g>
</g>
</svg>
