<?xml version="1.0" encoding="iso-8859-1"?>
<!-- Generator: Adobe Illustrator 19.0.0, SVG Export Plug-In . SVG Version: 6.00 Build 0)  -->
<svg version="1.1" id="Capa_1" xmlns="http://www.w3.org/2000/svg" xmlns:xlink="http://www.w3.org/1999/xlink" x="0px" y="0px"
	 viewBox="0 0 502.432 502.432" style="enable-background:new 0 0 502.432 502.432;" xml:space="preserve">
<g>
	<circle style="fill:#F0BC5E;" cx="104" cy="395.216" r="104"/>
	<path style="fill:#F0BC5E;" d="M256,83.216H32v-48h224V83.216z"/>
	<path style="fill:#F0BC5E;" d="M96,211.216H32v-48h64V211.216z"/>
	<path style="fill:#F0BC5E;" d="M176,211.216h-64v-48h64V211.216z"/>
	<path style="fill:#F0BC5E;" d="M256,211.216h-64v-48h64V211.216z"/>
	<path style="fill:#F0BC5E;" d="M336,211.216h-64v-48h64V211.216z"/>
</g>
<path d="M440,315.216c0-30.88-25.12-56-56-56s-56,25.12-56,56s25.12,56,56,56S440,346.096,440,315.216z M384,355.216
	c-22.056,0-40-17.944-40-40s17.944-40,40-40s40,17.944,40,40S406.056,355.216,384,355.216z"/>
<path d="M462.376,395.12c0.264-0.248,0.56-0.448,0.824-0.704c11.36-11.36,14.496-28.272,8.872-42.712
	C486.256,345.456,496,331.28,496,315.216s-9.744-30.24-23.928-36.48c4.528-11.648,3.272-24.864-3.312-35.52H496v-240H0v240h299.24
	c-6.584,10.656-7.848,23.872-3.312,35.52c-14.184,6.24-23.928,20.416-23.928,36.48s9.744,30.24,23.928,36.48
	c-5.616,14.44-2.488,31.352,8.872,42.712c0.256,0.256,0.56,0.456,0.824,0.704l-40.056,64.104h41.488l19.952,39.904l48.608-72.912
	c2.728,0.592,5.504,1.008,8.384,1.008s5.656-0.416,8.384-1.008l48.608,72.912l19.952-39.904h41.488L462.376,395.12z M16,19.216h464
	v208h-30.408c-9.28-3.616-19.712-3.736-29.112-0.072c-6.24-14.184-20.416-23.928-36.48-23.928s-30.24,9.744-36.48,23.928
	c-9.408-3.656-19.832-3.544-29.112,0.072H16V19.216z M328.992,467.312l-12.048-24.096h-22.512l24.784-39.648
	c9.072,3.304,19.176,3.264,28.304-0.28c2.896,6.592,7.56,12.16,13.288,16.304L328.992,467.312z M360.352,390.384l-1.824-13.68
	l-10.968,8.384c-9.512,7.28-23.032,6.424-31.448-1.992c-8.408-8.416-9.264-21.936-1.992-31.448l8.384-10.96l-13.68-1.832
	C296.96,337.272,288,327.112,288,315.216s8.952-22.064,20.832-23.648l13.68-1.824l-8.384-10.968
	c-7.28-9.512-6.424-23.04,1.992-31.448c8.408-8.408,21.928-9.272,31.448-1.992l10.968,8.384l1.824-13.68
	c1.576-11.872,11.744-20.824,23.64-20.824s22.064,8.952,23.648,20.832l1.824,13.68l10.968-8.384c9.52-7.28,23.04-6.424,31.448,1.992
	c8.408,8.416,9.264,21.936,1.992,31.448l-8.384,10.968l13.68,1.824C471.048,293.152,480,303.32,480,315.216
	s-8.96,22.056-20.832,23.648l-13.68,1.832l8.384,10.96c7.28,9.512,6.424,23.032-1.992,31.448
	c-8.416,8.408-21.936,9.264-31.448,1.992l-10.968-8.384l-1.824,13.68c-1.576,11.872-11.744,20.824-23.64,20.824
	S361.936,402.264,360.352,390.384z M451.056,443.216l-12.048,24.096l-31.808-47.72c5.72-4.144,10.384-9.712,13.288-16.304
	c9.128,3.544,19.224,3.576,28.304,0.272l24.776,39.656H451.056z"/>
<rect x="352" y="35.216" width="112" height="16"/>
<rect x="320" y="67.216" width="144" height="16"/>
<rect x="32" y="131.216" width="432" height="16"/>
<rect x="32" y="99.216" width="16" height="16"/>
<rect x="80" y="99.216" width="16" height="16"/>
<rect x="128" y="99.216" width="16" height="16"/>
<rect x="176" y="99.216" width="16" height="16"/>
<rect x="224" y="99.216" width="16" height="16"/>
<rect x="272" y="99.216" width="16" height="16"/>
<rect x="320" y="99.216" width="16" height="16"/>
<path d="M104,355.216c8.824,0,16,7.176,16,16h16c0-14.864-10.24-27.288-24-30.864v-17.136H96v17.136c-13.76,3.576-24,16-24,30.864
	c0,17.648,14.352,32,32,32c8.824,0,16,7.176,16,16s-7.176,16-16,16s-16-7.176-16-16H72c0,14.864,10.24,27.288,24,30.864v17.136h16
	V450.08c13.76-3.576,24-16,24-30.864c0-17.648-14.352-32-32-32c-8.824,0-16-7.176-16-16S95.176,355.216,104,355.216z"/>
<rect x="160" y="387.216" width="16" height="16"/>
<rect x="32" y="387.216" width="16" height="16"/>
<g>
</g>
<g>
</g>
<g>
</g>
<g>
</g>
<g>
</g>
<g>
</g>
<g>
</g>
<g>
</g>
<g>
</g>
<g>
</g>
<g>
</g>
<g>
</g>
<g>
</g>
<g>
</g>
<g>
</g>
</svg>
