<?xml version="1.0" encoding="iso-8859-1"?>
<!-- Generator: Adobe Illustrator 19.0.0, SVG Export Plug-In . SVG Version: 6.00 Build 0)  -->
<svg version="1.1" id="Capa_1" xmlns="http://www.w3.org/2000/svg" xmlns:xlink="http://www.w3.org/1999/xlink" x="0px" y="0px"
	 viewBox="0 0 496 496" style="enable-background:new 0 0 496 496;" xml:space="preserve">
<g>
	<path style="fill:#F0BC5E;" d="M72,80c-13.232,0-24-10.768-24-24V24C48,10.768,58.768,0,72,0s24,10.768,24,24v32
		C96,69.232,85.232,80,72,80z"/>
	<path style="fill:#F0BC5E;" d="M136,80c-13.232,0-24-10.768-24-24V24c0-13.232,10.768-24,24-24s24,10.768,24,24v32
		C160,69.232,149.232,80,136,80z"/>
	<path style="fill:#F0BC5E;" d="M200,80c-13.232,0-24-10.768-24-24V24c0-13.232,10.768-24,24-24s24,10.768,24,24v32
		C224,69.232,213.232,80,200,80z"/>
	<path style="fill:#F0BC5E;" d="M264,80c-13.232,0-24-10.768-24-24V24c0-13.232,10.768-24,24-24s24,10.768,24,24v32
		C288,69.232,277.232,80,264,80z"/>
	<path style="fill:#F0BC5E;" d="M328,80c-13.232,0-24-10.768-24-24V24c0-13.232,10.768-24,24-24s24,10.768,24,24v32
		C352,69.232,341.232,80,328,80z"/>
</g>
<polygon points="384,296 400,296 400,32 352,32 352,48 384,48 "/>
<polygon points="16,48 48,48 48,32 0,32 0,400 296,400 296,384 16,384 "/>
<path d="M32,160v208h144v-64h184v-8h8V96H224v64H32z M224,176v48h-48v-48H224z M304,240h48v48h-48V240z M288,288h-48v-48h48V288z
	 M304,224v-48h48v48H304z M288,224h-48v-48h48V224z M160,224h-48v-48h48V224z M112,240h48v48h-48V240z M96,288H48v-48h48V288z
	 M96,176v48H48v-48H96z M48,304h48v48H48V304z M160,352h-48v-48h48V352z M176,240h48v48h-48V240z M352,160h-48v-48h48V160z M240,112
	h48v48h-48V112z"/>
<circle style="fill:#F0BC5E;" cx="392" cy="392" r="104"/>
<rect x="96" y="32" width="16" height="16"/>
<rect x="160" y="32" width="16" height="16"/>
<rect x="224" y="32" width="16" height="16"/>
<rect x="288" y="32" width="16" height="16"/>
<path d="M392,352c8.824,0,16,7.176,16,16h16c0-14.864-10.24-27.288-24-30.864V320h-16v17.136c-13.76,3.576-24,16-24,30.864
	c0,17.648,14.352,32,32,32c8.824,0,16,7.176,16,16s-7.176,16-16,16s-16-7.176-16-16h-16c0,14.864,10.24,27.288,24,30.864V464h16
	v-17.136c13.76-3.576,24-16,24-30.864c0-17.648-14.352-32-32-32c-8.824,0-16-7.176-16-16S383.176,352,392,352z"/>
<rect x="448" y="384" width="16" height="16"/>
<rect x="320" y="384" width="16" height="16"/>
<g>
</g>
<g>
</g>
<g>
</g>
<g>
</g>
<g>
</g>
<g>
</g>
<g>
</g>
<g>
</g>
<g>
</g>
<g>
</g>
<g>
</g>
<g>
</g>
<g>
</g>
<g>
</g>
<g>
</g>
</svg>
