<?xml version="1.0" encoding="iso-8859-1"?>
<!-- Generator: Adobe Illustrator 19.0.0, SVG Export Plug-In . SVG Version: 6.00 Build 0)  -->
<svg version="1.1" id="Capa_1" xmlns="http://www.w3.org/2000/svg" xmlns:xlink="http://www.w3.org/1999/xlink" x="0px" y="0px"
	 viewBox="0 0 496 496" style="enable-background:new 0 0 496 496;" xml:space="preserve">
<g>
	<path style="fill:#F0BC5E;" d="M112,0C67.888,0,32,35.888,32,80v40h8c0-13.256,10.744-24,24-24c0-8.84,7.16-16,16-16h64
		c8.84,0,16,7.16,16,16c13.256,0,24,10.744,24,24h8V80C192,35.888,156.112,0,112,0z"/>
	<path style="fill:#F0BC5E;" d="M384,0c-44.112,0-80,35.888-80,80v120h16l40-8v-22.592c-9.752-5.688-17.384-14.608-21.208-25.408
		H336c-13.256,0-24-10.744-24-24s10.744-24,24-24v-8c15.368,0,30.104-6.104,40.968-16.968L384,64l7.032,7.032
		C401.896,81.896,416.632,88,432,88v8c13.256,0,24,10.744,24,24s-10.744,24-24,24h-2.792c-3.824,10.8-11.456,19.728-21.208,25.408
		V192l40,8h16V80C464,35.888,428.112,0,384,0z"/>
</g>
<path d="M463.848,195.008L416,185.44v-11.552c8.008-5.6,14.456-13.24,18.648-22.16C451.04,150.36,464,136.736,464,120
	c0-14.864-10.24-27.288-24-30.864V80h-8c-13.336,0-25.88-5.192-35.312-14.624L384,52.688l-12.688,12.688
	C361.88,74.808,349.336,80,336,80h-8v9.136c-13.76,3.576-24,16-24,30.864c0,16.736,12.96,30.36,29.352,31.728
	c4.2,8.92,10.64,16.56,18.648,22.16v11.552l-47.848,9.568C285.52,198.736,272,215.232,272,234.232V256h112v120c0,4.408-3.592,8-8,8
	h-32v16h32c13.232,0,24-10.768,24-24V256h96v-21.768C496,215.232,482.48,198.736,463.848,195.008z M320,120
	c0-5.896,3.24-11,8-13.776V128c0,2.008,0.12,3.992,0.328,5.952C323.392,131.224,320,126.032,320,120z M448,120
	c0,6.032-3.392,11.224-8.328,13.952c0.208-1.96,0.328-3.944,0.328-5.952v-21.776C444.76,109,448,114.104,448,120z M344,128V95.52
	c14.584-1.752,28.08-8.288,38.624-18.832L384,75.312l1.376,1.376C395.92,87.232,409.416,93.768,424,95.52V128
	c0,22.056-17.944,40-40,40S344,150.056,344,128z M384,184c5.56,0,10.928-0.84,16-2.36v7.048l-16,16l-16-16v-7.048
	C373.072,183.16,378.44,184,384,184z M480,240H288v-5.768c0-11.4,8.112-21.296,19.296-23.536l50.08-10.016L384,227.312
	l26.632-26.632l50.08,10.016c11.176,2.24,19.288,12.136,19.288,23.536V240z"/>
<path d="M112,376V256h112v-21.768c0-19-13.52-35.496-32.152-39.224L144,185.44v-11.552c8.008-5.6,14.456-13.24,18.648-22.16
	C179.04,150.36,192,136.736,192,120c0-15.32-10.84-28.136-25.24-31.248C163.664,79.072,154.688,72,144,72H80
	c-10.688,0-19.664,7.072-22.76,16.752C42.84,91.864,32,104.68,32,120c0,16.736,12.96,30.36,29.352,31.728
	c4.2,8.92,10.64,16.56,18.648,22.16v11.552l-47.848,9.568C13.52,198.736,0,215.232,0,234.232V256h96v120c0,13.232,10.768,24,24,24
	h32v-16h-32C115.592,384,112,380.408,112,376z M176,120c0,6.032-3.392,11.224-8.328,13.952c0.208-1.96,0.328-3.944,0.328-5.952
	v-21.776C172.76,109,176,114.104,176,120z M48,120c0-5.896,3.24-11,8-13.776V128c0,2.008,0.12,3.992,0.328,5.952
	C51.392,131.224,48,126.032,48,120z M72,128V96c0-4.408,3.592-8,8-8h64c4.408,0,8,3.592,8,8v32c0,22.056-17.944,40-40,40
	S72,150.056,72,128z M112,184c5.56,0,10.928-0.84,16-2.36v7.048l-16,16l-16-16v-7.048C101.072,183.16,106.44,184,112,184z
	 M16,234.232c0-11.4,8.112-21.296,19.296-23.536l50.08-10.016L112,227.312l26.632-26.632l50.08,10.016
	c11.176,2.24,19.288,12.136,19.288,23.536V240H16V234.232z"/>
<circle style="fill:#F0BC5E;" cx="248" cy="392" r="104"/>
<rect x="368" y="416" width="16" height="16"/>
<rect x="400" y="416" width="16" height="16"/>
<rect x="432" y="416" width="16" height="16"/>
<rect x="48" y="416" width="16" height="16"/>
<rect x="80" y="416" width="16" height="16"/>
<rect x="112" y="416" width="16" height="16"/>
<path d="M248,352c8.824,0,16,7.176,16,16h16c0-14.864-10.24-27.288-24-30.864V320h-16v17.136c-13.76,3.576-24,16-24,30.864
	c0,17.648,14.352,32,32,32c8.824,0,16,7.176,16,16s-7.176,16-16,16s-16-7.176-16-16h-16c0,14.864,10.24,27.288,24,30.864V464h16
	v-17.136c13.76-3.576,24-16,24-30.864c0-17.648-14.352-32-32-32c-8.824,0-16-7.176-16-16S239.176,352,248,352z"/>
<rect x="304" y="384" width="16" height="16"/>
<rect x="176" y="384" width="16" height="16"/>
<g>
</g>
<g>
</g>
<g>
</g>
<g>
</g>
<g>
</g>
<g>
</g>
<g>
</g>
<g>
</g>
<g>
</g>
<g>
</g>
<g>
</g>
<g>
</g>
<g>
</g>
<g>
</g>
<g>
</g>
</svg>
