<svg xmlns="http://www.w3.org/2000/svg" width="161.568" height="113.141" viewBox="0 0 161.568 113.141"><defs><style>.a{fill:#00a1e0;}.b{fill:#fff;}</style></defs><g transform="translate(-1.1 -1)"><g transform="translate(1.1 1)"><path class="a" d="M68.3,13.371a28.336,28.336,0,0,1,45.443,5.968,34.37,34.37,0,0,1,14.112-2.984,35.124,35.124,0,1,1-6.838,69.563A25.516,25.516,0,0,1,87.634,96.424a29.057,29.057,0,0,1-54.022-1.305,27.387,27.387,0,0,1-5.533.559A27.342,27.342,0,0,1,14.59,44.764a30.789,30.789,0,0,1-2.611-12.5A31.363,31.363,0,0,1,68.3,13.371" transform="translate(-1.1 -1)"/><path class="b" d="M38.668,83.785l.684-1.8c.124-.311.311-.186.435-.124.186.124.311.187.559.373a7.716,7.716,0,0,0,4.289,1.243c1.43,0,2.362-.746,2.362-1.8v-.062c0-1.119-1.368-1.554-2.984-2.051l-.373-.124c-2.176-.622-4.538-1.554-4.538-4.289v-.062c0-2.611,2.114-4.476,5.16-4.476h.311A8.784,8.784,0,0,1,49.3,71.911a.3.3,0,0,1,.186.373c-.062.187-.622,1.616-.684,1.8-.124.311-.435.124-.435.124a9.449,9.449,0,0,0-4.227-1.057c-1.305,0-2.114.684-2.114,1.616v.062c0,1.057,1.43,1.554,3.046,2.051l.311.062c2.176.684,4.476,1.616,4.476,4.289V81.3c0,2.86-2.051,4.6-5.346,4.6a10.039,10.039,0,0,1-4.849-1.119,7.4,7.4,0,0,1-.932-.559C38.668,84.1,38.543,84.033,38.668,83.785Zm48.489,0,.684-1.8a.257.257,0,0,1,.435-.124c.187.124.311.187.559.373a7.716,7.716,0,0,0,4.289,1.243c1.43,0,2.362-.746,2.362-1.8v-.062c0-1.119-1.368-1.554-2.984-2.051l-.373-.124c-2.176-.622-4.538-1.554-4.538-4.289v-.062c0-2.611,2.114-4.476,5.16-4.476h.311a8.784,8.784,0,0,1,4.725,1.305.3.3,0,0,1,.186.373c-.062.187-.622,1.616-.684,1.8-.124.311-.435.124-.435.124a9.449,9.449,0,0,0-4.227-1.057c-1.305,0-2.114.684-2.114,1.616v.062c0,1.057,1.43,1.554,3.046,2.051l.311.062c2.176.684,4.476,1.616,4.476,4.289V81.3c0,2.86-2.051,4.6-5.346,4.6a10.039,10.039,0,0,1-4.849-1.119,7.4,7.4,0,0,1-.932-.559C87.219,84.1,87.095,84.033,87.157,83.785Zm35.932-8.517a11.526,11.526,0,0,1,.435,2.984,9.369,9.369,0,0,1-.435,2.984,6.415,6.415,0,0,1-1.243,2.424,6,6,0,0,1-2.114,1.616,8.237,8.237,0,0,1-5.968,0,5.5,5.5,0,0,1-2.114-1.616,6.415,6.415,0,0,1-1.243-2.424,11.526,11.526,0,0,1-.435-2.984,9.369,9.369,0,0,1,.435-2.984,6.415,6.415,0,0,1,1.243-2.424,6,6,0,0,1,2.114-1.616,7.512,7.512,0,0,1,2.984-.622,6.576,6.576,0,0,1,2.984.622,5.5,5.5,0,0,1,2.114,1.616A6.415,6.415,0,0,1,123.088,75.268Zm-2.8,2.922a6.889,6.889,0,0,0-.87-3.73,2.99,2.99,0,0,0-2.673-1.305,2.921,2.921,0,0,0-2.673,1.305,6.889,6.889,0,0,0-.87,3.73,7.281,7.281,0,0,0,.87,3.792,3.389,3.389,0,0,0,5.346,0A6.594,6.594,0,0,0,120.291,78.19Zm25.55,4.662.684,1.865c.062.249-.124.311-.124.311a10.751,10.751,0,0,1-3.916.684,6.99,6.99,0,0,1-5.471-2.051,7.947,7.947,0,0,1-1.865-5.533,9.369,9.369,0,0,1,.435-2.984,6.645,6.645,0,0,1,1.368-2.424,6.464,6.464,0,0,1,2.238-1.616,7.906,7.906,0,0,1,3.108-.622,18.132,18.132,0,0,1,2.051.124,9.95,9.95,0,0,1,1.865.5.248.248,0,0,1,.187.311c-.249.746-.435,1.243-.684,1.865-.124.311-.311.186-.311.186a8.737,8.737,0,0,0-2.922-.435,3.418,3.418,0,0,0-3.046,1.368,5.728,5.728,0,0,0-1.057,3.668,5.421,5.421,0,0,0,1.181,3.792,4.083,4.083,0,0,0,3.17,1.181,10.314,10.314,0,0,0,1.492-.124,5.161,5.161,0,0,0,1.305-.373C145.468,82.666,145.717,82.6,145.841,82.852Zm14.112-8.144a8.513,8.513,0,0,1,.249,4.041.244.244,0,0,1-.249.249h-9.387a4.185,4.185,0,0,0,1.119,3.108,4.4,4.4,0,0,0,3.233,1.119,9.2,9.2,0,0,0,3.854-.684.334.334,0,0,1,.373.187l.622,1.741c.124.311,0,.373-.062.435a9.7,9.7,0,0,1-4.725.932,9.381,9.381,0,0,1-3.419-.559,6.268,6.268,0,0,1-2.362-1.554,6.92,6.92,0,0,1-1.368-2.362,10.448,10.448,0,0,1,0-5.968,6.414,6.414,0,0,1,1.243-2.424,5.711,5.711,0,0,1,2.176-1.616,6.941,6.941,0,0,1,3.108-.622,6.042,6.042,0,0,1,2.673.559,5.522,5.522,0,0,1,1.8,1.368A5.1,5.1,0,0,1,159.952,74.709ZM150.628,76.7h6.652a4.969,4.969,0,0,0-.622-2.238,2.859,2.859,0,0,0-2.611-1.368,2.964,2.964,0,0,0-2.673,1.368A6.292,6.292,0,0,0,150.628,76.7ZM84.919,74.709a10.178,10.178,0,0,1,.311,4.041.244.244,0,0,1-.249.249H75.594a4.185,4.185,0,0,0,1.119,3.108,4.4,4.4,0,0,0,3.233,1.119,9.2,9.2,0,0,0,3.854-.684.334.334,0,0,1,.373.187l.622,1.741c.124.311,0,.373-.062.435a9.7,9.7,0,0,1-4.725.932,9.381,9.381,0,0,1-3.419-.559,6.268,6.268,0,0,1-2.362-1.554,6.92,6.92,0,0,1-1.368-2.362,10.448,10.448,0,0,1,0-5.968A6.415,6.415,0,0,1,74.1,72.968a5.711,5.711,0,0,1,2.176-1.616,6.941,6.941,0,0,1,3.108-.622,6.042,6.042,0,0,1,2.673.559,5.522,5.522,0,0,1,1.8,1.368A5.138,5.138,0,0,1,84.919,74.709ZM75.594,76.7h6.714a4.969,4.969,0,0,0-.622-2.238,2.859,2.859,0,0,0-2.611-1.368A2.964,2.964,0,0,0,76.4,74.46,5.266,5.266,0,0,0,75.594,76.7ZM59.12,76.2s.746.062,1.554.187v-.373c0-1.243-.249-1.865-.746-2.238a3.9,3.9,0,0,0-2.3-.622,10.279,10.279,0,0,0-4.1.932.193.193,0,0,1-.124.062s-.249.062-.311-.124l-.684-1.8a.277.277,0,0,1,.062-.373,8.58,8.58,0,0,1,2.86-1.057,16.85,16.85,0,0,1,2.487-.249A6.32,6.32,0,0,1,62.1,71.849,5.232,5.232,0,0,1,63.6,76.014v8.579s0,.249-.186.311a6.824,6.824,0,0,1-.684.186c-.311.062-1.43.311-2.362.435a14.4,14.4,0,0,1-2.86.249,10.211,10.211,0,0,1-2.487-.249,6,6,0,0,1-1.927-.808,4.21,4.21,0,0,1-1.243-1.492,4.427,4.427,0,0,1-.435-2.114,4.877,4.877,0,0,1,.5-2.176,4.668,4.668,0,0,1,1.368-1.554,6.922,6.922,0,0,1,1.927-.932,9.332,9.332,0,0,1,2.3-.311C58.25,76.2,58.747,76.2,59.12,76.2Zm-3.73,6.59a4.162,4.162,0,0,0,2.735.559,17.823,17.823,0,0,0,2.549-.311V78.749a18.343,18.343,0,0,0-2.549-.187,4.411,4.411,0,0,0-2.735.684,2.012,2.012,0,0,0-.808,1.8,2.448,2.448,0,0,0,.311,1.243C54.955,82.417,55.017,82.541,55.39,82.79Zm79.261-11.376c-.062.249-.559,1.554-.684,1.989a.341.341,0,0,1-.373.249,5.722,5.722,0,0,0-1.057-.124,5.025,5.025,0,0,0-1.243.187,3.259,3.259,0,0,0-1.181.684,2.975,2.975,0,0,0-.808,1.368,8.673,8.673,0,0,0-.311,2.487v6.963a.294.294,0,0,1-.311.311H126.2a.294.294,0,0,1-.311-.311V71.227a.284.284,0,0,1,.249-.311h2.424c.186,0,.249.124.249.311v1.119a4.145,4.145,0,0,1,1.554-1.181,4.922,4.922,0,0,1,2.424-.373,9.95,9.95,0,0,1,1.554.249C134.589,71.1,134.713,71.165,134.651,71.414Zm-23.063-6.465a.248.248,0,0,1,.186.311l-.746,1.989c-.062.124-.124.249-.435.124-.062,0-.187-.062-.5-.124a2.787,2.787,0,0,0-.746-.062,4.832,4.832,0,0,0-.995.124,1.6,1.6,0,0,0-.808.5,3.109,3.109,0,0,0-.684.995,9.311,9.311,0,0,0-.5,2.114h2.984c.249,0,.311.124.311.311l-.373,1.927c-.062.311-.311.249-.311.249h-3.108l-1.989,12a23.3,23.3,0,0,1-.808,3.17,5.948,5.948,0,0,1-1.243,2.114,3.645,3.645,0,0,1-1.741,1.181,6.371,6.371,0,0,1-2.3.373,5.333,5.333,0,0,1-1.368-.124,3.563,3.563,0,0,1-.87-.249.277.277,0,0,1-.124-.373c.062-.187.622-1.678.684-1.927.124-.249.311-.124.311-.124.187.062.311.124.5.186a3.8,3.8,0,0,0,1.865-.124,1.869,1.869,0,0,0,.87-.684,6.218,6.218,0,0,0,.684-1.305,20.925,20.925,0,0,0,.559-2.3l2.114-11.749h-2.051c-.249,0-.311-.124-.311-.311l.373-1.927c.062-.311.311-.249.311-.249h2.114l.124-.622a7.637,7.637,0,0,1,1.865-4.227,5.462,5.462,0,0,1,3.979-1.43,7.76,7.76,0,0,1,1.305.124A1.49,1.49,0,0,1,111.588,64.949Zm-41.9,20.2a.284.284,0,0,1-.249.311H66.953c-.186,0-.249-.124-.249-.311V65.2c0-.124.124-.311.249-.311H69.44c.187,0,.249.124.249.311Z" transform="translate(-15.293 -25.101)"/></g></g></svg>