<?xml version="1.0" encoding="utf-8"?>
<!-- Generator: Adobe Illustrator 23.0.4, SVG Export Plug-In . SVG Version: 6.00 Build 0)  -->
<svg version="1.1" id="图层_1" xmlns="http://www.w3.org/2000/svg" xmlns:xlink="http://www.w3.org/1999/xlink" x="0px" y="0px"
	 viewBox="0 0 652 334.5" style="enable-background:new 0 0 652 334.5;" xml:space="preserve">
<style type="text/css">
	.st0{fill:#373C41;}
</style>
<g>
	<path class="st0" d="M299.6,167L234,152.8c-6-1.4-10.5-6.6-10.7-12.9c0-0.2,0-70.5,0-70.7c0.3-6.3,4.8-11.6,10.7-12.9L299.6,42
		l7-27.8h-76.4c-26.8,0-48.6,21.7-48.7,48.5v83.8c0.1,26.8,21.9,48.5,48.7,48.5h76.4L299.6,167z"/>
	<path class="st0" d="M355.4,167l65.6-14.3c6-1.4,10.5-6.6,10.7-12.9c0-0.2,0-70.5,0-70.7c-0.3-6.3-4.8-11.6-10.7-12.9L355.4,42
		l-7-27.8h76.4c26.8,0,48.6,21.7,48.7,48.5v83.8c-0.1,26.8-21.9,48.5-48.7,48.5h-76.4L355.4,167z"/>
	<rect x="299.6" y="101" class="st0" width="55.8" height="7"/>
	<path class="st0" d="M512.3,321.4H504c-10.4,0-18.9-8.5-18.9-18.9v-24.4c0-10.4,8.5-18.9,18.9-18.9h8.3c10.4,0,18.9,8.5,18.9,18.9
		v24.4C531.2,312.9,522.7,321.4,512.3,321.4 M504,270.1c-4.4,0-8.1,3.6-8.1,8.1v24.4c0,4.4,3.6,8,8.1,8h8.3c4.5,0,8.1-3.6,8.1-8
		v-24.4c0-4.4-3.6-8.1-8.1-8.1H504z"/>
	<rect x="96.8" y="238.7" class="st0" width="10.8" height="81.3"/>
	<rect x="120.3" y="260.7" class="st0" width="10.8" height="59.3"/>
	<path class="st0" d="M125.7,238.7c-4,0-7.3,3.3-7.3,7.3c0,4,3.2,7.3,7.3,7.3c4,0,7.3-3.2,7.3-7.3C133,242,129.7,238.7,125.7,238.7"
		/>
	<path class="st0" d="M58,238.7H46.7h-1.9c-5,8.8-16.9,33-29.1,81.3H27c1.9-7.4,3.8-14.1,5.6-20.3h39.5c1.8,6.2,3.7,13,5.6,20.3H89
		c-12.2-48.3-24.1-72.5-29.1-81.3H58z M36,288.8c6.1-18.9,11.6-31.5,15.3-39h2.1c3.7,7.4,9.2,20,15.3,39H36z"/>
	<rect x="464.3" y="238.6" class="st0" width="10.8" height="81.4"/>
	<rect x="143.8" y="238.7" class="st0" width="10.8" height="81.3"/>
	<path class="st0" d="M168.6,321.4c-5.2,0-13-0.9-20.1-2.6l2.5-10.5c16.9,4.1,24.6,1.8,26.8,0.1c2.2-1.7,2.3-4.6,2.3-7.9v-18.4H191
		v18.4c0,3.7,0,11.3-6.4,16.4C180.7,319.9,175.5,321.4,168.6,321.4"/>
	<path class="st0" d="M191,297.5h-10.8v-18.4c0-3.1-0.1-5.6-2-7.1c-1.7-1.3-7.5-3.9-25.4,0.4l-2.5-10.5c16.8-4.1,28.2-3.5,34.7,1.6
		c6.2,4.9,6.2,12.1,6.1,15.6V297.5z"/>
	<path class="st0" d="M451.3,307c-7.6,3-22.3,5.2-34.8,2.2c-6.9-1.7-7.4-7.1-7.4-8.1V286v-12.6v-14.4c0-1,0.5-6.3,7.4-8.1
		c12.7-3.1,27.6-0.8,35.1,2.3l2.7-10.6c-6.8-2.5-15.7-4-24.5-4c-5.5,0-11,0.6-15.8,1.8c-12.4,3.1-15.7,13.5-15.7,18.6v14.4v6.3v6.3
		v15.1c0,5.1,3.2,15.5,15.7,18.6c4.9,1.2,10.3,1.8,15.8,1.8c8.7,0,17.5-1.4,24.3-3.9L451.3,307z"/>
	<rect x="574.5" y="260.7" class="st0" width="10.8" height="59.3"/>
	<path class="st0" d="M562.5,321.4c-6.9,0-12.1-1.5-15.9-4.5c-6.5-5.1-6.5-12.7-6.5-16.4v-40H551v40c0,3.3,0.2,6.2,2.3,7.9
		c2.1,1.7,8.3,3.9,25.1-0.1l2.5,10.5C573.9,320.5,567.7,321.4,562.5,321.4"/>
	<rect x="628.5" y="238.7" class="st0" width="10.8" height="81.3"/>
	<path class="st0" d="M616.7,321.4c-6.9,0-12.1-1.5-15.9-4.5c-6.5-5.1-6.5-12.7-6.4-16.4v-18.4h10.8v18.4c0,3.3,0.2,6.2,2.3,7.9
		c2.1,1.7,8.3,3.9,25.1-0.1l2.5,10.5C628.1,320.6,621.9,321.4,616.7,321.4"/>
	<path class="st0" d="M605.2,297.6h-10.8v-18.4c0-3.5,0-10.8,6.1-15.6c6.5-5.2,17.9-5.7,34.7-1.6l-2.5,10.5
		c-17.9-4.3-23.8-1.7-25.5-0.4c-1.9,1.5-2,4-2,7.1V297.6z"/>
	<path class="st0" d="M239,263.1c-10.7-7.7-30.7-2-35.5-0.4l2.7,10.5c6.3-2.2,21-5.3,26.6-1.3c1,0.7,2.2,2,2.2,5.3V320h10.8v-42.8
		C245.7,269.5,242,265.3,239,263.1"/>
	<path class="st0" d="M219.3,321.4c-11,0-18.4-5.2-20.3-14.1c-1.1-5.3-0.3-10.2,2.4-14.1c3-4.4,8-7.2,15-8.3
		c13.8-2.3,24.4,1.4,24.9,1.6l-3.6,10.2c-0.1,0-8.6-2.9-19.5-1.1c-2.7,0.4-6.2,1.5-7.8,3.7c-1.2,1.8-1,4.1-0.7,5.8
		c0.3,1.5,1.2,5.5,9.7,5.5c5.9,0,15.1-1.1,18.1-2.1l3.5,10.2C236.4,320.2,225.9,321.4,219.3,321.4"/>
	<path class="st0" d="M353.5,263.1c-10.7-7.7-30.7-2-35.5-0.4l2.6,10.5c6.3-2.2,21-5.3,26.6-1.3c1,0.7,2.2,2,2.2,5.3V320h10.8v-42.8
		C360.2,269.5,356.5,265.3,353.5,263.1"/>
	<path class="st0" d="M333.8,321.4c-11,0-18.4-5.2-20.3-14.1c-1.1-5.3-0.3-10.2,2.3-14.1c3-4.4,8-7.2,15-8.3
		c13.8-2.3,24.4,1.4,24.9,1.6l-3.6,10.2c-0.1,0-8.6-2.9-19.5-1.1c-2.7,0.4-6.2,1.5-7.8,3.7c-1.2,1.8-1,4.1-0.7,5.8
		c0.3,1.5,1.2,5.5,9.7,5.5c5.9,0,15.1-1.1,18.1-2.1l3.5,10.2C350.9,320.2,340.4,321.4,333.8,321.4"/>
	<rect x="258.3" y="238.7" class="st0" width="10.8" height="81.3"/>
	<path class="st0" d="M283.1,321.4c-5.2,0-13-0.9-20.1-2.6l2.5-10.5c16.9,4.1,24.6,1.8,26.8,0.1c2.2-1.7,2.3-4.6,2.3-7.9l0-18.4
		h10.8v18.4c0,3.7,0,11.3-6.4,16.4C295.3,319.9,290,321.4,283.1,321.4"/>
	<path class="st0" d="M305.5,297.5h-10.8l0-18.4c0-3.1-0.1-5.6-2-7.1c-1.7-1.3-7.5-3.9-25.4,0.4l-2.5-10.5
		c16.8-4.1,28.1-3.5,34.7,1.6c6.2,4.9,6.1,12.1,6.1,15.6V297.5z"/>
</g>
</svg>
