<?xml version="1.0" encoding="utf-8"?>
<!-- Generator: Adobe Illustrator 23.0.4, SVG Export Plug-In . SVG Version: 6.00 Build 0)  -->
<svg version="1.1" id="Layer_1" xmlns="http://www.w3.org/2000/svg" xmlns:xlink="http://www.w3.org/1999/xlink" x="0px" y="0px"
	 viewBox="0 0 684 166.9" style="enable-background:new 0 0 684 166.9;" xml:space="preserve">
<style type="text/css">
	.st0{fill:#565656;}
	.st1{fill:#3BCCE6;}
</style>
<g>
	<g>
		<path class="st0" d="M107.4,147.9c-10,5.3-22.4,7.9-37.2,7.9c-19.2,0-34.5-6.2-46-18.5C12.6,124.9,6.9,108.8,6.9,88.7
			c0-21.6,6.5-39,19.5-52.3c13-13.3,29.4-19.9,49.3-19.9c12.8,0,23.4,1.8,31.8,5.5v16.8c-9.6-5.4-20.3-8.1-32-8.1
			c-15.5,0-28,5.2-37.6,15.5c-9.6,10.3-14.4,24.2-14.4,41.4c0,16.4,4.5,29.5,13.5,39.2c9,9.7,20.8,14.6,35.4,14.6
			c13.5,0,25.2-3,35.1-9V147.9z"/>
		<path class="st1" d="M228.6,153.5h-22l-52.1-61.6c-1.9-2.3-3.1-3.9-3.6-4.7h-0.4v66.3h-15.8V18.8h15.8v63.3h0.4
			c0.9-1.4,2.1-2.9,3.6-4.6L205,18.8h19.6l-57.8,64.7L228.6,153.5z"/>
		<path class="st0" d="M282.1,155.8c-14.2,0-25.6-4.5-34.1-13.5c-8.5-9-12.7-20.9-12.7-35.8c0-16.2,4.4-28.8,13.3-37.9
			c8.8-9.1,20.8-13.6,35.8-13.6c14.3,0,25.5,4.4,33.6,13.3c8,8.8,12.1,21.1,12.1,36.7c0,15.4-4.3,27.6-13,36.9
			C308.3,151.2,296.7,155.8,282.1,155.8z M283.2,68c-9.9,0-17.7,3.4-23.5,10.1c-5.8,6.7-8.6,16-8.6,27.9c0,11.4,2.9,20.4,8.7,27
			c5.8,6.6,13.6,9.9,23.4,9.9c10,0,17.6-3.2,23-9.7c5.4-6.5,8-15.6,8-27.5c0-12-2.7-21.3-8-27.8C300.9,71.3,293.2,68,283.2,68z"/>
		<path class="st1" d="M370.1,153.5h-15.4V11.1h15.4V153.5z"/>
		<path class="st0" d="M441.5,155.8c-14.2,0-25.6-4.5-34.1-13.5c-8.5-9-12.7-20.9-12.7-35.8c0-16.2,4.4-28.8,13.3-37.9
			c8.8-9.1,20.8-13.6,35.8-13.6c14.3,0,25.5,4.4,33.6,13.3c8,8.8,12.1,21.1,12.1,36.7c0,15.4-4.3,27.6-13,36.9
			C467.7,151.2,456.1,155.8,441.5,155.8z M442.6,68c-9.9,0-17.7,3.4-23.5,10.1c-5.8,6.7-8.6,16-8.6,27.9c0,11.4,2.9,20.4,8.7,27
			c5.8,6.6,13.6,9.9,23.4,9.9c10,0,17.6-3.2,23-9.7c5.4-6.5,8-15.6,8-27.5c0-12-2.7-21.3-8-27.8C460.2,71.3,452.6,68,442.6,68z"/>
		<path class="st1" d="M593.9,153.5h-15.4V98.7c0-20.4-7.5-30.6-22.4-30.6c-7.7,0-14.1,2.9-19.1,8.7c-5,5.8-7.6,13.1-7.6,21.9v54.9
			H514V57.3h15.4v16h0.4c7.3-12.2,17.8-18.2,31.6-18.2c10.5,0,18.6,3.4,24.2,10.2c5.6,6.8,8.4,16.6,8.4,29.5V153.5z"/>
	</g>
	<g>
		<path class="st0" d="M624,16.6h-13V57h-5.3V16.6h-13v-4.8H624V16.6z"/>
		<path class="st0" d="M677.1,57h-5.3V26.7c0-2.4,0.1-5.3,0.4-8.8h-0.1c-0.5,2-1,3.5-1.4,4.4L655.4,57h-2.6l-15.4-34.4
			c-0.4-1-0.9-2.5-1.4-4.6H636c0.2,1.8,0.3,4.8,0.3,8.8V57h-5.1V11.9h7L652,43.3c1.1,2.4,1.8,4.2,2.1,5.4h0.2
			c0.9-2.5,1.6-4.3,2.2-5.5l14.1-31.3h6.6V57z"/>
	</g>
</g>
</svg>
