<svg id="Layer_35" enable-background="new 0 0 64 64" height="512" viewBox="0 0 64 64" width="512" xmlns="http://www.w3.org/2000/svg"><path d="m49.77 14.09c.88-.13 1.81-.12 2.77.05 3.15.59 5.69 3.11 6.3 6.26 1 5.12-2.9 9.6-7.84 9.6h-15-8-15c-4.94 0-8.84-4.48-7.84-9.6.6-3.12 3.12-5.64 6.24-6.24.9-.18 1.79-.2 2.63-.09.48-6.75 6.1-12.07 12.97-12.07 4.95 0 9.25 2.77 11.45 6.84 1.07-.53 2.27-.84 3.55-.84 3.76 0 6.91 2.59 7.77 6.09z" fill="#e6e9ed"/><path d="m26 54v4c0 2.21-1.79 4-4 4h-16c-2.21 0-4-1.79-4-4v-4z" fill="#969faa"/><path d="m26 48v6h-24v-16c0-2.21 1.79-4 4-4h16c2.21 0 4 1.79 4 4z" fill="#ffeaa7"/><path d="m22 47v2c0 .55-.45 1-1 1h-14c-.55 0-1-.45-1-1v-2c0-.55.45-1 1-1h14c.55 0 1 .45 1 1z" fill="#69d6f4"/><path d="m22 39v2c0 .55-.45 1-1 1h-14c-.55 0-1-.45-1-1v-2c0-.55.45-1 1-1h14c.55 0 1 .45 1 1z" fill="#69d6f4"/><circle cx="50" cy="50" fill="#b4dd7f" r="12"/><path d="m58.79 58.17c-2.19 2.36-5.32 3.83-8.79 3.83s-6.6-1.47-8.79-3.83c.83-3.54 4-6.17 7.79-6.17h1 1c3.79 0 6.96 2.63 7.79 6.17z" fill="#fcd770"/><circle cx="50" cy="47" fill="#f0d0b4" r="5"/><path d="m50 37c-6.83 0-12.435 5.299-12.949 12h-1.051c-.552 0-1-.449-1-1v-16c0-.551.448-1 1-1h15c2.697 0 5.229-1.195 6.947-3.278 1.717-2.083 2.401-4.823 1.878-7.517-.689-3.551-3.544-6.381-7.104-7.044-.747-.14-1.498-.185-2.24-.143-1.234-3.499-4.564-6.018-8.481-6.018-1.079 0-2.13.191-3.135.569-2.553-4.074-7.018-6.569-11.865-6.569-6.979 0-12.87 5.201-13.846 12.008-.646-.012-1.298.04-1.949.167-3.521.684-6.347 3.509-7.03 7.029-.523 2.695.161 5.435 1.878 7.518 1.718 2.083 4.25 3.278 6.947 3.278h15c.552 0 1 .449 1 1v14c0 .551-.448 1-1 1h-1v-9c0-2.757-2.243-5-5-5h-16c-2.757 0-5 2.243-5 5v20c0 2.757 2.243 5 5 5h16c2.757 0 5-2.243 5-5v-9h1c1.654 0 3-1.346 3-3v-14c0-1.654-1.346-3-3-3h-15c-2.099 0-4.068-.93-5.404-2.55s-1.867-3.758-1.458-5.864c.53-2.728 2.72-4.917 5.448-5.448 2.107-.408 4.243.122 5.863 1.458 1.621 1.336 2.551 3.306 2.551 5.404h2c0-2.698-1.195-5.23-3.278-6.947-1.057-.871-2.283-1.474-3.587-1.79.848-5.82 5.893-10.263 11.865-10.263 4.419 0 8.468 2.419 10.568 6.314l.459.851.866-.43c.982-.488 2.027-.735 3.107-.735 3.859 0 7 3.14 7 7s-3.141 7-7 7v2c4.963 0 9-4.038 9-9 0-.334-.021-.662-.057-.987.469-.004.94.025 1.412.113 2.759.514 4.973 2.708 5.507 5.459.409 2.106-.122 4.244-1.458 5.864-1.336 1.621-3.305 2.551-5.404 2.551h-15c-1.654 0-3 1.346-3 3v16c0 1.654 1.346 3 3 3h1.051c.514 6.701 6.119 12 12.949 12 7.168 0 13-5.832 13-13s-5.832-13-13-13zm-44-2h16c1.654 0 3 1.346 3 3v15h-22v-15c0-1.654 1.346-3 3-3zm16 26h-16c-1.654 0-3-1.346-3-3v-3h22v3c0 1.654-1.346 3-3 3zm28-22c6.065 0 11 4.935 11 11 0 2.27-.692 4.381-1.874 6.135-1.035-2.194-2.9-3.858-5.165-4.639 1.247-1.101 2.039-2.706 2.039-4.496 0-3.309-2.691-6-6-6s-6 2.691-6 6c0 1.79.792 3.395 2.04 4.496-2.265.782-4.129 2.446-5.165 4.639-1.183-1.754-1.875-3.865-1.875-6.135 0-6.065 4.935-11 11-11zm-4 8c0-2.206 1.794-4 4-4s4 1.794 4 4-1.794 4-4 4-4-1.794-4-4zm-3.65 10.888c.915-2.897 3.564-4.888 6.65-4.888h2c3.088 0 5.737 1.991 6.65 4.888-1.982 1.922-4.678 3.112-7.65 3.112s-5.668-1.19-7.65-3.112z"/><path d="m7 43h14c1.103 0 2-.897 2-2v-2c0-1.103-.897-2-2-2h-14c-1.103 0-2 .897-2 2v2c0 1.103.897 2 2 2zm0-4h14l.001 2h-14.001z"/><path d="m7 51h14c1.103 0 2-.897 2-2v-2c0-1.103-.897-2-2-2h-14c-1.103 0-2 .897-2 2v2c0 1.103.897 2 2 2zm0-4h14l.001 2h-14.001z"/><path d="m21 57h2v2h-2z"/><path d="m17 57h2v2h-2z"/><path d="m13 57h2v2h-2z"/><path d="m16 22h2c0-2.757-2.243-5-5-5v2c1.654 0 3 1.346 3 3z"/><path d="m35.96 10.554c-1.703-3.426-5.136-5.554-8.96-5.554v2c3.06 0 5.807 1.703 7.169 4.445z"/><path d="m45 16c0 1.654-1.346 3-3 3v2c2.757 0 5-2.243 5-5z"/><path d="m13 25h2v2h-2z"/><path d="m17 25h2v2h-2z"/><path d="m21 25h2v2h-2z"/></svg>