<svg height="480pt" viewBox="0 0 480 480" width="480pt" xmlns="http://www.w3.org/2000/svg"><path d="m350.625 208h-14.625v-48c0-8.835938-7.164062-16-16-16h-48v14.625c.28125 16.820312-12.164062 31.148438-28.855469 33.226562-8.992187.882813-17.9375-2.070312-24.632812-8.136718-6.691407-6.066406-10.511719-14.679688-10.511719-23.714844v-16h-48c-8.835938 0-16 7.164062-16 16v48h-14.625c-16.820312-.28125-31.144531 12.164062-33.222656 28.855469-.886719 8.992187 2.066406 17.9375 8.132812 24.632812 6.066406 6.691407 14.679688 10.511719 23.714844 10.511719h16v48c0 8.835938 7.164062 16 16 16h48v-14.625c-.28125-16.820312 12.164062-31.148438 28.855469-33.226562 8.992187-.882813 17.9375 2.070312 24.632812 8.136718 6.691407 6.066406 10.511719 14.679688 10.511719 23.714844v16h48c8.835938 0 16-7.164062 16-16v-48h16c9.035156 0 17.648438-3.820312 23.714844-10.511719 6.066406-6.695312 9.019531-15.640625 8.132812-24.632812-2.078125-16.691407-16.402344-29.136719-33.222656-28.855469zm0 0" fill="#ffd04a"/><path d="m0 144h56c8.835938 0 16 7.164062 16 16v48h-14.625c-16.820312-.28125-31.144531 12.164062-33.222656 28.855469-.886719 8.992187 2.066406 17.9375 8.132812 24.632812 6.066406 6.691407 14.679688 10.511719 23.714844 10.511719h16v48c0 8.835938-7.164062 16-16 16h-56zm0 0" fill="#cc995e"/><path d="m144 0v56c0 8.835938 7.164062 16 16 16h48v14.625c-.28125 16.820312 12.164062 31.148438 28.855469 33.226562 8.992187.882813 17.9375-2.070312 24.632812-8.136718 6.691407-6.066406 10.511719-14.679688 10.511719-23.714844v-16h48c8.835938 0 16-7.164062 16-16v-56zm0 0" fill="#75c1ff"/><path d="m480 336h-56c-8.835938 0-16-7.164062-16-16v-48h14.625c16.820312.28125 31.144531-12.164062 33.222656-28.855469.886719-8.992187-2.066406-17.9375-8.132812-24.632812-6.066406-6.691407-14.679688-10.511719-23.714844-10.511719h-16v-48c0-8.835938 7.164062-16 16-16h56zm0 0" fill="#73c97c"/><path d="m336 480v-56c0-8.835938-7.164062-16-16-16h-48v-14.625c.28125-16.820312-12.164062-31.148438-28.855469-33.226562-8.992187-.882813-17.9375 2.070312-24.632812 8.136718-6.691407 6.066406-10.511719 14.679688-10.511719 23.714844v16h-48c-8.835938 0-16 7.164062-16 16v56zm0 0" fill="#ff675b"/></svg>