<svg height="472pt" viewBox="0 0 472 472.0006" width="472pt" xmlns="http://www.w3.org/2000/svg"><path d="m328 304v-40l-32-32v-32l16-16v-48l-40-40h-40l-32-32v-62.71875c-37.269531 3.976562-72.929688 17.292969-103.679688 38.71875h31.679688l24 24v32l-32 32v32l-32 32h-24v24l40 40v24l-24 24v24l-33.121094 33.121094c37.265625 48.179687 92.558594 79.089844 153.121094 85.597656v-62.71875l-16-16v-32h-32l-16-16v-24l32-32h64l32 32-24 48h24l-8 8v32l-24 24v2.71875c9.488281 13.121094 21.34375 24.355469 34.960938 33.121094 30.433593-5.886719 59.296874-18.09375 84.71875-35.839844 5.65625-3.835938 11.105468-7.976562 16.320312-12.398438v-51.601562zm0 0" fill="#3d9ae2"/><g fill="#00b39d"><path d="m232 410.71875v-2.71875l24-24v-12.320312c-9.914062-5.683594-16.023438-16.25-16-27.679688l24-48-32-32h-64l-32 32v24l16 16h32v32l16 16v62.71875c7.96875.875 15.980469 1.300781 24 1.28125 2.71875 0 5.359375-.078125 8-.238281 11.742188-.328125 23.4375-1.636719 34.960938-3.921875-13.617188-8.765625-25.472657-20-34.960938-33.121094zm0 0"/><path d="m272 168v24l-16 16h-16v-32l-16-16v-16h48zm0 0"/><path d="m152 64v32l-32 32v32l-32 32h-24v24l40 40v24l-24 24v24l-33.121094 33.121094c-37.613281-48.574219-53.617187-110.464844-44.269531-171.183594 9.347656-60.714844 43.230469-114.925781 93.710937-149.9375h31.679688zm0 0"/><path d="m224 0c-8.019531-.0195312-16.03125.410156-24 1.28125v62.71875l32 32h40l40 40v48l-16 16v32l32 32v40l40 40v51.601562c7.800781-6.589843 15.175781-13.671874 22.078125-21.199218 8.527344-9.445313 16.210937-19.617188 22.960937-30.402344 3.722657-5.664062 7.117188-11.542969 10.160157-17.597656 9.703125-18.71875 16.65625-38.738282 20.640625-59.441406 12.835937-65.691407-4.378906-133.683594-46.925782-185.355469-42.550781-51.671875-105.980468-81.605469-172.914062-81.605469zm0 0"/></g><path d="m464 336c0 70.691406-57.308594 128-128 128-70.695312 0-128-57.308594-128-128s57.304688-128 128-128c70.691406 0 128 57.308594 128 128zm0 0" fill="#ffd422"/><path d="m336 472c-75.113281 0-136-60.890625-136-136s60.886719-136 136-136c75.109375 0 136 60.890625 136 136-.085938 75.078125-60.925781 135.917969-136 136zm0-256c-66.273438 0-120 53.726562-120 120s53.726562 120 120 120 120-53.726562 120-120c-.074219-66.242188-53.757812-119.925781-120-120zm0 0" fill="#ddb200"/><path d="m352 280c0 8.835938-7.164062 16-16 16s-16-7.164062-16-16 7.164062-16 16-16 16 7.164062 16 16zm0 0" fill="#ff9811"/><path d="m328 296h16v112h-16zm0 0" fill="#ff9811"/><path d="m328 248h16v16h-16zm0 0" fill="#ff9811"/><path d="m407.199219 276.425781c-1.503907-2.523437-4.222657-4.066406-7.160157-4.066406s-5.65625 1.542969-7.160156 4.066406l-32 64c-.566406 1.105469-.867187 2.332031-.878906 3.574219h16.941406l23.058594-46.113281 23.054688 46.113281h16.945312c.011719-1.238281-.261719-2.460938-.800781-3.574219zm0 0" fill="#ee8700"/><path d="m288 400h96v16h-96zm0 0" fill="#cc7400"/><path d="m256 400h16v16h-16zm0 0" fill="#cc7400"/><path d="m400 400h16v16h-16zm0 0" fill="#cc7400"/><path d="m360 344c0 22.09375 17.90625 40 40 40 22.089844 0 40-17.90625 40-40zm0 0" fill="#ff9811"/><path d="m279.199219 276.425781c-1.503907-2.523437-4.222657-4.066406-7.160157-4.066406s-5.65625 1.542969-7.160156 4.066406l-32 64c-.566406 1.105469-.867187 2.332031-.878906 3.574219h16.941406l23.058594-46.113281 23.054688 46.113281h16.945312c.011719-1.238281-.261719-2.460938-.800781-3.574219zm0 0" fill="#ee8700"/><path d="m232 344c0 22.09375 17.90625 40 40 40 22.089844 0 40-17.90625 40-40zm0 0" fill="#ff9811"/><path d="m352 272h72v16h-72zm0 0" fill="#cc7400"/><path d="m248 272h72v16h-72zm0 0" fill="#cc7400"/><path d="m336 304c-13.253906 0-24-10.746094-24-24s10.746094-24 24-24 24 10.746094 24 24-10.746094 24-24 24zm0-32c-4.417969 0-8 3.582031-8 8s3.582031 8 8 8 8-3.582031 8-8-3.582031-8-8-8zm0 0" fill="#ee8700"/></svg>