<svg id="Layer_35" enable-background="new 0 0 64 64" height="512" viewBox="0 0 64 64" width="512" xmlns="http://www.w3.org/2000/svg"><path d="m28 4v10c0 1.1-.9 2-2 2h-1-21c-1.1 0-2-.9-2-2v-10c0-1.1.9-2 2-2h22c1.1 0 2 .9 2 2z" fill="#ffeaa7"/><path d="m20.02 45.31c-.13.04-.26.09-.39.13l-.63 2.56h-6l-.63-2.56c-.66-.21-1.28-.48-1.88-.79l-2.27 1.37-4.24-4.24 1.37-2.27c-.31-.6-.58-1.22-.79-1.88l-2.56-.63v-6l2.56-.63c.21-.66.48-1.28.79-1.88l-1.37-2.27 4.24-4.24 2.27 1.37c.6-.31 1.22-.58 1.88-.79l.63-2.56h4.52c-.96 1.43-1.52 3.15-1.52 5 0 .34.02.67.06 1-.02 0-.04 0-.06 0-4.42 0-8 3.58-8 8s3.58 8 8 8c1.11 0 2.17-.23 3.14-.64.16 1.36.46 2.69.88 3.95z" fill="#ffc729"/><path d="m45 12v2c0 .55-.45 1-1 1h-1-8-1c-.55 0-1-.45-1-1v-2c0-.55.45-1 1-1h10c.55 0 1 .45 1 1z" fill="#ccd1d9"/><g fill="#ff826e"><path d="m43 15v4.4c-1.29-.26-2.63-.4-4-.4s-2.71.14-4 .4v-4.4z"/><path d="m25 16c3.16 0 5.92 1.63 7.53 4.08-5.84 1.99-10.46 6.61-12.45 12.45-2.19-1.43-3.72-3.79-4.02-6.53-.04-.33-.06-.66-.06-1 0-1.85.56-3.57 1.52-5 1.61-2.41 4.36-4 7.48-4z"/><path d="m62 25c0 3.16-1.63 5.92-4.08 7.53-1.99-5.84-6.61-10.46-12.45-12.45 1.61-2.45 4.37-4.08 7.53-4.08 4.97 0 9 4.03 9 9z"/></g><path d="m32.19 57.81-3.57 3.57c-.4.4-.94.62-1.5.62-.58 0-1.12-.24-1.5-.62s-.62-.92-.62-1.5c0-.56.22-1.1.62-1.5l2.57-2.57c1.24.82 2.58 1.48 4 2z" fill="#969faa"/><path d="m52.38 58.38c.4.4.62.94.62 1.5 0 .58-.24 1.12-.62 1.5s-.92.62-1.5.62c-.56 0-1.1-.22-1.5-.62l-3.57-3.57c1.42-.52 2.76-1.18 4-2z" fill="#969faa"/><path d="m57.92 32.53c.7 2.03 1.08 4.21 1.08 6.47 0 7.06-3.66 13.27-9.19 16.81-1.24.82-2.58 1.48-4 2-2.12.77-4.42 1.19-6.81 1.19s-4.69-.42-6.81-1.19c-1.42-.52-2.76-1.18-4-2-3.81-2.43-6.72-6.13-8.17-10.5-.42-1.26-.72-2.59-.88-3.95-.09-.77-.14-1.56-.14-2.36 0-2.26.38-4.44 1.08-6.47 1.99-5.84 6.61-10.46 12.45-12.45.8-.28 1.63-.51 2.47-.68 1.29-.26 2.63-.4 4-.4s2.71.14 4 .4c.84.17 1.67.4 2.47.68 5.84 1.99 10.46 6.61 12.45 12.45z" fill="#e6e9ed"/><circle cx="39" cy="39" fill="#69d6f4" r="16"/><path d="m39 34c1.103 0 2 .897 2 2h2c0-1.859-1.28-3.411-3-3.858v-2.142h-2v2h-3v4c0 2.206 1.794 4 4 4 1.103 0 2 .897 2 2v2h-2c-1.103 0-2-.897-2-2h-2c0 1.859 1.28 3.411 3 3.858v2.142h2v-2h3v-4c0-2.206-1.794-4-4-4-1.103 0-2-.897-2-2v-2z"/><path d="m39 22c-9.374 0-17 7.626-17 17s7.626 17 17 17 17-7.626 17-17-7.626-17-17-17zm14.949 18c-.225 3.383-1.569 6.457-3.674 8.861l-1.376-1.376-1.414 1.414 1.376 1.376c-2.404 2.105-5.478 3.45-8.861 3.674v-1.949h-2v1.949c-3.383-.225-6.457-1.569-8.861-3.674l1.376-1.376-1.414-1.414-1.376 1.376c-2.105-2.404-3.45-5.478-3.674-8.861h1.949v-2h-1.949c.225-3.383 1.569-6.457 3.674-8.861l1.376 1.376 1.414-1.414-1.376-1.376c2.404-2.105 5.478-3.45 8.861-3.674v1.949h2v-1.949c3.383.225 6.457 1.569 8.861 3.674l-1.376 1.376 1.414 1.414 1.376-1.376c2.105 2.404 3.45 5.478 3.674 8.861h-1.949v2z"/><path d="m63 25c0-5.514-4.486-10-10-10-3.122 0-6.012 1.456-7.903 3.909-.36-.109-.73-.193-1.097-.283v-2.626c1.103 0 2-.897 2-2v-2c0-1.103-.897-2-2-2h-10c-1.103 0-2 .897-2 2v2c0 1.103.897 2 2 2v2.627c-.367.09-.738.173-1.097.283-1.152-1.496-2.671-2.622-4.397-3.268.31-.473.494-1.036.494-1.642v-10c0-1.654-1.346-3-3-3h-22c-1.654 0-3 1.346-3 3v10c0 1.654 1.346 3 3 3h15.026c-.76.569-1.435 1.242-2.006 2h-4.803l-.687 2.794c-.332.123-.664.262-.995.416l-2.466-1.492-5.352 5.352 1.493 2.466c-.154.33-.293.662-.417.994l-2.793.686v7.568l2.794.687c.123.332.262.664.416.994l-1.492 2.467 5.351 5.351 2.466-1.492c.33.154.662.293.995.416l.686 2.793h7.568l.254-1.035c1.51 3.18 3.789 5.917 6.605 7.977l-1.73 1.729c-.58.582-.913 1.386-.913 2.208 0 1.721 1.4 3.121 3.121 3.121.834 0 1.618-.324 2.207-.914l3.14-3.14c2.058.676 4.25 1.054 6.532 1.054 2.281 0 4.474-.378 6.532-1.054l3.14 3.14c.589.59 1.373.914 2.207.914 1.721 0 3.121-1.4 3.121-3.121 0-.822-.333-1.626-.914-2.207l-1.73-1.729c5.228-3.824 8.644-9.985 8.644-16.943 0-2.121-.322-4.167-.91-6.098 2.454-1.89 3.91-4.781 3.91-7.902zm-29-13h10v2h-10zm2 4h6v2.24c-.983-.142-1.979-.24-3-.24s-2.017.098-3 .24zm-32-1c-.551 0-1-.448-1-1v-10c0-.552.449-1 1-1h22c.551 0 1 .448 1 1v10c0 .552-.449 1-1 1zm21 2c2.276 0 4.4.969 5.905 2.627-5.079 2.13-9.148 6.199-11.278 11.278-1.658-1.506-2.627-3.629-2.627-5.905 0-4.411 3.589-8 8-8zm-6.09 15.902c-.588 1.931-.91 3.977-.91 6.098 0 .569.041 1.127.085 1.685-.671.209-1.37.315-2.085.315-3.86 0-7-3.141-7-7 0-3.583 2.708-6.543 6.229-6.948.485 2.315 1.777 4.384 3.681 5.85zm-.117 11.75-.577 2.348h-4.432l-.577-2.345-.534-.17c-.573-.182-1.154-.425-1.727-.723l-.499-.259-2.073 1.255-3.134-3.133 1.255-2.072-.258-.498c-.297-.572-.54-1.153-.722-1.728l-.17-.534-2.345-.577v-4.432l2.345-.577.17-.534c.182-.572.425-1.153.722-1.728l.258-.498-1.255-2.073 3.134-3.133 2.073 1.255.499-.259c.574-.298 1.154-.541 1.725-.722l.536-.169.577-2.346h2.057c-.538 1.226-.841 2.578-.841 4 0 .02.004.039.004.058-4.495.498-8.004 4.316-8.004 8.942 0 4.963 4.038 9 9 9 .801 0 1.584-.114 2.344-.319.119.669.27 1.325.451 1.971zm9.121 16.02c-.212.212-.493.328-.793.328-.618 0-1.121-.503-1.121-1.121 0-.295.12-.584.328-.793l2.02-2.02c.673.398 1.366.765 2.084 1.087zm23.758-1.586c.208.209.328.498.328.793 0 .618-.503 1.121-1.121 1.121-.3 0-.581-.116-.793-.328l-2.519-2.518c.719-.323 1.411-.689 2.084-1.087zm-12.672-1.086c-10.477 0-19-8.523-19-19s8.523-19 19-19 19 8.523 19 19-8.523 19-19 19zm8.095-38.373c1.505-1.658 3.629-2.627 5.905-2.627 4.411 0 8 3.589 8 8 0 2.276-.969 4.4-2.627 5.905-2.13-5.079-6.199-9.148-11.278-11.278z"/><path d="m23 5h-2v6h-2v-4h-2v4h-2v-2h-2v2h-2v-2h-2v2h-2v-6h-2v8h20v-2h-2z"/></svg>