<svg id="Layer_35" enable-background="new 0 0 64 64" height="512" viewBox="0 0 64 64" width="512" xmlns="http://www.w3.org/2000/svg"><path d="m54 14c-.42 0-.83.03-1.23.09-.86-3.5-4.01-6.09-7.77-6.09-1.28 0-2.48.31-3.55.84-2.2-4.07-6.5-6.84-11.45-6.84-6.11 0-11.23 4.21-12.63 9.89 1.01 1.07 1.63 2.51 1.63 4.11 0 3.31-2.69 6-6 6 .4 0 .8.02 1.19.07 2.56.27 4.86 1.42 6.59 3.15 1.31 1.31 2.29 2.95 2.8 4.78h30.42c4.42 0 8-3.58 8-8s-3.58-8-8-8z" fill="#e6e9ed"/><path d="m62 42v18c0 1.1-.9 2-2 2h-24c-1.1 0-2-.9-2-2v-18h8c1.1 0 2-.9 2-2h16c1.1 0 2 .9 2 2z" fill="#ff826e"/><g fill="#fcd770"><path d="m54 44h4v14h-4z"/><path d="m46 48h4v10h-4z"/><path d="m38 52h4v6h-4z"/></g><path d="m19 44v15c0 .83-.34 1.58-.88 2.12s-1.29.88-2.12.88c-1.66 0-3-1.34-3-3v-20h6z" fill="#838f9b"/><path d="m13 39v20c0 1.66-1.34 3-3 3-.83 0-1.58-.34-2.12-.88s-.88-1.29-.88-2.12v-15-5z" fill="#838f9b"/><path d="m19 39h-6-6v5h-2c-1.66 0-3-1.34-3-3v-8c0-5.68 4.29-10.35 9.81-10.93l-.81 8.93 2 2 2-2-.81-8.93c2.56.27 4.86 1.42 6.59 3.15 1.31 1.31 2.29 2.95 2.8 4.78.28.95.42 1.96.42 3v8c0 1.66-1.34 3-3 3h-2z" fill="#b4dd7f"/><path d="m14.19 22.07.81 8.93-2 2-2-2 .81-8.93c.39-.05.79-.07 1.19-.07s.8.02 1.19.07z" fill="#e6e9ed"/><path d="m17.37 11.89c1.01 1.07 1.63 2.51 1.63 4.11 0 3.31-2.69 6-6 6s-6-2.69-6-6 2.69-6 6-6c1.72 0 3.27.73 4.37 1.89z" fill="#f0d0b4"/><path d="m42 42h-8-4c-1.1 0-2-.9-2-2v-10c0-1.1.9-2 2-2h1 10 1c1.1 0 2 .9 2 2v10c0 1.1-.9 2-2 2z" fill="#fcd770"/><circle cx="36" cy="34" fill="#ff826e" r="2"/><path d="m36 31c-1.654 0-3 1.346-3 3 0 1.302.839 2.402 2 2.816v2.184h2v-2.184c1.161-.414 2-1.514 2-2.816 0-1.654-1.346-3-3-3zm0 4c-.552 0-1-.449-1-1s.448-1 1-1 1 .449 1 1-.448 1-1 1z"/><path d="m60 39h-15v-8h9c4.963 0 9-4.038 9-9s-4.037-9-9-9c-.17 0-.34.029-.511.039-1.228-3.51-4.565-6.039-8.489-6.039-1.079 0-2.13.191-3.135.569-2.553-4.074-7.018-6.569-11.865-6.569-5.941 0-11.134 3.703-13.135 9.169-1.109-.737-2.437-1.169-3.865-1.169-3.859 0-7 3.14-7 7 0 2.358 1.176 4.443 2.968 5.712-4.637 1.662-7.968 6.087-7.968 11.288v8c0 2.206 1.794 4 4 4h1v14c0 2.206 1.794 4 4 4 1.201 0 2.266-.542 3-1.382.734.84 1.799 1.382 3 1.382 2.206 0 4-1.794 4-4v-14h1c2.206 0 4-1.794 4-4v-8c0-.683-.071-1.348-.181-2h2.181v9c0 1.654 1.346 3 3 3h3v17c0 1.654 1.346 3 3 3h24c1.654 0 3-1.346 3-3v-18c0-1.654-1.346-3-3-3zm-52-23c0-2.757 2.243-5 5-5s5 2.243 5 5-2.243 5-5 5-5-2.243-5-5zm5.962 14.624-.962.962-.962-.962.693-7.61c.09-.003.178-.014.269-.014s.179.011.269.014zm-3.962 30.376c-1.103 0-2-.897-2-2v-19h4v19c0 1.103-.897 2-2 2zm6 0c-1.103 0-2-.897-2-2v-19h4v19c0 1.103-.897 2-2 2zm7-20c0 1.103-.897 2-2 2h-1v-14h-2v9h-10v-9h-2v14h-1c-1.103 0-2-.897-2-2v-8c0-4.721 3.292-8.678 7.698-9.722l-.736 8.098 3.038 3.038 3.038-3.038-.736-8.098c4.406 1.044 7.698 5.001 7.698 9.722zm-5.968-19.288c1.792-1.269 2.968-3.354 2.968-5.712 0-1.639-.571-3.146-1.518-4.34 1.478-5.12 6.139-8.66 11.518-8.66 4.419 0 8.468 2.419 10.568 6.314l.459.851.866-.43c.982-.488 2.027-.735 3.107-.735 3.859 0 7 3.14 7 7s-3.141 7-7 7v2c4.963 0 9-4.038 9-9 0-.337-.022-.668-.058-.996.019 0 .039-.004.058-.004 3.859 0 7 3.14 7 7s-3.141 7-7 7h-9.184c-.414-1.161-1.514-2-2.816-2v-4c0-3.309-2.691-6-6-6s-6 2.691-6 6v4c-1.302 0-2.402.839-2.816 2h-2.884c-1.204-3.389-3.883-6.075-7.268-7.288zm22.968 5.288h-8v-4c0-2.206 1.794-4 4-4s4 1.794 4 4zm-11 13v-10c0-.551.448-1 1-1h12c.552 0 1 .449 1 1v10c0 .551-.448 1-1 1h-12c-.552 0-1-.449-1-1zm32 20c0 .551-.448 1-1 1h-24c-.552 0-1-.449-1-1v-17h7c1.302 0 2.402-.839 2.816-2h15.184c.552 0 1 .449 1 1z"/><path d="m53 57h-2v-10h-6v10h-2v-6h-6v8h22v-16h-6zm-12 0h-2v-4h2zm6-8h2v8h-2zm8-4h2v12h-2z"/><path d="m30 7v-2c-3.824 0-7.257 2.128-8.96 5.554l1.791.891c1.362-2.742 4.109-4.445 7.169-4.445z"/><path d="m48 16h2c0-2.757-2.243-5-5-5v2c1.654 0 3 1.346 3 3z"/></svg>