<svg height="479pt" viewBox="0 -16 479.47076 479" width="479pt" xmlns="http://www.w3.org/2000/svg"><path d="m404.207031 121.355469c-13.753906-61.785157-66.242187-107.347657-129.347656-112.277344-63.109375-4.925781-122.035156 31.933594-145.210937 90.839844-44.761719-12.65625-92.152344 8.597656-112.472657 50.4375-20.320312 41.839843-7.722656 92.226562 29.898438 119.582031 37.617187 27.355469 89.433593 23.808594 122.972656-8.421875 50.863281 43.765625 125.265625 46.425781 179.121094 6.402344 27.480469 17.503906 62.832031 16.59375 89.375-2.304688 26.542969-18.894531 38.972656-51.996093 31.429687-83.695312-7.542968-31.695313-33.554687-55.648438-65.765625-60.5625zm0 0" fill="#4891d3"/><path d="m391.648438 120.234375c-27.214844.003906-52.558594 13.835937-67.28125 36.722656 31.660156-20.363281 73.226562-15.898437 99.84375 10.714844 26.617187 26.617187 31.078124 68.1875 10.714843 99.84375 29.851563-19.203125 43.480469-55.78125 33.472657-89.835937-10.007813-34.054688-41.257813-57.441407-76.75-57.445313zm0 0" fill="#57b7eb"/><path d="m363.085938 125.597656c9.105468-3.542968 18.792968-5.359375 28.5625-5.363281 4.210937.007813 8.414062.382813 12.558593 1.121094-12.238281-55.296875-55.757812-98.289063-111.203125-109.847657-55.441406-11.5624995-112.515625 10.449219-145.835937 56.25 35.125-25.46875 79.863281-33.742187 121.773437-22.519531 41.910156 11.222657 76.527344 40.746094 94.226563 80.359375zm0 0" fill="#57b7eb"/><path d="m87.648438 128.234375c30.058593.023437 58.371093 14.121094 76.5 38.097656 18.128906 23.972657 23.984374 55.054688 15.820312 83.984375 23.585938-30.714844 26.40625-72.59375 7.152344-106.195312-19.253906-33.601563-56.808594-52.34375-95.234375-47.527344s-70.195313 32.25-80.558594 69.5625c18.128906-23.859375 46.355469-37.882812 76.320313-37.921875zm0 0" fill="#57b7eb"/><path d="m313.886719 370.957031-74.238281 69.277344-74.242188-69.277344c-29.183594-27.234375-45.757812-65.363281-45.757812-105.28125v-65.441406h.480468c38.636719 5.105469 77.320313-9.0625 103.519532-37.917969l16-18.082031 17.277343 18.800781c26.171875 28.34375 64.472657 42.214844 102.722657 37.199219v65.441406c-.003907 39.917969-16.574219 78.046875-45.761719 105.28125zm0 0" fill="#a1d51c"/><path d="m295.648438 376.234375c-66.273438 0-120-53.722656-120-120v-62.078125c-17.757813 6.414062-36.789063 8.527344-55.519532 6.160156h-.480468v65.441406c0 39.917969 16.574218 78.042969 45.757812 105.277344l74.242188 69.199219 68.558593-64zm0 0" fill="#7ab92d"/><path d="m191.648438 272.234375h96v80h-96zm0 0" fill="#fcbc04"/><path d="m207.648438 272.234375h80v64h-32c-26.511719 0-48-21.488281-48-48zm0 0" fill="#f9e109"/><path d="m256.925781 163.035156-17.277343-18.800781-16 18.082031c-11.183594 12.199219-24.8125 21.902344-40 28.480469l91.199218 16c30.585938 5.4375 52.851563 32.054687 52.800782 63.121094v86c20.648437-25.550781 31.9375-57.390625 32-90.242188v-65.441406c-38.25 5.015625-76.550782-8.855469-102.722657-37.199219zm0 0" fill="#c4f236"/><path d="m175.648438 352.234375h16v-80l-16 24zm0 0" fill="#7ab92d"/><path d="m183.648438 368.234375h88l16-16h-104zm0 0" fill="#7ab92d"/><g fill="#39519d"><path d="m358.609375 192.234375c-35.746094 4.765625-71.574219-8.191406-96-34.71875l-17.28125-18.800781c-1.515625-1.667969-3.667969-2.617188-5.921875-2.617188s-4.402344.949219-5.917969 2.617188l-16.402343 18.082031c-24.417969 26.84375-60.40625 40.074219-96.398438 35.4375-2.296875-.300781-4.609375.410156-6.34375 1.941406-1.730469 1.535157-2.714844 3.746094-2.695312 6.058594v65.441406c-.074219 42.089844 17.304687 82.324219 48 111.121094l74.238281 69.277344c3.070312 2.847656 7.8125 2.847656 10.882812 0l74.878907-69.277344c30.644531-28.832031 48.015624-69.042969 48-111.121094 0-4.417969-3.582032-8-8-8-4.417969 0-8 3.582031-8 8-.082032 37.683594-15.710938 73.664063-43.199219 99.441407l-68.800781 64-68.800782-64c-27.488281-25.777344-43.121094-61.757813-43.199218-99.441407v-56.640625c38.382812 2.324219 75.75-12.886718 101.597656-41.359375l10.402344-11.601562 11.4375 12.160156c25.714843 27.984375 62.621093 42.957031 100.5625 40.800781v24c0 4.417969 3.582031 8 8 8 4.417968 0 8-3.582031 8-8v-32.800781c-.003907-2.296875-.996094-4.480469-2.722657-6-1.714843-1.546875-4.019531-2.277344-6.316406-2zm0 0"/><path d="m239.648438 216.234375c-22.09375 0-40 17.910156-40 40v8h-8c-4.417969 0-8 3.582031-8 8v80c0 4.421875 3.582031 8 8 8h96c4.417968 0 8-3.578125 8-8v-80c0-4.417969-3.582032-8-8-8h-8v-8c0-22.089844-17.910157-40-40-40zm-24 40c0-13.253906 10.746093-24 24-24 13.253906 0 24 10.746094 24 24v8h-48zm64 88h-80v-64h80zm0 0"/><path d="m239.648438 296.234375c-4.417969 0-8 3.582031-8 8v16c0 4.421875 3.582031 8 8 8 4.417968 0 8-3.578125 8-8v-16c0-4.417969-3.582032-8-8-8zm0 0"/><path d="m410.847656 114.394531c-17.566406-66.988281-77.949218-113.816406-147.199218-114.160156-60.09375-.1914062-114.589844 35.238281-138.800782 90.242187-6.96875-1.496093-14.074218-2.246093-21.199218-2.242187-53.925782.183594-98.765626 41.554687-103.28125 95.289063-4.519532 53.734374 32.785156 102.007812 85.921874 111.191406h1.359376c4.417968.375 8.304687-2.902344 8.679687-7.320313s-2.902344-8.304687-7.320313-8.679687c-32.804687-4.671875-60.203124-27.375-70.890624-58.738282-10.6875-31.363281-2.847657-66.074218 20.277343-89.800781 23.128907-23.730469 57.625-32.457031 89.253907-22.578125 3.980468 1.148438 8.183593-.933594 9.679687-4.800781 20.132813-52.21875 70.355469-86.632813 126.320313-86.5625 63.742187.3125 118.820312 44.609375 132.800781 106.800781.714843 3.207032 3.316406 5.648438 6.558593 6.160156 36.917969 6.089844 63.023438 39.441407 60.0625 76.742188-2.964843 37.300781-34.003906 66.113281-71.421874 66.296875-4.417969 0-8 3.582031-8 8 0 4.421875 3.582031 8 8 8 44.792968-.089844 82.371093-33.8125 87.289062-78.335937 4.917969-44.527344-24.394531-85.640626-68.089844-95.503907zm0 0"/></g></svg>