<?xml version="1.0" encoding="utf-8"?>
<!-- Generator: Adobe Illustrator 23.0.4, SVG Export Plug-In . SVG Version: 6.00 Build 0)  -->
<svg version="1.1"
	 id="svg2" inkscape:version="0.47 r22583" sodipodi:docname="VMW_10Q1_LGO_GUIDE_USLET_EN_R1.pdf" xmlns:cc="http://creativecommons.org/ns#" xmlns:dc="http://purl.org/dc/elements/1.1/" xmlns:inkscape="http://www.inkscape.org/namespaces/inkscape" xmlns:rdf="http://www.w3.org/1999/02/22-rdf-syntax-ns#" xmlns:sodipodi="http://sodipodi.sourceforge.net/DTD/sodipodi-0.dtd" xmlns:svg="http://www.w3.org/2000/svg"
	 xmlns="http://www.w3.org/2000/svg" xmlns:xlink="http://www.w3.org/1999/xlink" x="0px" y="0px" viewBox="0 0 190.2 31"
	 style="enable-background:new 0 0 190.2 31;" xml:space="preserve">
<style type="text/css">
	.st0{fill:none;}
	.st1{fill:#696566;}
</style>
<defs>
	
	
		<inkscape:perspective  id="perspective10" inkscape:persp3d-origin="0.5 : 0.33333333 : 1" inkscape:vp_x="0 : 0.5 : 1" inkscape:vp_y="0 : 1000 : 0" inkscape:vp_z="1 : 0.5 : 1" sodipodi:type="inkscape:persp3d">
		</inkscape:perspective>
</defs>
<sodipodi:namedview  bordercolor="#666666" borderopacity="1" gridtolerance="10" guidetolerance="10" id="namedview4" inkscape:current-layer="g12" inkscape:cx="6.645" inkscape:cy="29.957033" inkscape:pageopacity="0" inkscape:pageshadow="2" inkscape:window-height="514" inkscape:window-maximized="1" inkscape:window-width="1024" inkscape:window-x="-8" inkscape:window-y="-8" inkscape:zoom="0.72880595" objecttolerance="10" pagecolor="#ffffff" showgrid="false">
	</sodipodi:namedview>
<rect x="-618.2" y="-927.4" class="st0" width="1195.3" height="1546.9"/>
<g id="g166">
	<g id="g172" transform="translate(388.349, 250.856)">
		<path id="path174" class="st1" d="M-302.1-227.2l-5.5-15.3c-0.1-0.2-0.2-0.5-0.2-0.7c0-0.7,0.6-1.3,1.4-1.3c0.7,0,1.2,0.5,1.4,1.1
			l4.6,13.2l4.6-13.2c0.2-0.6,0.6-1.1,1.3-1.1h0.1c0.7,0,1.2,0.5,1.4,1.1l4.6,13.2l4.6-13.3c0.2-0.6,0.6-1.1,1.3-1.1
			c0.8,0,1.3,0.6,1.3,1.3c0,0.2-0.1,0.5-0.2,0.7l-5.5,15.3c-0.3,0.8-0.8,1.2-1.5,1.2h-0.1c-0.7,0-1.2-0.4-1.5-1.2l-4.5-13l-4.6,13
			c-0.2,0.8-0.8,1.2-1.5,1.2h-0.1C-301.2-226-301.8-226.4-302.1-227.2"/>
	</g>
	<g id="g176" transform="translate(436.249, 269.985)">
		<path id="path178" class="st1" d="M-309.9-262.3c0-0.7,0.6-1.4,1.3-1.4c0.8,0,1.4,0.6,1.4,1.4v3.1c1.3-3,4.3-4.4,6.2-4.4
			c0.8,0,1.3,0.6,1.3,1.4c0,0.7-0.5,1.3-1.2,1.4c-3.5,0.4-6.4,3.1-6.4,8.3v6.2c0,0.7-0.6,1.4-1.3,1.4c-0.8,0-1.4-0.6-1.4-1.4
			L-309.9-262.3L-309.9-262.3z"/>
	</g>
	<g id="g180" transform="translate(458.898, 249.221)">
		<path id="path182" class="st1" d="M-313.6-224.2c-4.9,0-8.9-3.8-8.9-9.3v-0.1c0-5.2,3.6-9.3,8.5-9.3c5.3,0,8.3,4.3,8.3,9.1
			c0,0.7-0.6,1.3-1.2,1.3h-12.9c0.4,3.9,3.1,6.1,6.3,6.1c2.2,0,3.8-0.9,5.1-2.1c0.2-0.2,0.4-0.3,0.8-0.3c0.7,0,1.2,0.5,1.2,1.1
			c0,0.3-0.1,0.6-0.4,0.9C-308.6-225.3-310.6-224.2-313.6-224.2 M-308.3-234.6c-0.3-3.3-2.1-6.1-5.7-6.1c-3.1,0-5.4,2.6-5.8,6.1
			H-308.3z"/>
	</g>
	<g id="g184" transform="translate(413.36, 255.941)">
		<path id="path186" class="st1" d="M-306.2-236.5L-306.2-236.5c0-3.9,3.1-5.9,7.7-5.9c2.3,0,4,0.3,5.6,0.8v-0.6
			c0-3.3-2-4.9-5.4-4.9c-1.8,0-2.9,0.2-4.2,0.8c-0.2,0.1-0.3,0.1-0.5,0.1c-0.6,0-1.2-0.5-1.2-1.2c0-0.6,0.2-0.9,0.7-1.1
			c1.8-0.8,3.1-1,5.4-1c2.6,0,4.5,0.7,5.8,2c1.2,1.2,1.9,3,1.9,5.3v10c0,0.8-0.6,1.3-1.3,1.3c-0.8,0-1.3-0.6-1.3-1.3v-1.7
			c-1.3,1.6-3.4,3.1-6.5,3.1C-302.8-230.9-306.2-232.8-306.2-236.5 M-292.8-237.9v-1.7c-1.3-0.4-3.1-0.8-5.3-0.8
			c-3.4,0-5.3,1.5-5.3,3.7v0.1c0,2.3,2.1,3.6,4.5,3.6C-295.5-233-292.8-235.1-292.8-237.9"/>
	</g>
	<g id="g188" transform="translate(329.779, 270.223)">
		<path id="path190" class="st1" d="M-292.5-262.8c-0.6-1.3-2.1-1.9-3.4-1.3c-1.4,0.6-1.9,2.1-1.3,3.4l5.7,12.5c0.9,2,1.9,3,3.6,3
			c1.9,0,2.7-1.1,3.6-3c0,0,5-10.9,5.1-11c0.1-0.1,0.2-0.5,0.7-0.5c0.4,0,0.8,0.3,0.8,0.8v10.7c0,1.6,0.9,3,2.7,3
			c1.8,0,2.7-1.3,2.7-3v-8.7c0-1.7,1.2-2.8,2.8-2.8s2.7,1.1,2.7,2.8v8.7c0,1.6,0.9,3,2.7,3c1.8,0,2.7-1.3,2.7-3v-8.7
			c0-1.7,1.2-2.8,2.8-2.8c1.6,0,2.7,1.1,2.7,2.8v8.7c0,1.6,0.9,3,2.7,3c1.8,0,2.7-1.3,2.7-3v-9.9c0-3.6-2.9-6.2-6.5-6.2
			c-3.5,0-5.7,2.4-5.7,2.4c-1.2-1.5-2.8-2.4-5.5-2.4c-2.9,0-5.4,2.4-5.4,2.4c-1.2-1.5-3.2-2.4-4.8-2.4c-2.6,0-4.6,1.1-5.8,4
			l-3.7,8.6L-292.5-262.8z"/>
	</g>
	<g id="g192" transform="translate(468.609, 268.931)">
		<path id="path194" class="st1" d="M-315.2-260.4L-315.2-260.4c0-1.2,1-2.3,2.2-2.3c1.3,0,2.2,1,2.2,2.2v0c0,1.2-1,2.3-2.2,2.3
			C-314.2-258.2-315.2-259.2-315.2-260.4 M-311.1-260.4L-311.1-260.4c0-1-0.8-1.8-1.8-1.8c-1,0-1.8,0.8-1.8,1.8v0
			c0,1,0.8,1.8,1.8,1.8C-311.9-258.6-311.1-259.4-311.1-260.4"/>
	</g>
	<g id="g196" transform="translate(470.257, 270.007)">
		<path id="path198" class="st1" d="M-315.4-262.4c0-0.1,0.1-0.2,0.2-0.2h0.7c0.3,0,0.5,0.1,0.6,0.2c0.1,0.1,0.2,0.3,0.2,0.5v0
			c0,0.3-0.2,0.5-0.4,0.7l0.3,0.4c0,0.1,0.1,0.1,0.1,0.2c0,0.1-0.1,0.2-0.2,0.2c-0.1,0-0.2-0.1-0.2-0.1l-0.5-0.6h-0.4v0.5
			c0,0.1-0.1,0.2-0.2,0.2c-0.1,0-0.2-0.1-0.2-0.2L-315.4-262.4L-315.4-262.4z M-314.5-261.6c0.2,0,0.4-0.1,0.4-0.3v0
			c0-0.2-0.1-0.3-0.4-0.3h-0.5v0.6L-314.5-261.6L-314.5-261.6z"/>
	</g>
</g>
</svg>
