<svg height="480pt" viewBox="0 -4 480 480" width="480pt" xmlns="http://www.w3.org/2000/svg"><path d="m136 136-88-112h-40v24h24l80 104" fill="#ffcd34"/><path d="m344 272h-16v-128h-24v-16h32c4.417969 0 8 3.582031 8 8zm0 0" fill="#4d4d4d"/><path d="m376 272h-16v-88h-56v-16h64c4.417969 0 8 3.582031 8 8zm0 0" fill="#ffcd34"/><path d="m24 232h40v32h-40zm0 0" fill="#1a5f75"/><g fill="#0080a4"><path d="m176 320h16v64h-16zm0 0"/><path d="m208 320h16v40h-16zm0 0"/><path d="m176 320h16v64h-16zm0 0"/><path d="m208 320h16v40h-16zm0 0"/></g><path d="m328 320h56v112h-56zm0 0" fill="#1a5f75"/><path d="m96 320h56v112h-56zm0 0" fill="#1a5f75"/><path d="m32 320h16v40h-16zm0 0" fill="#0080a4"/><path d="m418.585938 104-70.402344 176h82.0625l32-128h17.753906v-48zm11.871093 109.175781-19.546875-34.199219 32.800782-18.730468zm-30.121093-20.472656 20.703124 36.234375-45.261718 25.140625zm13.535156-33.839844 13.050781-32.632812 16 16zm-23 105.136719 31.199218-17.34375-4.316406 17.34375zm73.128906-128h-4.6875l-16-16h20.6875zm0 0" fill="#2f7a92"/><path d="m144 224h64v48h-64zm0 0" fill="#1a5f75"/><path d="m272 0h32v272h-32zm0 0" fill="#e6e6e6"/><path d="m112 136h128v88h-128zm0 0" fill="#2f7a92"/><path d="m8 200h72v32h-72zm0 0" fill="#ffcd34"/><path d="m80 200h-16v-40c0-4.417969 3.582031-8 8-8h40v16h-32zm0 0" fill="#4d4d4d"/><path d="m136 160h16v16h-16zm0 0" fill="#4ec3c7"/><path d="m168 160h16v16h-16zm0 0" fill="#4ec3c7"/><path d="m200 160h16v16h-16zm0 0" fill="#4ec3c7"/><path d="m136 184h80v16h-80zm0 0" fill="#4ec3c7"/><path d="m272 0h32v32h-32zm0 0" fill="#ed242d"/><path d="m24 168c-13.253906 0-24-10.746094-24-24h16c0 4.417969 3.582031 8 8 8s8-3.582031 8-8-3.582031-8-8-8h-8c-4.417969 0-8-3.582031-8-8v-80h16v72c13.253906 0 24 10.746094 24 24s-10.746094 24-24 24zm0 0" fill="#4997a5"/><path d="m240 192h32v16h-32zm0 0" fill="#4d4d4d"/><path d="m431.03125 72.230469c-7.699219-8.84375-9.234375-21.488281-3.871094-31.917969l20.839844-40.3125 20.800781 40.3125c5.363281 10.429688 3.828125 23.074219-3.871093 31.917969-4.257813 4.925781-10.441407 7.753906-16.949219 7.753906-6.507813 0-12.695313-2.828125-16.949219-7.753906zm0 0" fill="#f37720"/><path d="m431.03125 72.230469c-7.699219-8.84375-9.234375-21.488281-3.871094-31.917969l20.839844-40.3125 20.800781 40.3125c5.363281 10.429688 3.828125 23.074219-3.871093 31.917969-4.257813 4.925781-10.441407 7.753906-16.949219 7.753906-6.507813 0-12.695313-2.828125-16.949219-7.753906zm0 0" fill="#f37720"/><path d="m144 32h16v104h-16zm0 0" fill="#e6e6e6"/><path d="m176 32h16v104h-16zm0 0" fill="#e6e6e6"/><path d="m208 72h16v64h-16zm0 0" fill="#e6e6e6"/><path d="m344 344h16v16h-16zm0 0" fill="#0f414c"/><path d="m352 376h16v16h-16zm0 0" fill="#0f414c"/><path d="m112 344h16v16h-16zm0 0" fill="#0f414c"/><path d="m112 376h16v16h-16zm0 0" fill="#0f414c"/><path d="m32 264h400v64h-400zm0 0" fill="#1a5f75"/><path d="m312 264h-280v64h400v-64zm-189.601562 48h-63.085938l29.113281-29.105469zm-12.796876-32h68.796876l-34.398438 29.464844zm90.398438 2.535156 34.398438 29.464844h-68.796876zm21.601562-2.535156h68.796876l-34.398438 29.464844zm90.398438 2.535156 34.398438 29.464844h-68.796876zm21.601562-2.535156h68.796876l-34.398438 29.464844zm-264.914062 0-20.6875 20.6875v-20.6875zm320.914062 32 26.398438-22.609375v22.609375zm0 0" fill="#226c8a"/><path d="m0 416c6.363281 6.371094 14.996094 9.953125 24 9.953125s17.636719-3.582031 24-9.953125c6.363281 6.371094 14.996094 9.953125 24 9.953125s17.636719-3.582031 24-9.953125c6.363281 6.371094 14.996094 9.953125 24 9.953125s17.636719-3.582031 24-9.953125c6.363281 6.371094 14.996094 9.953125 24 9.953125s17.636719-3.582031 24-9.953125c6.363281 6.371094 14.996094 9.953125 24 9.953125s17.636719-3.582031 24-9.953125c6.363281 6.371094 14.996094 9.953125 24 9.953125s17.636719-3.582031 24-9.953125c6.363281 6.371094 14.996094 9.953125 24 9.953125s17.636719-3.582031 24-9.953125c6.363281 6.371094 14.996094 9.953125 24 9.953125s17.636719-3.582031 24-9.953125c6.363281 6.371094 14.996094 9.953125 24 9.953125s17.636719-3.582031 24-9.953125c6.363281 6.371094 14.996094 9.953125 24 9.953125s17.636719-3.582031 24-9.953125v56h-480zm0 0" fill="#97d7d9"/><path d="m0 454.046875c6.363281 6.375 14.996094 9.953125 24 9.953125s17.636719-3.578125 24-9.953125c6.363281 6.375 14.996094 9.953125 24 9.953125s17.636719-3.578125 24-9.953125c6.363281 6.375 14.996094 9.953125 24 9.953125s17.636719-3.578125 24-9.953125c6.363281 6.375 14.996094 9.953125 24 9.953125s17.636719-3.578125 24-9.953125c6.363281 6.375 14.996094 9.953125 24 9.953125s17.636719-3.578125 24-9.953125c6.363281 6.375 14.996094 9.953125 24 9.953125s17.636719-3.578125 24-9.953125c6.363281 6.375 14.996094 9.953125 24 9.953125s17.636719-3.578125 24-9.953125c6.363281 6.375 14.996094 9.953125 24 9.953125s17.636719-3.578125 24-9.953125c6.363281 6.375 14.996094 9.953125 24 9.953125s17.636719-3.578125 24-9.953125c6.363281 6.375 14.996094 9.953125 24 9.953125s17.636719-3.578125 24-9.953125v17.953125h-480zm0 0" fill="#81d0d3"/><path d="m460 56.664062c0 6.628907-5.371094 12-12 12s-12-5.371093-12-12c0-6.628906 5.371094-12 12-12s12 5.371094 12 12zm0 0" fill="#ed242d"/></svg>