<svg height="480pt" viewBox="0 -19 480 479" width="480pt" xmlns="http://www.w3.org/2000/svg"><path d="m232 432.5h-216l1.480469-3.855469c25.542969-66.40625 41.101562-136.230469 46.167969-207.199219l.351562-4.945312h120l.351562 4.976562c5.066407 70.96875 20.625 140.792969 46.167969 207.199219zm0 0" fill="#b3b3b3"/><path d="m184.351562 221.476562-.351562-4.976562h-120l-.351562 4.976562c-.644532 9.035157-1.464844 18.042969-2.457032 27.023438h125.601563c-.972657-8.980469-1.785157-17.988281-2.441407-27.023438zm0 0" fill="#ffcd34"/><path d="m64 368.5h40v16h-40zm0 0" fill="#f2f2f2"/><path d="m64 392.5h24v16h-24zm0 0" fill="#f2f2f2"/><path d="m464 432.5h-288l1.976562-5.144531c34.050782-88.527344 54.792969-181.613281 61.550782-276.222657l.472656-6.632812h160l.472656 6.632812c6.757813 94.609376 27.5 187.695313 61.550782 276.222657zm0 0" fill="#999"/><path d="m168 216.5v-12c0-11.046875 8.953125-20 20-20h8c11.046875 0 20-8.953125 20-20s8.953125-20 20-20h28l24-72h-84c-19.882812 0-36 16.117188-36 36s-16.117188 36-36 36h-16c-19.882812 0-36 16.117188-36 36v36zm0 0" fill="#f2f2f2"/><path d="m400.472656 151.132812-.472656-6.632812h-160l-.472656 6.632812c-.605469 8.480469-1.457032 16.917969-2.289063 25.367188h165.523438c-.832031-8.449219-1.683594-16.886719-2.289063-25.367188zm0 0" fill="#ffcd34"/><path d="m464 432.5h-160v-144l80-32 80 32zm0 0" fill="#808080"/><g fill="#3fa9f5"><path d="m328 304.5h16v16h-16zm0 0"/><path d="m360 304.5h16v16h-16zm0 0"/><path d="m392 304.5h16v16h-16zm0 0"/><path d="m424 304.5h16v16h-16zm0 0"/><path d="m328 336.5h16v16h-16zm0 0"/><path d="m360 336.5h16v16h-16zm0 0"/><path d="m392 336.5h16v16h-16zm0 0"/><path d="m424 336.5h16v16h-16zm0 0"/><path d="m328 368.5h16v16h-16zm0 0"/><path d="m360 368.5h16v16h-16zm0 0"/><path d="m392 368.5h16v16h-16zm0 0"/><path d="m424 368.5h16v16h-16zm0 0"/></g><path d="m384 400.5h-16v32h32v-32zm0 0" fill="#29485a"/><path d="m248 432.5h-16v-96c0-13.253906 10.746094-24 24-24h48v16h-48c-4.417969 0-8 3.582031-8 8zm0 0" fill="#2f7a92"/><path d="m280 432.5h-16v-72c0-8.835938 7.164062-16 16-16h24v16h-24zm0 0" fill="#2f7a92"/><path d="m224 32.5h64v16h-64zm0 0" fill="#f2f2f2"/><path d="m248 144.5v-36c0-19.882812 16.117188-36 36-36h16c19.882812 0 36-16.117188 36-36s16.117188-36 36-36h108v72h-28c-11.046875 0-20 8.953125-20 20s-8.953125 20-20 20h-8c-11.046875 0-20 8.953125-20 20v12zm0 0" fill="#e6e6e6"/><path d="m0 424.5h480v16h-480zm0 0" fill="#754c24"/></svg>