<svg height="464pt" viewBox="0 -78 464 464" width="464pt" xmlns="http://www.w3.org/2000/svg"><path d="m464 308h-464v-308h376l88 88zm0 0" fill="#e6e6e6"/><path d="m376 0v88h88zm0 0" fill="#b3b3b3"/><path d="m360 160v-32h-17.847656c-1.800782-7.898438-4.925782-15.429688-9.25-22.28125l12.632812-12.628906-22.625-22.625-12.628906 12.632812c-6.851562-4.324218-14.382812-7.449218-22.28125-9.25v-17.847656h-32v17.847656c-7.898438 1.800782-15.429688 4.925782-22.28125 9.25l-12.628906-12.632812-22.625 22.625 12.632812 12.628906c-4.324218 6.851562-7.449218 14.382812-9.25 22.28125h-17.847656v32h17.847656c1.800782 7.898438 4.925782 15.429688 9.25 22.28125l-12.632812 12.628906 22.625 22.625 12.628906-12.632812c6.851562 4.324218 14.382812 7.449218 22.28125 9.25v17.847656h32v-17.847656c7.898438-1.800782 15.429688-4.925782 22.28125-9.25l12.628906 12.632812 22.625-22.625-12.632812-12.628906c4.324218-6.851562 7.449218-14.382812 9.25-22.28125zm-88 16c-17.671875 0-32-14.328125-32-32s14.328125-32 32-32 32 14.328125 32 32-14.328125 32-32 32zm0 0" fill="#2f7a92"/><g fill="#29485a"><path d="m24 24h128v16h-128zm0 0"/><path d="m24 56h96v16h-96zm0 0"/><path d="m24 88h96v16h-96zm0 0"/><path d="m352 240h88v16h-88zm0 0"/><path d="m352 272h56v16h-56zm0 0"/><path d="m24 240h40v16h-40zm0 0"/><path d="m24 272h24v16h-24zm0 0"/></g><path d="m166.398438 192.222656 8.800781-8.796875-22.632813-22.625-8.796875 8.800781c-5.359375-1.425781-10.996093-1.425781-16.355469 0l-8.796874-8.800781-22.617188 22.632813 8.800781 8.796875c-1.417969 5.359375-1.417969 10.996093 0 16.355469l-8.800781 8.796874 22.625 22.617188 8.800781-8.800781c5.355469 1.417969 10.992188 1.417969 16.351563 0l8.796875 8.800781 22.625-22.625-8.800781-8.800781c1.425781-5.355469 1.425781-10.992188 0-16.351563zm-30.398438 15.777344c-4.417969 0-8-3.582031-8-8s3.582031-8 8-8 8 3.582031 8 8-3.582031 8-8 8zm0 0" fill="#2f7a92"/><path d="m336 272h-27.3125l-18.34375-18.34375 11.3125-11.3125 13.65625 13.65625h20.6875zm0 0" fill="#008fcf"/><path d="m168.839844 107.574219-13.785156-27.574219h-19.054688v-16h28.945312l18.214844 36.425781zm0 0" fill="#008fcf"/><path d="m38.65625 228.441406-13.3125-8.882812 18.375-27.558594h28.28125v16h-19.71875zm0 0" fill="#008fcf"/></svg>