<svg height="480pt" viewBox="0 0 480 480" width="480pt" xmlns="http://www.w3.org/2000/svg"><path d="m240 152c31.46875.003906 60.535156 16.832031 76.207031 44.121094l97.121094-55.914063-12.121094-21.007812-29.320312 16.929687c-8.203125-10.398437-17.601563-19.796875-28-28l16.914062-29.335937-41.601562-24-16.902344 29.277343c-12.316406-4.890624-25.171875-8.300781-38.296875-10.160156v-33.910156h-48v33.910156c-13.128906 1.855469-25.988281 5.265625-38.3125 10.160156l-16.886719-29.277343-41.601562 24 16.929687 29.320312c-5.199218 4.101563-10.15625 8.507813-14.839844 13.191407l56.472657 56.472656c16.484375-16.535156 38.886719-25.8125 62.238281-25.777344zm0 0" fill="#009245"/><path d="m240 328c-35.59375 0-67.679688-21.441406-81.296875-54.324219-13.621094-32.882812-6.09375-70.730469 19.074219-95.898437l-56.472656-56.472656c-4.683594 4.683593-9.089844 9.640624-13.191407 14.839843l-29.320312-16.945312-24 41.601562 29.277343 16.902344c-4.894531 12.316406-8.304687 25.171875-10.160156 38.296875h-33.910156v48h33.910156c1.855469 13.128906 5.265625 25.988281 10.160156 38.3125l-29.277343 16.886719 24 41.601562 29.320312-16.929687c8.203125 10.398437 17.601563 19.796875 28 28l-16.914062 29.335937 41.601562 24 16.902344-29.277343c12.316406 4.890624 25.171875 8.300781 38.296875 10.160156v33.910156h48v-33.910156c13.128906-1.855469 25.988281-5.265625 38.3125-10.160156l16.902344 29.277343 41.601562-24-16.929687-29.320312c5.203125-4.101563 10.15625-8.507813 14.839843-13.191407l-56.46875-56.472656c-16.492187 16.539063-38.902343 25.820313-62.257812 25.777344zm0 0" fill="#226c8a"/><path d="m406.089844 216c-1.851563-13.128906-5.261719-25.992188-10.160156-38.3125l29.277343-16.902344-11.878906-20.578125-97.121094 55.914063c7.726563 13.332031 11.792969 28.46875 11.792969 43.878906h112v-24zm0 0" fill="#ed242d"/><path d="m302.222656 302.222656 56.472656 56.472656c4.683594-4.683593 9.089844-9.640624 13.191407-14.839843l29.320312 16.945312 24-41.601562-29.277343-16.902344c4.890624-12.316406 8.300781-25.171875 10.160156-38.296875h33.910156v-24h-112c.03125 23.34375-9.246094 45.742188-25.777344 62.222656zm0 0" fill="#ffcd34"/><g fill="#0378a3"><path d="m0 400h72v16h-72zm0 0"/><path d="m0 432h96v16h-96zm0 0"/><path d="m0 464h120v16h-120zm0 0"/><path d="m400 400h64v16h-64zm0 0"/><path d="m400 432h80v16h-80zm0 0"/><path d="m400 464h48v16h-48zm0 0"/><path d="m16 0h80v16h-80zm0 0"/><path d="m16 32h56v16h-56zm0 0"/><path d="m400 24h80v16h-80zm0 0"/><path d="m400 56h56v16h-56zm0 0"/><path d="m16 64h24v16h-24zm0 0"/></g></svg>