<svg height="463pt" viewBox="-7 0 463 463.94092" width="463pt" xmlns="http://www.w3.org/2000/svg"><path d="m448.46875 167.941406c-.027344-21.253906-16.714844-38.753906-37.941406-39.792968-2.550782-8.300782-5.890625-16.335938-9.976563-24 14.359375-15.726563 13.8125-39.96875-1.25-55.03125-15.058593-15.0625-39.300781-15.617188-55.03125-1.257813-7.660156-4.085937-15.699219-7.425781-24-9.972656-1.042969-21.21875-18.546875-37.886719-39.792969-37.886719-21.242187 0-38.746093 16.667969-39.789062 37.886719-8.300781 2.546875-16.339844 5.886719-24 9.972656-15.734375-14.320313-39.945312-13.75-54.988281 1.292969-15.042969 15.046875-15.613281 39.253906-1.292969 54.988281-4.085938 7.664063-7.425781 15.699219-9.976562 24-21.214844 1.042969-37.882813 18.550781-37.882813 39.792969 0 21.242187 16.667969 38.75 37.882813 39.792968 2.550781 8.300782 5.890624 16.335938 9.976562 24-14.320312 15.734376-13.75 39.941407 1.292969 54.984376 15.042969 15.042968 39.253906 15.613281 54.988281 1.292968 7.660156 4.085938 15.699219 7.425782 24 9.976563 1.042969 21.21875 18.546875 37.886719 39.789062 37.886719 21.246094 0 38.75-16.667969 39.792969-37.886719 8.300781-2.550781 16.339844-5.890625 24-9.976563 15.734375 14.320313 39.945313 13.75 54.988281-1.292968 15.042969-15.042969 15.613282-39.25 1.292969-54.984376 4.085938-7.664062 7.425781-15.699218 9.976563-24 21.222656-1.042968 37.910156-18.535156 37.941406-39.785156zm0 0" fill="#008fcf"/><path d="m376.46875 167.941406c0 53.019532-42.980469 96-96 96s-96-42.980468-96-96c0-53.019531 42.980469-96 96-96s96 42.980469 96 96zm0 0" fill="#8fcfdb"/><path d="m328.46875 191.941406v-50.832031l-48-26.832031-48 26.832031v50.832031l48 29.664063zm0 0" fill="#ffcd34"/><path d="m304.46875 167.941406c0 13.253906-10.742188 24-24 24-13.253906 0-24-10.746094-24-24s10.746094-24 24-24c13.257812 0 24 10.746094 24 24zm0 0" fill="#008fcf"/><path d="m160.46875 319.941406h-8.628906c-5.621094-9.691406-13.675782-17.75-23.371094-23.367187v-8.632813c0-17.671875-14.324219-32-32-32-17.671875 0-32 14.328125-32 32v8.632813c-9.691406 5.617187-17.746094 13.675781-23.367188 23.367187h-8.632812c-17.671875 0-32 14.328125-32 32s14.328125 32 32 32h8.632812c5.621094 9.691406 13.675782 17.746094 23.367188 23.367188v8.632812c0 17.671875 14.328125 32 32 32 17.675781 0 32-14.328125 32-32v-8.632812c9.695312-5.621094 17.75-13.675782 23.371094-23.367188h8.628906c17.675781 0 32-14.328125 32-32s-14.324219-32-32-32zm0 0" fill="#008fcf"/><path d="m81.4375 13.027344-4.574219 4.578125c-8.125-2.164063-16.675781-2.164063-24.800781 0l-4.574219-4.578125c-9.421875-9.089844-24.390625-8.957032-33.644531.300781-9.257812 9.261719-9.382812 24.230469-.285156 33.644531l4.574218 4.578125c-2.160156 8.125-2.160156 16.671875 0 24.796875l-4.574218 4.578125c-9.375 9.371094-9.375 24.570313 0 33.941407 9.375 9.375 24.570312 9.375 33.945312 0l4.574219-4.574219c8.125 2.164062 16.675781 2.164062 24.800781 0l4.574219 4.574219c9.375 9.375 24.570313 9.375 33.945313 0 9.375-9.371094 9.375-24.570313 0-33.941407l-4.574219-4.578125c2.160156-8.125 2.160156-16.671875 0-24.796875l4.574219-4.578125c9.375-9.375 9.375-24.570312 0-33.945312-9.375-9.371094-24.570313-9.371094-33.945313 0zm0 0" fill="#8fcfdb"/><path d="m88.46875 63.941406c0 13.253906-10.742188 24-24 24-13.253906 0-24-10.746094-24-24s10.746094-24 24-24c13.257812 0 24 10.746094 24 24zm0 0" fill="#008fcf"/><path d="m232.46875 119.941406v72l48 29.664063 48-29.664063v-72l24.21875 20.183594c15.070312 12.554688 23.785156 31.152344 23.78125 50.769531.015625 20.796875-9.765625 40.382813-26.398438 52.871094l-29.664062 22.246094c-4.984375 3.726562-7.925781 9.578125-7.9375 15.800781v182.128906h-64v-181.054687c.003906-6.808594-3.503906-13.140625-9.277344-16.746094l-21.601562-13.519531c-20.597656-12.859375-33.113282-35.421875-33.121094-59.703125 0-20.898438 9.285156-40.714844 25.335938-54.089844zm0 0" fill="#b3b3b3"/><path d="m113.4375 322.550781h-33.933594l-16.976562 29.390625 16.976562 29.390625h33.933594l16.976562-29.390625zm0 0" fill="#ffcd34"/><path d="m104.46875 351.941406c0 4.417969-3.578125 8-8 8-4.417969 0-8-3.582031-8-8 0-4.417968 3.582031-8 8-8 4.421875 0 8 3.582032 8 8zm0 0" fill="#8fcfdb"/></svg>