<svg height="464pt" viewBox="0 0 464 464" width="464pt" xmlns="http://www.w3.org/2000/svg"><path d="m264 460.800781c29.636719 5.925781 60.339844 3.503907 88.679688-7l6.585937-2.402343c21.535156-7.980469 41.121094-20.460938 57.453125-36.605469 30.21875-29.808594 47.246094-70.476563 47.28125-112.921875v-4.222656c-.007812-31.566407-9.449219-62.414063-27.113281-88.578126l-140.886719-209.070312-32.34375 48" fill="#808080"/><path d="m200 460.800781c-29.636719 5.925781-60.339844 3.503907-88.679688-7l-6.585937-2.402343c-21.535156-7.980469-41.121094-20.464844-57.453125-36.613282-30.214844-29.808594-47.2421875-70.46875-47.28125-112.914062v-4.222656c.0078125-31.566407 9.449219-62.414063 27.113281-88.578126l140.886719-209.070312 32.34375 48" fill="#808080"/><path d="m232 0-140.886719 209.070312c-17.664062 26.164063-27.105469 57.011719-27.113281 88.578126v4.222656c.039062 42.445312 17.066406 83.105468 47.28125 112.914062 16.332031 16.144532 35.917969 28.625 57.453125 36.605469l6.585937 2.402344c36.570313 13.558593 76.789063 13.558593 113.359376 0l6.585937-2.402344c21.535156-7.980469 41.121094-20.460937 57.453125-36.605469 30.214844-29.808594 47.242188-70.46875 47.28125-112.914062v-4.222656c-.007812-31.566407-9.449219-62.414063-27.113281-88.578126zm0 0" fill="#999"/><path d="m215.441406 178.015625-80 48.398437c-9.582031 5.796876-15.4375 16.179688-15.441406 27.378907v89.742187c0 11.203125 5.855469 21.589844 15.441406 27.386719l80 48.390625c10.179688 6.15625 22.9375 6.15625 33.117188 0l80-48.390625c9.585937-5.796875 15.441406-16.183594 15.441406-27.386719v-89.742187c.003906-11.203125-5.851562-21.59375-15.441406-27.394531l-80-48.398438c-10.183594-6.152344-22.941406-6.144531-33.117188.015625zm0 0" fill="#f8cf26"/><path d="m152 330.007812v-62.679687c0-8.398437 4.390625-16.1875 11.574219-20.535156l56-33.882813c7.640625-4.621094 17.210937-4.621094 24.851562 0l56 33.882813c7.183594 4.347656 11.574219 12.136719 11.574219 20.535156v62.679687c0 8.398438-4.390625 16.1875-11.574219 20.535157l-56 33.871093c-7.640625 4.625-17.210937 4.625-24.851562 0l-56-33.871093c-7.183594-4.347657-11.574219-12.136719-11.574219-20.535157zm0 0" fill="#ff0"/><g fill="#f8cf26"><path d="m224 240h16v112h-16zm0 0"/><path d="m272 272h-16c0-4.417969-3.582031-8-8-8v-16c13.253906 0 24 10.746094 24 24zm0 0"/><path d="m216 304c-13.253906 0-24-10.746094-24-24v-8c0-13.253906 10.746094-24 24-24v16c-4.417969 0-8 3.582031-8 8v8c0 4.417969 3.582031 8 8 8zm0 0"/><path d="m248 344v-16c4.417969 0 8-3.582031 8-8v-8c0-4.417969-3.582031-8-8-8v-16c13.253906 0 24 10.746094 24 24v8c0 13.253906-10.746094 24-24 24zm0 0"/><path d="m216 344c-13.253906 0-24-10.746094-24-24h16c0 4.417969 3.582031 8 8 8zm0 0"/></g></svg>