<svg height="480pt" viewBox="0 -4 480 480" width="480pt" xmlns="http://www.w3.org/2000/svg"><path d="m80 416h64v48h-64zm0 0" fill="#226c8a"/><path d="m328 416h64v48h-64zm0 0" fill="#226c8a"/><path d="m280 384h-80c-2.160156 0-4.226562-.871094-5.734375-2.417969s-2.324219-3.640625-2.265625-5.796875l8-288c.117188-4.335937 3.664062-7.785156 8-7.785156h64c4.335938 0 7.882812 3.449219 8 7.785156l8 288c.058594 2.15625-.757812 4.25-2.265625 5.796875s-3.574219 2.417969-5.734375 2.417969zm-71.777344-16h63.554688l-7.5625-272h-48.429688zm0 0" fill="#e6e6e6"/><g fill="#ffcd34"><path d="m232 416h16v48h-16zm0 0"/><path d="m232 288h16v96h-16zm0 0"/><path d="m232 176h16v80h-16zm0 0"/><path d="m232 96h16v48h-16zm0 0"/><path d="m232 72h16v8h-16zm0 0"/></g><path d="m203.574219 383.199219-7.148438-14.320313 66.957031-33.480468-67.503906-40.503907 8.242188-13.710937 80 48c2.503906 1.503906 3.988281 4.25 3.875 7.167968-.113282 2.917969-1.808594 5.542969-4.421875 6.847657zm0 0" fill="#e6e6e6"/><path d="m212.238281 262.785156-8.476562-13.601562 53.140625-33.183594-53.140625-33.214844 8.476562-13.601562 64 40c2.355469 1.460937 3.789063 4.03125 3.789063 6.800781s-1.433594 5.339844-3.789063 6.800781zm0 0" fill="#e6e6e6"/><path d="m202.730469 137.976562 64.003906-55.996093 10.539063 12.050781-64.003907 55.992188zm0 0" fill="#e6e6e6"/><path d="m225.847656 61.382812c-10.015625-7.507812-12.417968-21.535156-5.472656-31.949218l19.625-29.433594 19.625 29.433594c6.945312 10.414062 4.542969 24.441406-5.472656 31.949218-8.382813 6.296876-19.921875 6.296876-28.304688 0zm0 0" fill="#ed242d"/><path d="m344 376h-16v-200c0-4.417969-3.582031-8-8-8h-24v-16h24c13.253906 0 24 10.746094 24 24zm0 0" fill="#ffcd34"/><path d="m136 376h-16v-88c0-13.253906 10.746094-24 24-24h24v16h-24c-4.417969 0-8 3.582031-8 8zm0 0" fill="#ffcd34"/><path d="m48 456h-16v-112c0-13.253906 10.746094-24 24-24h72v16h-72c-4.417969 0-8 3.582031-8 8zm0 0" fill="#ffcd34"/><path d="m184 144h112v32h-112zm0 0" fill="#ed242d"/><path d="m168 256h144v32h-144zm0 0" fill="#ed242d"/><path d="m0 456h480v16h-480zm0 0" fill="#603813"/><path d="m72 376h328v40h-328zm0 0" fill="#2f7a92"/></svg>