<svg height="480pt" viewBox="0 -4 480 480" width="480pt" xmlns="http://www.w3.org/2000/svg"><g fill="#6cbdbd"><path d="m40 232h16v24h-16zm0 0"/><path d="m424 232h16v24h-16zm0 0"/><path d="m288 24h16v24h-16zm0 0"/><path d="m176 24h16v24h-16zm0 0"/></g><path d="m200 16c0 8.835938-7.164062 16-16 16s-16-7.164062-16-16 7.164062-16 16-16 16 7.164062 16 16zm0 0" fill="#d4eded"/><path d="m64 264c0 8.835938-7.164062 16-16 16s-16-7.164062-16-16 7.164062-16 16-16 16 7.164062 16 16zm0 0" fill="#d4eded"/><path d="m448 264c0 8.835938-7.164062 16-16 16s-16-7.164062-16-16 7.164062-16 16-16 16 7.164062 16 16zm0 0" fill="#d4eded"/><path d="m312 16c0 8.835938-7.164062 16-16 16s-16-7.164062-16-16 7.164062-16 16-16 16 7.164062 16 16zm0 0" fill="#d4eded"/><path d="m436.800781 225.601562-96-72-9.601562 12.796876 35.761719 26.816406-51.199219 32 4.238281 6.785156v8h112c3.445312 0 6.5-2.203125 7.589844-5.46875 1.089844-3.269531-.035156-6.863281-2.789063-8.929688zm-88.90625-1.601562 32.800781-20.488281 27.304688 20.488281zm0 0" fill="#acdee0"/><path d="m113.039062 193.214844 35.761719-26.816406-9.601562-12.796876-96 72c-2.753907 2.066407-3.878907 5.660157-2.789063 8.929688 1.089844 3.265625 4.144532 5.46875 7.589844 5.46875h112v-8l4.238281-6.785156zm-13.71875 10.296875 32.785157 20.488281h-60.105469zm0 0" fill="#acdee0"/><path d="m191.527344 45.3125c-1.140625-3.175781-4.152344-5.292969-7.527344-5.292969s-6.386719 2.117188-7.527344 5.292969l-40 112c-.875 2.449219-.503906 5.167969.992188 7.292969 1.5 2.125 3.933594 3.390625 6.535156 3.394531h80c2.601562-.003906 5.035156-1.269531 6.535156-3.394531 1.496094-2.125 1.867188-4.84375.992188-7.292969zm-7.527344 26.480469 11.585938 32.4375-33.707032 29.496093zm-18.703125 80.207031 36.078125-31.566406 11.273438 31.566406zm0 0" fill="#acdee0"/><path d="m343.527344 157.3125-40-112c-1.140625-3.175781-4.152344-5.292969-7.527344-5.292969s-6.386719 2.117188-7.527344 5.292969l-40 112c-.875 2.449219-.503906 5.167969.992188 7.292969 1.5 2.125 3.933594 3.390625 6.535156 3.394531h80c2.601562-.003906 5.035156-1.269531 6.535156-3.394531 1.496094-2.125 1.867188-4.84375.992188-7.292969zm-47.527344-85.519531 22.121094 61.933593-33.707032-29.496093zm-17.375 48.640625 36.078125 31.566406h-47.351563zm0 0" fill="#acdee0"/><path d="m351.695312 461.808594-48-168c-.980468-3.4375-4.121093-5.808594-7.695312-5.808594h-112c-3.574219 0-6.714844 2.371094-7.695312 5.808594l-48 168c-.984376 3.449218.449218 7.132812 3.503906 9.007812 3.058594 1.878906 6.992187 1.492188 9.625-.945312l98.566406-90.984375 98.566406 90.984375c2.632813 2.4375 6.566406 2.824218 9.625.945312 3.054688-1.875 4.488282-5.558594 3.503906-9.007812zm-43.800781-95.054688-52.695312-5.265625 37.441406-48.136719zm-67.894531-11.785156-39.640625-50.96875h79.28125zm-52.640625-41.601562 37.441406 48.136718-52.695312 5.265625zm-20 69.953124 49.601563-4.960937-65.441407 60.425781zm95.625-4.960937 49.601563 4.960937 15.855468 55.480469zm0 0" fill="#6ac9cd"/><path d="m342.398438 155.199219c-1.507813-2.011719-3.878907-3.199219-6.398438-3.199219h-192c-2.519531 0-4.894531 1.191406-6.402344 3.207031-1.511718 2.019531-1.980468 4.628907-1.269531 7.050781l40 136c1 3.402344 4.125 5.742188 7.671875 5.742188h112c3.546875 0 6.671875-2.339844 7.671875-5.742188l40-136c.710937-2.421874.242187-5.039062-1.273437-7.058593zm-27.335938 12.800781-75.0625 67.199219-75.0625-67.199219zm-155.453125 16.695312 68.390625 61.199219-39.894531 35.707031zm80.390625 71.9375 35.0625 31.367188h-70.125zm51.894531 24.960938-39.894531-35.699219 68.390625-61.199219zm0 0" fill="#81d0d3"/><path d="m0 456h480v16h-480zm0 0" fill="#603813"/></svg>