<svg height="480pt" viewBox="0 -4 480 480" width="480pt" xmlns="http://www.w3.org/2000/svg"><path d="m336 416h-304c-17.671875 0-32-14.328125-32-32s14.328125-32 32-32h208c8.835938 0 16-7.164062 16-16s-7.164062-16-16-16h-136c-13.253906 0-24-10.746094-24-24v-40h16v40c0 4.417969 3.582031 8 8 8h136c17.671875 0 32 14.328125 32 32s-14.328125 32-32 32h-208c-8.835938 0-16 7.164062-16 16s7.164062 16 16 16h304zm0 0" fill="#808080"/><path d="m399.671875 461.742188c-23.929687-81.359376-30.121094-253.34375-31.671875-323.613282v-42.128906c0-4.382812-3.527344-7.953125-7.910156-8h-.089844c-4.351562 0-7.902344 3.472656-8 7.824219-1.449219 65.488281-8 285.414062-31.671875 365.917969-.710937 2.421874-.242187 5.03125 1.269531 7.050781 1.507813 2.015625 3.882813 3.207031 6.402344 3.207031h64c2.519531 0 4.894531-1.191406 6.402344-3.207031 1.511718-2.019531 1.980468-4.628907 1.269531-7.050781zm0 0" fill="#c69c6d"/><path d="m24 0h128v128h-128zm0 0" fill="#d4eded"/><path d="m280 16c44.183594 0 80 35.816406 80 80-44.183594 0-80-35.816406-80-80zm0 0" fill="#7c8c03"/><path d="m360 112c0-44.183594 35.816406-80 80-80 0 44.183594-35.816406 80-80 80zm0 0" fill="#c6d936"/><path d="m64 40h16v48h-16zm0 0" fill="#226c8a"/><path d="m96 40h16v48h-16zm0 0" fill="#226c8a"/><path d="m48 192h80v48c0 8.835938-7.164062 16-16 16h-48c-8.835938 0-16-7.164062-16-16zm0 0" fill="#e6e6e6"/><path d="m64 152h16v40h-16zm0 0" fill="#e8b542"/><path d="m96 152h16v40h-16zm0 0" fill="#e8b542"/><path d="m392 153.6875c-20.53125 20.890625-32.027344 49.019531-32 78.3125l32-32zm0 0" fill="#1e2601"/><path d="m408 184 64-64c-30.121094-.027344-58.972656 12.121094-80 33.6875v46.3125zm0 0" fill="#7c8c03"/><path d="m408 184h43.839844c13.136718-18.753906 20.175781-41.101562 20.160156-64zm0 0" fill="#c6d936"/><path d="m392 200-32 32c36.628906.007812 70.9375-17.921875 91.839844-48h-43.839844zm0 0" fill="#4f5902"/><path d="m232 144c.015625 19.417969 4.472656 38.570312 13.03125 56h42.96875zm0 0" fill="#c6d936"/><path d="m312 224v-51.832031c-22.664062-18.253907-50.898438-28.195313-80-28.167969zm0 0" fill="#4f5902"/><path d="m288 200h-42.96875c21.390625 44.023438 66.027344 71.976562 114.96875 72zm0 0" fill="#7c8c03"/><path d="m312 172.167969v51.832031l48 48c.019531-38.847656-17.644531-75.589844-48-99.832031zm0 0" fill="#1e2601"/><path d="m0 456h480v16h-480zm0 0" fill="#754c24"/></svg>