<svg height="480pt" viewBox="0 -4 480 479" width="480pt" xmlns="http://www.w3.org/2000/svg"><path d="m177.230469 236.132812-8.152344 228.078126h48l-8.140625-228.078126" fill="#acdee0"/><path d="m185.601562 195.460938-15.363281-114.503907c-3.734375-26.171875 1.648438-52.828125 15.25-75.496093 1.847657-3.078126 5.171875-4.960938 8.757813-4.960938 5.644531 0 10.21875 4.574219 10.21875 10.214844v184.800781zm0 0" fill="#d4eded"/><path d="m178.871094 236.835938-85.0625 76.976562c-19.402344 17.960938-44.394532 28.695312-70.777344 30.398438-3.578125.234374-7.015625-1.429688-9.054688-4.382813-3.210937-4.640625-2.050781-11 2.589844-14.207031l153.433594-106.023438zm0 0" fill="#d4eded"/><path d="m216.992188 219.597656 110.207031 31.933594c25.457031 7.128906 47.683593 22.800781 62.945312 44.382812 2.066407 2.933594 2.449219 6.734376 1.007813 10.019532-2.277344 5.160156-8.308594 7.503906-13.472656 5.230468l-169.191407-74.625zm0 0" fill="#d4eded"/><g fill="#81d0d3"><path d="m53.800781 252.476562c-17.542969-66.34375 14.445313-135.804687 76.261719-165.601562l7.035156 14.402344c-54.984375 26.449218-83.441406 88.21875-67.816406 147.199218zm0 0"/><path d="m24.527344 266.332031c-25.5625-84.515625 15.820312-174.835937 96.519531-210.664062l6.5625 14.59375c-73.371094 32.554687-111 114.664062-87.753906 191.496093zm0 0"/><path d="m83.023438 236.621094c-1.097657-5.675782-1.742188-11.425782-1.925782-17.199219-1.265625-41.941406 21.097656-81.042969 57.886719-101.21875l7.734375 14c-31.523438 17.296875-50.683594 50.8125-49.597656 86.753906.15625 4.9375.707031 9.859375 1.648437 14.710938zm0 0"/><path d="m53.800781 252.476562c-17.542969-66.34375 14.445313-135.804687 76.261719-165.601562l7.035156 14.402344c-54.984375 26.449218-83.441406 88.21875-67.816406 147.199218zm0 0"/><path d="m337.953125 222.90625-16-.519531c2.382813-60.964844-38.855469-115.039063-98.28125-128.863281l3.6875-15.574219c66.839844 15.574219 113.226563 76.382812 110.59375 144.957031zm0 0"/><path d="m369.742188 229.546875-16-1.023437c5.605468-80.066407-49.320313-151.765626-128.085938-167.199219l3.144531-15.726563c86.652344 16.988282 147.085938 95.859375 140.941407 183.949219zm0 0"/><path d="m290.097656 216.378906c-.511718-35.957031-21.140625-68.597656-53.402344-84.488281-4.4375-2.164063-9.042968-3.976563-13.765624-5.414063l4.75-15.28125c5.527343 1.691407 10.910156 3.816407 16.105468 6.351563 37.636719 18.53125 61.710938 56.601563 62.3125 98.554687zm0 0"/><path d="m337.953125 222.90625-16-.519531c2.382813-60.964844-38.855469-115.039063-98.28125-128.863281l3.6875-15.574219c66.839844 15.574219 113.226563 76.382812 110.59375 144.957031zm0 0"/><path d="m192.265625 361.980469c-25.222656.011719-50.007813-6.582031-71.890625-19.121094l7.953125-13.886719c52.75 30.664063 119.847656 19.554688 159.894531-26.480468l12 10.550781c-27.167968 31.246093-66.59375 49.109375-108 48.9375zm0 0"/><path d="m192.238281 394.171875c-32.71875-.019531-64.789062-9.140625-92.621093-26.34375l8.390624-13.601563c68.113282 42.488282 157.210938 27.554688 207.753907-34.816406l12.390625 10.136719c-33.21875 40.964844-83.171875 64.71875-135.914063 64.625zm0 0"/><path d="m192.257812 330.15625c-17.710937-.015625-35.167968-4.21875-50.945312-12.265625l7.246094-14.261719c32.007812 16.398438 70.511718 13.460938 99.65625-7.609375 4-2.898437 7.757812-6.105469 11.25-9.597656l11.261718 11.351563c-4.066406 4.089843-8.457031 7.847656-13.125 11.238281-19.019531 13.742187-41.882812 21.140625-65.34375 21.144531zm0 0"/><path d="m192.265625 361.980469c-25.222656.011719-50.007813-6.582031-71.890625-19.121094l7.953125-13.886719c52.75 30.664063 119.847656 19.554688 159.894531-26.480468l12 10.550781c-27.167968 31.246093-66.59375 49.109375-108 48.9375zm0 0"/></g><path d="m392 344.210938-56 32v88h112v-88zm0 0" fill="#acdee0"/><path d="m389.65625 445.867188-11.3125-11.3125 16.152344-16.152344-32-16 31.847656-31.847656 11.3125 11.3125-16.152344 16.152343 32 16zm0 0" fill="#ffcd34"/><path d="m0 456.210938h480v16h-480zm0 0" fill="#754c24"/><path d="m217.078125 217.429688c0-13.765626-10.742187-24.921876-24-24.921876-13.253906 0-24 11.15625-24 24.921876 0 13.761718 10.746094 24.917968 24 24.917968 13.257813 0 24-11.15625 24-24.917968zm0 0" fill="#6ac9cd"/></svg>