<svg height="480pt" viewBox="0 -4 480 480" width="480pt" xmlns="http://www.w3.org/2000/svg"><path d="m40 408.023438h232v56h-232zm0 0" fill="#226c8a"/><path d="m216 280.023438-88-144-64 24 80 144zm0 0" fill="#ffcd34"/><path d="m374.101562 4.625-37.300781 80.097656c-1.800781 4-.101562 8.703125 3.898438 10.5 1.101562.5 2.199219.703125 3.402343.703125h78.898438c4.398438 0 8-3.5 8-7.902343 0-.300782 0-.699219-.101562-1l-6.898438-54.398438-36.398438-29.601562c-2.800781-3.5-7.800781-4-11.203124-1.300782-1 .800782-1.796876 1.800782-2.296876 2.902344zm0 0" fill="#2f7a92"/><path d="m88 72.023438 240-72.0000005 61.101562 36.6015625c9.398438 5.699219 12.5 17.898438 6.796876 27.300781-.296876.597657-.699219 1.097657-1.097657 1.699219-6.101562 8.199219-17.402343 10.398438-26.199219 5.097656l-24.601562-14.699218-208 72" fill="#ffcd34"/><path d="m368 96.023438h32v32h-32zm0 0" fill="#53a2ab"/><path d="m344 128.023438h80v32h-80zm0 0" fill="#fbb03b"/><path d="m336 160.023438-24 24 32 72h24v-96zm0 0" fill="#ffcd34"/><path d="m432 160.023438 24 24-32 72h-24v-96zm0 0" fill="#ffcd34"/><path d="m56 344.023438h88v64h-88zm0 0" fill="#53a2ab"/><g fill="#2f7a92"><path d="m344 184.023438h24v16h-24zm0 0"/><path d="m352 208.023438h16v16h-16zm0 0"/><path d="m400 184.023438h24v16h-24zm0 0"/><path d="m400 208.023438h16v16h-16zm0 0"/></g><path d="m72 360.023438h16v16h-16zm0 0" fill="#ffcd34"/><path d="m160 383.023438h16v2h-16zm0 0"/><path d="m192 383.023438h16v2h-16zm0 0"/><path d="m0 456.023438h480v16h-480zm0 0" fill="#4d4d4d"/><path d="m136 120.023438c0 26.511718-21.492188 48-48 48s-48-21.488282-48-48c0-26.507813 21.492188-48 48-48s48 21.492187 48 48zm0 0" fill="#2f7a92"/><path d="m104 120.023438c0 8.835937-7.164062 16-16 16s-16-7.164063-16-16c0-8.835938 7.164062-16 16-16s16 7.164062 16 16zm0 0" fill="#ffcd34"/><path d="m184 264.023438c22.101562 0 40 17.902343 40 40v104h-80v-104c0-22.097657 17.898438-40 40-40zm0 0" fill="#2f7a92"/><path d="m200 304.023438c0 8.835937-7.164062 16-16 16s-16-7.164063-16-16c0-8.835938 7.164062-16 16-16s16 7.164062 16 16zm0 0" fill="#ffcd34"/></svg>