<svg height="464pt" viewBox="-40 0 464 464" width="464pt" xmlns="http://www.w3.org/2000/svg"><path d="m16 232h160v232h-160zm0 0" fill="#fbb03b"/><path d="m208 232h160v232h-160zm0 0" fill="#fbb03b"/><g fill="#ffcd34"><path d="m16 288h160v120h-160zm0 0"/><path d="m208 288h160v120h-160zm0 0"/><path d="m112 0h160v232h-160zm0 0"/></g><path d="m112 48h160v120h-160zm0 0" fill="#fbb03b"/><path d="m96 40h192v16h-192zm0 0" fill="#f4e09c"/><path d="m96 160h192v16h-192zm0 0" fill="#f4e09c"/><path d="m178.527344 133.894531c-4.863282-3.644531-8.042969-9.109375-8.808594-15.140625-.761719-6.03125.953125-12.113281 4.753906-16.859375l17.527344-21.894531 17.527344 21.910156c3.800781 4.746094 5.515625 10.828125 4.753906 16.859375-.765625 6.03125-3.945312 11.496094-8.808594 15.140625-7.984375 5.988282-18.964844 5.984375-26.945312-.015625zm0 0" fill="#333"/><path d="m0 280h192v16h-192zm0 0" fill="#f4e09c"/><path d="m0 400h192v16h-192zm0 0" fill="#f4e09c"/><path d="m82.527344 373.894531c-4.863282-3.644531-8.042969-9.109375-8.808594-15.140625-.761719-6.03125.953125-12.113281 4.753906-16.859375l17.527344-21.894531 17.527344 21.910156c3.800781 4.746094 5.515625 10.828125 4.753906 16.859375-.765625 6.03125-3.945312 11.496094-8.808594 15.140625-7.984375 5.988282-18.964844 5.984375-26.945312-.015625zm0 0" fill="#333"/><path d="m192 280h192v16h-192zm0 0" fill="#f4e09c"/><path d="m192 400h192v16h-192zm0 0" fill="#f4e09c"/><path d="m274.527344 373.894531c-4.863282-3.644531-8.042969-9.109375-8.808594-15.140625-.761719-6.03125.953125-12.113281 4.753906-16.859375l17.527344-21.894531 17.527344 21.910156c3.800781 4.746094 5.515625 10.828125 4.753906 16.859375-.765625 6.03125-3.945312 11.496094-8.808594 15.140625-7.984375 5.988282-18.964844 5.984375-26.945312-.015625zm0 0" fill="#333"/></svg>