<svg height="472pt" viewBox="-3 0 471 472" width="472pt" xmlns="http://www.w3.org/2000/svg"><path d="m77.875 0c-9.429688 7.582031-14.394531 19.414062-13.203125 31.457031 1.195313 12.042969 8.386719 22.671875 19.125 28.253907-11.0625 6.929687-14.527344 21.449218-7.785156 32.625 6.742187 11.179687 21.199219 14.886718 32.488281 8.335937 3.632812 2.15625 7.773438 3.304687 12 3.328125 13.253906 0 24-10.746094 24-24-.023438-2.785156-.539062-5.542969-1.519531-8.152344.511719 0 1 .152344 1.519531.152344 13.253906 0 24-10.746094 24-24 .003906-1.632812-.164062-3.257812-.496094-4.855469 9.992188-.609375 19.003906-6.226562 23.945313-14.929687 4.941406-8.707032 5.148437-19.324219.550781-28.214844" fill="#b3b3b3"/><path d="m322.539062 0c-9.425781 7.589844-14.386718 19.425781-13.183593 31.46875s8.402343 22.667969 19.144531 28.242188c-11.0625 6.929687-14.523438 21.449218-7.785156 32.625 6.742187 11.179687 21.199218 14.886718 32.488281 8.335937 3.632813 2.15625 7.777344 3.304687 12 3.328125 13.253906 0 24-10.746094 24-24-.019531-2.785156-.53125-5.542969-1.511719-8.152344.511719 0 .992188.152344 1.511719.152344 13.253906 0 24-10.746094 24-24 0-1.632812-.160156-3.257812-.488281-4.855469 9.988281-.621093 18.984375-6.242187 23.917968-14.945312 4.933594-8.707031 5.136719-19.3125.539063-28.199219" fill="#ccc"/><path d="m224.5 472h-224v-136l224-64zm0 0" fill="#aabbc1"/><path d="m464.5 472h-240v-248l240 72zm0 0" fill="#bdccd4"/><path d="m88.5 310.855469v-206.855469h40v195.433594" fill="#e6e6e6"/><path d="m336.5 144h40v64h-40zm0 0" fill="#e6e6e6"/><path d="m424.5 284v-76h-136v35.199219" fill="#53a2ab"/><path d="m336.5 104h40v40h-40zm0 0" fill="#ed242d"/><path d="m88.5 104h40v40h-40zm0 0" fill="#ed242d"/><path d="m32.5 352h168v16h-168zm0 0" fill="#008fcf"/><path d="m32.5 384h168v16h-168zm0 0" fill="#008fcf"/><path d="m40.5 448h16v24h-16zm0 0" fill="#999"/><path d="m104.5 448h16v24h-16zm0 0" fill="#999"/><path d="m168.5 448h16v24h-16zm0 0" fill="#999"/><path d="m264.5 416h56v56h-56zm0 0" fill="#999"/><path d="m368.5 416h56v56h-56zm0 0" fill="#999"/><g fill="#008fcf"><path d="m256.5 280h16v16h-16zm0 0"/><path d="m288.5 280h16v16h-16zm0 0"/><path d="m320.5 280h16v16h-16zm0 0"/><path d="m256.5 312h16v16h-16zm0 0"/><path d="m288.5 312h16v16h-16zm0 0"/><path d="m320.5 312h16v16h-16zm0 0"/><path d="m352.5 312h16v16h-16zm0 0"/><path d="m384.5 312h16v16h-16zm0 0"/><path d="m416.5 312h16v16h-16zm0 0"/><path d="m256.5 344h48v16h-48zm0 0"/><path d="m320.5 344h48v16h-48zm0 0"/><path d="m384.5 344h48v16h-48zm0 0"/><path d="m256.5 376h48v16h-48zm0 0"/><path d="m320.5 376h48v16h-48zm0 0"/><path d="m384.5 376h48v16h-48zm0 0"/></g></svg>