<svg height="463pt" viewBox="-96 0 463 463.99526" width="463pt" xmlns="http://www.w3.org/2000/svg"><path d="m261.09375 273.898438-124.699219-273.898438-121.402343 266.800781h.101562c-33.800781 67-6.902344 148.800781 60.097656 182.597657 67 33.800781 148.800782 6.902343 182.601563-60.097657 18.199219-36 19.398437-78.300781 3.300781-115.402343zm0 0" fill="#666"/><path d="m124.691406 439.398438c-49.5-5.597657-89.597656-42.898438-98.597656-91.898438-4.199219-23.800781-.5-48.398438 10.398438-69.898438l65.902343-144.902343 14.597657 6.601562-66 145.199219c-24.097657 47.101562-5.398438 104.898438 41.699218 129 10.5 5.398438 22 8.800781 33.703125 10zm0 0" fill="#f2f2f2"/><path d="m153.59375 438.699219-2.402344-15.800781c7.601563-1.199219 15-3.296876 22.101563-6.199219l6.101562 14.800781c-8.203125 3.398438-16.902343 5.800781-25.800781 7.199219zm0 0" fill="#f2f2f2"/><path d="m208.394531 344v-32h-18.402343c-1.097657-3.699219-2.597657-7.300781-4.398438-10.601562l13-13-22.601562-22.597657-13 13c-3.398438-1.800781-7-3.300781-10.597657-4.402343v-18.398438h-32v18.398438c-3.703125 1.101562-7.300781 2.601562-10.601562 4.402343l-13-13-22.601563 22.597657 13 13c-1.796875 3.402343-3.296875 7-4.398437 10.601562h-18.398438v32h18.398438c1.101562 3.699219 2.601562 7.300781 4.398437 10.601562l-13 13 22.601563 22.597657 13-13c3.398437 1.800781 7 3.300781 10.601562 4.402343v18.398438h32v-18.398438c3.699219-1.101562 7.296875-2.601562 10.597657-4.402343l13 13 22.601562-22.597657-13-13c1.800781-3.402343 3.300781-7 4.398438-10.601562zm0 0" fill="#ffcd34"/><path d="m136.394531 359.5c-17.402343 0-31.5-14.101562-31.5-31.5s14.097657-31.5 31.5-31.5c17.398438 0 31.5 14.101562 31.5 31.5s-14.101562 31.5-31.5 31.5zm0-48c-9.101562 0-16.5 7.398438-16.5 16.5s7.398438 16.5 16.5 16.5c9.097657 0 16.5-7.398438 16.5-16.5s-7.402343-16.5-16.5-16.5zm0 0" fill="#226c8a"/></svg>