<svg height="480pt" viewBox="0 -4 480 480" width="480pt" xmlns="http://www.w3.org/2000/svg"><path d="m56.71875 176h70.304688c9.375-.003906 16.976562 7.59375 16.976562 16.96875v279.03125h-104.246094v-279.03125c0-9.371094 7.59375-16.96875 16.964844-16.96875zm0 0" fill="#f2f2f2"/><path d="m39.753906 216h104.246094v112h-104.246094zm0 0" fill="#ccc"/><path d="m16 472h-16v-208c0-13.253906 10.746094-24 24-24h16v16h-16c-4.417969 0-8 3.582031-8 8zm0 0" fill="#4997a5"/><path d="m320 472h-144v-296l72-40 72 40zm0 0" fill="#b3b3b3"/><path d="m208 200h80v48h-80zm0 0" fill="#3fa9f5"/><path d="m208 272h16v16h-16zm0 0" fill="#3fa9f5"/><path d="m240 272h16v16h-16zm0 0" fill="#3fa9f5"/><path d="m272 272h16v16h-16zm0 0" fill="#3fa9f5"/><path d="m208 304h80v16h-80zm0 0" fill="#3fa9f5"/><path d="m184 171.550781v-123.550781h40v101.335938" fill="#e6e6e6"/><path d="m272 149.335938v-101.335938h40v123.550781" fill="#e6e6e6"/><path d="m360 216v-168h40v168" fill="#e6e6e6"/><path d="m320 216h136v128h-136zm0 0" fill="#999"/><path d="m424 344h32v128h-32zm0 0" fill="#4d4d4d"/><g fill="#3fa9f5"><path d="m344 248h16v16h-16zm0 0"/><path d="m376 248h16v16h-16zm0 0"/><path d="m408 248h16v16h-16zm0 0"/><path d="m344 280h16v16h-16zm0 0"/><path d="m376 280h16v16h-16zm0 0"/><path d="m408 280h16v16h-16zm0 0"/></g><path d="m56 232h32v16h-32zm0 0" fill="#f2f2f2"/><path d="m56 256h32v16h-32zm0 0" fill="#f2f2f2"/><path d="m56 280h16v16h-16zm0 0" fill="#f2f2f2"/><path d="m184 0h40v48h-40zm0 0" fill="#ed242d"/><path d="m272 0h40v48h-40zm0 0" fill="#ed242d"/><path d="m360 0h40v48h-40zm0 0" fill="#ed242d"/><path d="m312 72h48v16h-48zm0 0" fill="#ffcd34"/><path d="m224 88h48v16h-48zm0 0" fill="#ffcd34"/><path d="m128 176h-16v-40c0-13.253906 10.746094-24 24-24h48v16h-48c-4.417969 0-8 3.582031-8 8zm0 0" fill="#ffcd34"/><path d="m448 216h-16v-72c0-4.417969-3.582031-8-8-8h-24v-16h24c13.253906 0 24 10.746094 24 24zm0 0" fill="#ffcd34"/><path d="m456 224h24v16h-24zm0 0" fill="#4997a5"/><path d="m456 256h24v16h-24zm0 0" fill="#4997a5"/><path d="m56 40h16v136h-16zm0 0" fill="#e6e6e6"/><path d="m216 328c-4.417969 0-8 3.582031-8 8v136h16v-136c0-4.417969-3.582031-8-8-8zm0 0" fill="#ffcd34"/><path d="m248 328c-4.417969 0-8 3.582031-8 8v136h16v-136c0-4.417969-3.582031-8-8-8zm0 0" fill="#f8cf26"/><path d="m280 328c-4.417969 0-8 3.582031-8 8v136h16v-136c0-4.417969-3.582031-8-8-8zm0 0" fill="#fcee21"/><path d="m408 472h-16v-48c-.027344-22.082031-17.917969-39.972656-40-40h-208v-16h208c30.914062.035156 55.964844 25.085938 56 56zm0 0" fill="#4997a5"/><path d="m376 472h-16v-48c0-4.417969-3.582031-8-8-8h-208v-16h208c13.253906 0 24 10.746094 24 24zm0 0" fill="#2f7a92"/><path d="m208 248 8.800781-2.265625c28.039063-7.175781 53.011719-23.214844 71.199219-45.734375v48zm0 0" fill="#2f7a92"/><path d="m56 40h16v16h-16zm0 0" fill="#ed242d"/></svg>