<svg height="464pt" viewBox="0 -88 464 464" width="464pt" xmlns="http://www.w3.org/2000/svg"><path d="m136 184h-24v64h55.054688c5.484374 0 10.496093 3.097656 12.945312 8s7.460938 8 12.945312 8h87.054688c0-26.507812 21.492188-48 48-48h16v-64h-47.054688c-5.484374 0-10.496093-3.097656-12.945312-8s-7.460938-8-12.945312-8h-87.054688c0 26.507812-21.492188 48-48 48zm0 0" fill="#4997a5"/><path d="m184 72h96v32h-96zm0 0" fill="#4997a5"/><path d="m208 104h48v32h-48zm0 0" fill="#226c8a"/><path d="m216 40h32v32h-32zm0 0" fill="#226c8a"/><path d="m156 0h152c11.046875 0 20 8.953125 20 20s-8.953125 20-20 20h-152c-11.046875 0-20-8.953125-20-20s8.953125-20 20-20zm0 0" fill="#ed242d"/><path d="m344 112h32v144h-32zm0 0" fill="#2f7a92"/><path d="m376 112h32v144h-32zm0 0" fill="#226c8a"/><path d="m408 152h56v64h-56zm0 0" fill="#4997a5"/><path d="m112 288h-32v-144h32zm0 0" fill="#2f7a92"/><path d="m80 288h-32v-144h32zm0 0" fill="#226c8a"/><path d="m48 248h-48v-64h48zm0 0" fill="#4997a5"/><g fill="#226c8a"><path d="m200 160h72v16h-72zm0 0"/><path d="m200 192h48v16h-48zm0 0"/><path d="m248 224h16v16h-16zm0 0"/></g></svg>