<svg height="480pt" viewBox="0 -48 480 479" width="480pt" xmlns="http://www.w3.org/2000/svg"><path d="m24 152.445312h16v63.367188h-16zm0 0" fill="#808080"/><path d="m45.046875 169.582031c-22.054687-7.757812-36.136719-29.378906-34.320313-52.6875 2.371094-33.421875 13.496094-65.632812 32.257813-93.390625 12.957031-19.460937 37.371094-27.777344 59.511719-20.273437l-8.238282 47.9375-23.503906 68.054687zm0 0" fill="#177a96"/><path d="m440 239.8125-366.632812-128.160156 15.671874-45.367188 366.632813 128.160156zm0 0" fill="#f8cf26"/><path d="m416 303.8125c-4.417969 0-8-3.582031-8-8v-88c0-4.417969 3.582031-8 8-8s8 3.582031 8 8v88c0 4.417969-3.582031 8-8 8zm0 0" fill="#808080"/><path d="m8 335.8125h48v40h-48zm0 0" fill="#4997a5"/><path d="m8 215.8125h48v56h-48zm0 0" fill="#4997a5"/><path d="m24 271.8125h16v64h-16zm0 0" fill="#808080"/><path d="m259.753906 135.367188c-2.207031-9.125-10.371094-15.550782-19.753906-15.550782s-17.546875 6.425782-19.753906 15.550782l-52.246094 240.445312h144zm-33.730468 120.445312h27.953124l17.382813 88h-62.71875zm0 0" fill="#fbb03b"/><path d="m384 295.8125h64v80h-64zm0 0" fill="#177a96"/><path d="m0 367.8125h480v16h-480zm0 0" fill="#603813"/><path d="m256 144.445312c0 8.835938-7.164062 16-16 16s-16-7.164062-16-16c0-8.835937 7.164062-16 16-16s16 7.164063 16 16zm0 0" fill="#f8cf26"/></svg>