<svg height="464pt" viewBox="-104 0 464 464" width="464pt" xmlns="http://www.w3.org/2000/svg"><path d="m240 464h-224c-8.835938 0-16-7.164062-16-16v-384c0-8.835938 7.164062-16 16-16h72v-48h80v48h72c8.835938 0 16 7.164062 16 16v384c0 8.835938-7.164062 16-16 16zm0 0" fill="#acdee0"/><g fill="#8cc63f"><path d="m152 368h72v64h-192v-64zm0 0"/><path d="m200 272h24v64h-192v-64zm0 0"/><path d="m216 240h8v-64h-192v64zm0 0"/><path d="m104 144h-72v-64h192v64h-56"/></g><path d="m144 112-72 168 64-16-24 136 88-168-64 8zm0 0" fill="#ffcd34"/></svg>