<svg height="480pt" viewBox="0 -28 480 480" width="480pt" xmlns="http://www.w3.org/2000/svg"><path d="m384 136h80v80h-80zm0 0" fill="#c69c6d"/><path d="m416 136h16v24h-16zm0 0" fill="#a67c52"/><path d="m0 0h64v80h-64" fill="#c69c6d"/><path d="m16 0h16v24h-16zm0 0" fill="#a67c52"/><path d="m188.328125 139.335938 36.984375-70.933594 70.933594 36.984375-36.980469 70.933593zm0 0" fill="#c69c6d"/><path d="m242.644531 104.421875 11.097657-21.28125 14.1875 7.398437-11.097657 21.28125zm0 0" fill="#a67c52"/><path d="m360 240c0 13.253906-10.746094 24-24 24s-24-10.746094-24-24 10.746094-24 24-24 24 10.746094 24 24zm0 0" fill="#ffcd34"/><path d="m88 104c0 13.253906-10.746094 24-24 24s-24-10.746094-24-24 10.746094-24 24-24 24 10.746094 24 24zm0 0" fill="#ffcd34"/><path d="m480 224h-136.199219c-6.402343 0-12.699219-1.5-18.300781-4.398438l-246.800781-127.203124c-5.699219-2.898438-11.898438-4.398438-18.300781-4.398438h-60.398438v-16h60.398438c8.902343 0 17.703124 2.101562 25.601562 6.199219l246.800781 127.101562c3.398438 1.699219 7.097657 2.699219 11 2.699219h136.199219zm0 0" fill="#177a96"/><path d="m480 304h-152l-280-144h-48v-32h56.199219c5.101562 0 10.101562 1.199219 14.699219 3.601562l250.203124 128.898438c4.5 2.300781 9.597657 3.601562 14.699219 3.601562h144.199219zm0 0" fill="#ed242d"/><g fill="#666"><path d="m16 160h32v256h-32zm0 0"/><path d="m192 232v184h-32v-200zm0 0"/><path d="m328 416h-32v-128l32 16zm0 0"/><path d="m432 304h32v112h-32zm0 0"/></g><path d="m0 408.5h480v15h-480zm0 0" fill="#4d4d4d"/></svg>