<svg height="464pt" viewBox="0 0 464 464" width="464pt" xmlns="http://www.w3.org/2000/svg"><path d="m24 0h416v432h-416zm0 0" fill="#ccc"/><path d="m0 432h464v32h-464zm0 0" fill="#666"/><path d="m24 232h416v200h-416zm0 0" fill="#b3b3b3"/><path d="m24 80h416v152h-416zm0 0" fill="#e6e6e6"/><path d="m56 120h112v80h-112zm0 0" fill="#81d0d3"/><path d="m296 120h112v80h-112zm0 0" fill="#81d0d3"/><path d="m208 136c-8.835938 0-16-7.164062-16-16s7.164062-16 16-16 16 7.164062 16 16-7.164062 16-16 16zm0-16" fill="#ffcd34"/><path d="m192 144h32v16h-32zm0 0" fill="#008fcf"/><path d="m192 176h32v16h-32zm0 0" fill="#008fcf"/><path d="m240 112h32v16h-32zm0 0" fill="#008fcf"/><path d="m240 144h32v16h-32zm0 0" fill="#ed242d"/><path d="m240 176h16v16h-16zm0 0" fill="#ed242d"/><path d="m168 120c-20.839844 31.261719-50.675781 55.46875-85.558594 69.425781l-26.441406 10.574219h112zm0 0" fill="#2f7a92"/><path d="m408 120c-20.839844 31.261719-50.675781 55.46875-85.558594 69.425781l-26.441406 10.574219h112zm0 0" fill="#2f7a92"/><path d="m224 0h16v80h-16zm0 0" fill="#999"/><path d="m224 232h16v200h-16zm0 0" fill="#999"/><path d="m56 256h8c4.417969 0 8 3.582031 8 8v8c0 4.417969-3.582031 8-8 8h-8c-4.417969 0-8-3.582031-8-8v-8c0-4.417969 3.582031-8 8-8zm0 0" fill="#ed242d"/><path d="m96 256h8c4.417969 0 8 3.582031 8 8v8c0 4.417969-3.582031 8-8 8h-8c-4.417969 0-8-3.582031-8-8v-8c0-4.417969 3.582031-8 8-8zm0 0" fill="#ed242d"/><path d="m48 296h64v48h-64zm0 0" fill="#81d0d3"/><path d="m144 296h64v48h-64zm0 0" fill="#81d0d3"/><g fill="#ffcd34"><path d="m56 368h16v16h-16zm0 0"/><path d="m88 368h16v16h-16zm0 0"/><path d="m56 400h16v16h-16zm0 0"/><path d="m88 400h16v16h-16zm0 0"/></g><path d="m160 360c-5.691406.015625-10.941406 3.066406-13.777344 8h-10.222656v16h10.222656c3.890625 6.734375 12.054688 9.695312 19.355469 7.027344 7.300781-2.671875 11.625-10.207032 10.25-17.859375-1.375-7.652344-8.054687-13.207031-15.828125-13.167969zm0 0" fill="#177a96"/><path d="m192 368h16v16h-16zm0 0" fill="#ed242d"/><path d="m144 400h64v16h-64zm0 0" fill="#f37720"/><path d="m48 16h16v16h-16zm0 0" fill="#ed242d"/><path d="m88 16h16v16h-16zm0 0" fill="#ed242d"/><path d="m48 48h16v16h-16zm0 0" fill="#ffcd34"/><path d="m88 48h16v16h-16zm0 0" fill="#ffcd34"/><path d="m152 40c0 8.835938-7.164062 16-16 16s-16-7.164062-16-16 7.164062-16 16-16 16 7.164062 16 16zm0 0" fill="#2f7a92"/><path d="m208 40c0 8.835938-7.164062 16-16 16s-16-7.164062-16-16 7.164062-16 16-16 16 7.164062 16 16zm0 0" fill="#2f7a92"/><path d="m288 272c0 8.835938-7.164062 16-16 16s-16-7.164062-16-16 7.164062-16 16-16 16 7.164062 16 16zm0 0" fill="#ffcd34"/><path d="m352 272c0 8.835938-7.164062 16-16 16s-16-7.164062-16-16 7.164062-16 16-16 16 7.164062 16 16zm0 0" fill="#0080a4"/><path d="m416 272c0 8.835938-7.164062 16-16 16s-16-7.164062-16-16 7.164062-16 16-16 16 7.164062 16 16zm0 0" fill="#ed242d"/><path d="m264 304h16v16h-16zm0 0" fill="#213d64"/><path d="m328 304h16v16h-16zm0 0" fill="#213d64"/><path d="m392 304h16v16h-16zm0 0" fill="#213d64"/><path d="m264 344h144v56h-144zm0 0" fill="#81d0d3"/><path d="m256 16h16v16h-16zm0 0" fill="#f37720"/><path d="m296 16h16v16h-16zm0 0" fill="#4ec3c7"/><path d="m336 16h16v16h-16zm0 0" fill="#ffcd34"/><path d="m256 48h24v16h-24zm0 0" fill="#ffcd34"/><path d="m296 48h24v16h-24zm0 0" fill="#7ac943"/><path d="m336 48h16v16h-16zm0 0" fill="#f37720"/><path d="m416 40c0 8.835938-7.164062 16-16 16s-16-7.164062-16-16 7.164062-16 16-16 16 7.164062 16 16zm0 0" fill="#bf0001"/><path d="m48 344s40.664062-2 64-48v48zm0 0" fill="#2f7a92"/><path d="m144 344s40.664062-2 64-48v48zm0 0" fill="#2f7a92"/><path d="m264 400s102-5.335938 144-56v56zm0 0" fill="#2f7a92"/></svg>