<svg height="485pt" viewBox="0 0 485 485.31826" width="485pt" xmlns="http://www.w3.org/2000/svg"><path d="m293.472656 349.316406h32v128h-32zm0 0" fill="#226c8a"/><path d="m141.472656 101.316406c0 22.09375-17.90625 40-40 40-22.089844 0-40-17.90625-40-40 0-22.089844 17.910156-40 40-40 22.09375 0 40 17.910156 40 40zm0 0" fill="#f7931e"/><g fill="#f8cf26"><path d="m101.472656 148.816406c-26.199218 0-47.5-21.296875-47.5-47.5 0-26.199218 21.300782-47.5 47.5-47.5 26.203125 0 47.5 21.300782 47.5 47.5 0 26.203125-21.296875 47.5-47.5 47.5zm0-80c-17.898437 0-32.5 14.601563-32.5 32.5 0 17.902344 14.601563 32.5 32.5 32.5 17.902344 0 32.5-14.597656 32.5-32.5 0-17.898437-14.597656-32.5-32.5-32.5zm0 0"/><path d="m93.972656 5.316406h15v32h-15zm0 0"/><path d="m141.425781 50.714844 22.625-22.625 10.605469 10.605468-22.625 22.628907zm0 0"/><path d="m165.472656 93.816406h32v15h-32zm0 0"/><path d="m141.46875 151.875 10.605469-10.605469 22.628906 22.628907-10.605469 10.605468zm0 0"/><path d="m93.972656 165.316406h15v32h-15zm0 0"/><path d="m28.289062 163.941406 22.625-22.628906 10.609376 10.609375-22.628907 22.625zm0 0"/><path d="m5.472656 93.816406h32v15h-32zm0 0"/><path d="m28.242188 38.738281 10.609374-10.605469 22.625 22.628907-10.605468 10.605469zm0 0"/></g><path d="m389.472656 389.316406h88v88h-88zm0 0" fill="#008fcf"/><path d="m452.574219 433.519531c-1.398438-2.601562-4.101563-4.203125-7.101563-4.203125h-9.097656l7.699219-11.597656-13.300781-8.902344-16 24c-2.5 3.703125-1.5 8.601563 2.199218 11.101563 1.300782.898437 2.902344 1.300781 4.402344 1.300781h9.097656l-7.699218 11.597656 13.300781 8.902344 16-24c1.699219-2.402344 1.800781-5.601562.5-8.199219zm0 0" fill="#ffcd34"/><path d="m397.472656 373.316406h16v16h-16zm0 0" fill="#666"/><path d="m453.472656 373.316406h16v16h-16zm0 0" fill="#666"/><path d="m213.472656 93.816406h72v15h-72zm0 0" fill="#f8cf26"/><path d="m175.355469 185.757812 10.609375-10.605468 36.910156 36.910156-10.605469 10.609375zm0 0" fill="#f8cf26"/><path d="m93.972656 213.316406h15v72h-15zm0 0" fill="#f8cf26"/><path d="m.160156 192.03125 16.828125-16.832031 10.605469 10.609375-16.828125 16.828125zm0 0" fill="#f8cf26"/><path d="m.6875 11.070312 10.605469-10.605468 16.335937 16.332031-10.605468 10.609375zm0 0" fill="#f8cf26"/><path d="m175.351562 16.828125 16.828126-16.828125 10.605468 10.605469-16.828125 16.828125zm0 0" fill="#f8cf26"/><path d="m5.472656 469.316406h480v16h-480zm0 0" fill="#603813"/><path d="m260.875 253.316406h-64l-27.699219 48h64zm0 0" fill="#6ac9cd"/><path d="m388.875 253.316406 27.699219-48h-64l-27.699219 48zm0 0" fill="#4ec3c7"/><path d="m288.574219 205.316406h-64l-27.699219 48h64zm0 0" fill="#4ec3c7"/><path d="m324.875 253.316406 27.699219-48h-64l-27.699219 48zm0 0" fill="#6ac9cd"/><path d="m260.875 253.316406-27.699219 48h64l27.699219-48zm0 0" fill="#4ec3c7"/><path d="m297.175781 301.316406h64l27.699219-48h-64zm0 0" fill="#6ac9cd"/><path d="m361.175781 301.316406h64l27.699219-48h-64zm0 0" fill="#4ec3c7"/><path d="m333.472656 349.316406h64l27.703125-48h-64zm0 0" fill="#6ac9cd"/><path d="m169.175781 301.316406-27.703125 48h64l27.703125-48zm0 0" fill="#4ec3c7"/><path d="m416.574219 205.316406-27.699219 48h64l27.699219-48zm0 0" fill="#6ac9cd"/><path d="m297.175781 301.316406-27.703125 48h64l27.703125-48zm0 0" fill="#4ec3c7"/><path d="m233.175781 301.316406-27.703125 48h64l27.703125-48zm0 0" fill="#6ac9cd"/></svg>