<svg height="480pt" viewBox="0 0 480 480" width="480pt" xmlns="http://www.w3.org/2000/svg"><path d="m0 288h88v96h-88zm0 0" fill="#4997a5"/><path d="m176 224h104v48h-104zm0 0" fill="#4997a5"/><path d="m280 224h104v48h-104zm0 0" fill="#ed242d"/><path d="m176 176h104v48h-104zm0 0" fill="#ed242d"/><path d="m280 176h104v48h-104zm0 0" fill="#ffcd34"/><path d="m280 232-136 40 7.472656 32.375c10.535156 45.65625 39.660156 84.839844 80.34375 108.089844l48.183594 27.535156 48.183594-27.535156c40.683594-23.25 69.808594-62.433594 80.34375-108.089844l7.472656-32.375zm0 0" fill="#226c8a"/><path d="m280 232v208l48.183594-27.535156c40.683594-23.25 69.808594-62.433594 80.34375-108.089844l7.472656-32.375zm0 0" fill="#4997a5"/><path d="m0 368c13.253906 13.257812 34.746094 13.257812 48 0 13.253906 13.257812 34.746094 13.257812 48 0 13.253906 13.257812 34.746094 13.257812 48 0 13.253906 13.257812 34.746094 13.257812 48 0 13.253906 13.257812 34.746094 13.257812 48 0 13.253906 13.257812 34.746094 13.257812 48 0 13.253906 13.257812 34.746094 13.257812 48 0 13.253906 13.257812 34.746094 13.257812 48 0 13.253906 13.257812 34.746094 13.257812 48 0 13.253906 13.257812 34.746094 13.257812 48 0v112h-480zm0 0" fill="#4ec3c7"/><path d="m216 88h120v88h-120zm0 0" fill="#6cbdbd"/><path d="m0 409c13.253906 13.257812 34.746094 13.257812 48 0 13.253906 13.257812 34.746094 13.257812 48 0 13.253906 13.257812 34.746094 13.257812 48 0 13.253906 13.257812 34.746094 13.257812 48 0 13.253906 13.257812 34.746094 13.257812 48 0 13.253906 13.257812 34.746094 13.257812 48 0 13.253906 13.257812 34.746094 13.257812 48 0 13.253906 13.257812 34.746094 13.257812 48 0 13.253906 13.257812 34.746094 13.257812 48 0 13.253906 13.257812 34.746094 13.257812 48 0v71h-480zm0 0" fill="#97d7d9"/><path d="m280 128h104v48h-104zm0 0" fill="#4997a5"/><path d="m24 96h104v48h-104zm0 0" fill="#ffcd34"/><path d="m184 40h192v48h-192zm0 0" fill="#97d7d9"/><g fill="#53a2ab"><path d="m272 0h16v40h-16zm0 0"/><path d="m344 8h16v32h-16zm0 0"/><path d="m200 8h16v32h-16zm0 0"/></g><path d="m208 56h16v16h-16zm0 0" fill="#3fa9f5"/><path d="m240 56h80v16h-80zm0 0" fill="#3fa9f5"/><path d="m336 56h16v16h-16zm0 0" fill="#3fa9f5"/><path d="m72 88c-13.253906 0-24-10.746094-24-24h16c0 4.417969 3.582031 8 8 8s8-3.582031 8-8-3.582031-8-8-8h-8v-56h16v41.367188c11.027344 3.890624 17.644531 15.164062 15.667969 26.691406-1.976563 11.523437-11.972657 19.949218-23.667969 19.941406zm0 0" fill="#2f7a92"/><path d="m0 448v32h480v-30c-13.253906 13.257812-34.746094 13.257812-48 0-13.253906 13.257812-34.746094 13.257812-48 0-13.253906 13.257812-34.746094 13.257812-48 0-13.253906 13.257812-34.746094 13.257812-48 0-13.253906 13.257812-34.746094 13.257812-48 0-13.253906 13.257812-34.746094 13.257812-48 0-13.253906 13.257812-34.746094 13.257812-48 0-13.253906 13.257812-34.746094 13.257812-48 0-13.253906 13.257812-34.746094 13.257812-48 0-13.253906 13.257812-34.746094 13.257812-48 0zm0 0" fill="#c0e5e7"/></svg>