<svg height="480pt" viewBox="0 -27 480 479" width="480pt" xmlns="http://www.w3.org/2000/svg"><path d="m167.992188 377.796875h32v-96h40v-16l-40-128h-80v104h-112v136h56" fill="#ffcd34"/><path d="m308.070312 271.554688 11.921876-77.757813 55.886718-51.761719-18.253906-26.457031-92.960938 67.554687 4.566407 89.910157zm0 0" fill="#ffcd34"/><path d="m7.992188 377.796875v-46.664063h24l56-49.335937h112v96" fill="#fbb03b"/><path d="m167.992188 365.796875c0 28.71875-23.28125 52-52 52s-52-23.28125-52-52 23.28125-52 52-52 52 23.28125 52 52zm0 0" fill="#4d4d4d"/><path d="m135.992188 365.796875c0 11.042969-8.953126 20-20 20-11.046876 0-20-8.957031-20-20 0-11.046875 8.953124-20 20-20 11.046874 0 20 8.953125 20 20zm0 0" fill="#ffcd34"/><path d="m151.992188 169.796875h58l25.007812 80h-83.007812zm0 0" fill="#4ec3c7"/><path d="m79.992188 241.796875h-16v-56c0-8.835937-7.164063-16-16-16h-8v-16h8c17.671874 0 32 14.324219 32 32zm0 0" fill="#226c8a"/><path d="m7.992188 193.796875h32v24h-32zm0 0" fill="#4d4d4d"/><path d="m16 217.796875h16v24h-16zm0 0" fill="#226c8a"/><path d="m319.992188 313.796875-8-24-4.976563-24.890625c-1.753906-8.785156-9.46875-15.113281-18.429687-15.109375-9.480469.003906-17.472657 7.058594-18.648438 16.464844l-5.945312 47.535156h-32v64h48" fill="#fbb03b"/><path d="m199.992188 321.796875h32v40h-32zm0 0" fill="#177a96"/><path d="m415.191406.5-39.3125 34.390625-7.886718 46.90625 32 72h72l-32-32zm0 0" fill="#808080"/><path d="m375.3125 98.253906-13.082031 10.742188c-6.628907 5.414062-8.734375 14.644531-5.101563 22.398437 3.882813 8.332031 13.246094 12.605469 22.085938 10.082031l13.554687-3.871093zm0 0" fill="#666"/><path d="m31.992188 265.796875h16v16h-16zm0 0" fill="#226c8a"/><path d="m183.992188 113.796875h16v24h-16zm0 0" fill="#ed242d"/><path d="m119.992188 113.796875h16v24h-16zm0 0" fill="#ed242d"/><path d="m383.992188 365.796875c0 28.71875-23.28125 52-52 52s-52-23.28125-52-52 23.28125-52 52-52 52 23.28125 52 52zm0 0" fill="#4d4d4d"/><path d="m351.992188 365.796875c0 11.042969-8.953126 20-20 20-11.046876 0-20-8.957031-20-20 0-11.046875 8.953124-20 20-20 11.046874 0 20 8.953125 20 20zm0 0" fill="#ffcd34"/><path d="m0 409.796875h480v16h-480zm0 0" fill="#603813"/></svg>