<svg height="471pt" viewBox="0 -20 471.519 471" width="471pt" xmlns="http://www.w3.org/2000/svg"><path d="m405.101562 155.425781 19.898438 52.402344-8 18.300781-40.800781-57.300781c-4.898438-7.402344-2.898438-17.402344 4.5-22.402344.300781-.199219.699219-.398437 1-.597656 7.800781-4.402344 17.601562-1.601563 22 6.199219.601562 1.101562 1.101562 2.199218 1.402343 3.398437zm0 0" fill="#666"/><path d="m323.101562 11.527344 82.398438 139.398437c5.101562 8.703125 2.300781 19.902344-6.398438 25.101563-.402343.199218-.703124.398437-1.101562.601562-8.300781 4.097656-18.300781 1.5-23.398438-6.203125l-89.902343-134.796875c-7-10.402344-4.097657-24.5 6.300781-31.5.300781-.203125.601562-.402344.898438-.601562 10.703124-6.5 24.703124-3 31.101562 7.800781.101562.097656.101562.097656.101562.199219zm0 0" fill="#ffcd34"/><path d="m71.5 255.828125h112v72h-112c-8.800781 0-16-7.199219-16-16v-40c0-8.800781 7.199219-16 16-16zm0 0" fill="#808080"/><path d="m287.5 327.828125h-104v-144c0-8.800781 7.199219-16 16-16h58.398438c7.800781 0 14.5 5.699219 15.800781 13.398437l13.800781 82.601563zm0 0" fill="#ffcd34"/><path d="m207.5 295.828125v-96c0-4.402344 3.601562-8 8-8h28.898438c3.902343 0 7.300781 2.800781 7.902343 6.699219l11.097657 66.601562c.101562.398438.101562.898438.101562 1.296875v29.402344c0 4.398437-3.601562 8-8 8h-40c-4.398438 0-8-3.601563-8-8zm0 0" fill="#4ec3c7"/><path d="m39.5 359.828125h256c17.699219 0 32 14.300781 32 32s-14.300781 32-32 32h-256c-17.699219 0-32-14.300781-32-32s14.300781-32 32-32zm0 0" fill="#666"/><path d="m71.5 391.828125c0 17.671875-14.328125 32-32 32s-32-14.328125-32-32 14.328125-32 32-32 32 14.328125 32 32zm0 0" fill="#2f7a92"/><path d="m327.5 391.828125c0 17.671875-14.328125 32-32 32s-32-14.328125-32-32 14.328125-32 32-32 32 14.328125 32 32zm0 0" fill="#226c8a"/><path d="m31.5 383.828125h16v16h-16zm0 0" fill="#213d64"/><path d="m287.5 383.828125h16v16h-16zm0 0" fill="#213d64"/><g fill="#0080a4"><path d="m215.5 399.828125h16v16h-16zm0 0"/><path d="m159.5 399.828125h16v16h-16zm0 0"/><path d="m103.5 399.828125h16v16h-16zm0 0"/><path d="m191.5 367.828125h16v16h-16zm0 0"/><path d="m127.5 367.828125h16v16h-16zm0 0"/></g><path d="m103.5 327.828125h128v32h-128zm0 0" fill="#4d4d4d"/><path d="m79.5 255.828125 56-160 156-92.199219c11.101562-6.601562 25.398438-2.902344 32 8.097656 6.699219 11.101563 3.101562 25.402344-8 32.101563l-140 84-32 128zm0 0" fill="#f9c32d"/><path d="m425 207.828125-43.199219 98.898437-38.300781 16.101563c14 15.300781 33.800781 24 54.601562 23.898437 39.597657.902344 72.5-30.5 73.398438-70.097656.699219-30.5-18-58.101562-46.5-68.800781zm0 0" fill="#808080"/><path d="m79.5 271.828125h32v16h-32zm0 0" fill="#f8f8f2"/><path d="m79.5 295.828125h16v16h-16zm0 0" fill="#f8f8f2"/><path d="m207.5 263.828125h56v32c0 4.398437-3.601562 8-8 8h-40c-4.398438 0-8-3.601563-8-8zm0 0" fill="#177a96"/><path d="m295.5 431.328125h-256c-21.800781 0-39.5-17.699219-39.5-39.5s17.699219-39.5 39.5-39.5h256c21.800781 0 39.5 17.699219 39.5 39.5s-17.699219 39.5-39.5 39.5zm-256-64c-13.5 0-24.5 11-24.5 24.5s11 24.5 24.5 24.5h256c13.5 0 24.5-11 24.5-24.5s-11-24.5-24.5-24.5zm0 0" fill="#29485a"/></svg>