<svg height="480pt" viewBox="0 -48 480 480" width="480pt" xmlns="http://www.w3.org/2000/svg"><g fill="#fbb03b"><path d="m184 152c17.671875 0 32 14.328125 32 32v24h-64v-24c0-17.671875 14.328125-32 32-32zm0 0"/><path d="m272 152c17.671875 0 32 14.328125 32 32v24h-64v-24c0-17.671875 14.328125-32 32-32zm0 0"/><path d="m360 152c17.671875 0 32 14.328125 32 32v24h-64v-24c0-17.671875 14.328125-32 32-32zm0 0"/></g><path d="m60 292-12-36-24-8v-40h432c.011719 25.277344-11.46875 49.1875-31.199219 64.984375l-24 19.015625" fill="#226c8a"/><path d="m60 292h340.753906l24-19.015625c6.050782-4.890625 11.390625-10.609375 15.855469-16.984375h-392.609375zm0 0" fill="#ed242d"/><path d="m0 278.054688c13.253906 13.257812 34.746094 13.257812 48 0 13.253906 13.257812 34.746094 13.257812 48 0 13.253906 13.257812 34.746094 13.257812 48 0 13.253906 13.257812 34.746094 13.257812 48 0 13.253906 13.257812 34.746094 13.257812 48 0 13.253906 13.257812 34.746094 13.257812 48 0 13.253906 13.257812 34.746094 13.257812 48 0 13.253906 13.257812 34.746094 13.257812 48 0 13.253906 13.257812 34.746094 13.257812 48 0 13.253906 13.257812 34.746094 13.257812 48 0v105.945312h-480zm0 0" fill="#008fcf"/><path d="m0 320c13.253906 13.257812 34.746094 13.257812 48 0 13.253906 13.257812 34.746094 13.257812 48 0 13.253906 13.257812 34.746094 13.257812 48 0 13.253906 13.257812 34.746094 13.257812 48 0 13.253906 13.257812 34.746094 13.257812 48 0 13.253906 13.257812 34.746094 13.257812 48 0 13.253906 13.257812 34.746094 13.257812 48 0 13.253906 13.257812 34.746094 13.257812 48 0 13.253906 13.257812 34.746094 13.257812 48 0 13.253906 13.257812 34.746094 13.257812 48 0v64h-480zm0 0" fill="#00c9dd"/><path d="m480 366.054688c-13.253906 13.257812-34.746094 13.257812-48 0-13.253906 13.257812-34.746094 13.257812-48 0-13.253906 13.257812-34.746094 13.257812-48 0-13.253906 13.257812-34.746094 13.257812-48 0-13.253906 13.257812-34.746094 13.257812-48 0-13.253906 13.257812-34.746094 13.257812-48 0-13.253906 13.257812-34.746094 13.257812-48 0-13.253906 13.257812-34.746094 13.257812-48 0-13.253906 13.257812-34.746094 13.257812-48 0-13.253906 13.257812-34.746094 13.257812-48 0v17.945312h480zm0 0" fill="#97d7d9"/><path d="m48 120h40v88h-40zm0 0" fill="#999"/><path d="m32 72h88v48h-88zm0 0" fill="#ccc"/><path d="m88 88h32v16h-32zm0 0" fill="#4ec3c7"/><path d="m72 136h8v16h-8zm0 0" fill="#4ec3c7"/><path d="m72 168h16v16h-16zm0 0" fill="#4ec3c7"/><path d="m400 136h-32v-8h-16v8h-72v-8h-16v8h-72v-8h-16v8h-32c-17.671875 0-32 14.328125-32 32v40h16v-40c0-8.835938 7.164062-16 16-16h256c8.835938 0 16 7.164062 16 16v40h16v-40c0-17.671875-14.328125-32-32-32zm0 0" fill="#177a96"/><path d="m184 152c-14.558594.027344-27.257812 9.898438-30.871094 24h61.742188c-3.613282-14.101562-16.3125-23.972656-30.871094-24zm0 0" fill="#ffcd34"/><path d="m272 152c-14.558594.027344-27.257812 9.898438-30.871094 24h61.742188c-3.613282-14.101562-16.3125-23.972656-30.871094-24zm0 0" fill="#ffcd34"/><path d="m360 152c-14.558594.027344-27.257812 9.898438-30.871094 24h61.742188c-3.613282-14.101562-16.3125-23.972656-30.871094-24zm0 0" fill="#ffcd34"/><path d="m80 32h16v40h-16zm0 0" fill="#e6e6e6"/><path d="m56 40-48-16 48-24zm0 0" fill="#ed242d"/><path d="m48 0h16v72h-16zm0 0" fill="#e6e6e6"/></svg>