<svg height="480pt" viewBox="0 -84 480 480" width="480pt" xmlns="http://www.w3.org/2000/svg"><path d="m0 296h480v16h-480zm0 0" fill="#666"/><path d="m408 160 48 48h-136v16h-160v-16h-136l40-48zm0 0" fill="#226c8a"/><path d="m24 208h136v32h-136zm0 0" fill="#2f7a92"/><path d="m320 208h136v32h-136zm0 0" fill="#2f7a92"/><path d="m216 176h-112c-39.765625 0-72-32.234375-72-72s32.234375-72 72-72h272c39.765625 0 72 32.234375 72 72s-32.234375 72-72 72h-112" fill="#ffcd34"/><path d="m96 152h32v56h-32zm0 0" fill="#0080a4"/><path d="m344 152h32v56h-32zm0 0" fill="#0080a4"/><path d="m128 0h64v32h-64zm0 0" fill="#fbb03b"/><path d="m288 0h64v32h-64zm0 0" fill="#fbb03b"/><path d="m264 24h-48c-4.417969 0-8 3.582031-8 8v224c0 4.417969 3.582031 8 8 8h48c4.417969 0 8-3.582031 8-8v-224c0-4.417969-3.582031-8-8-8zm-8 16v16h-32v-16zm-32 144v-16h32v16zm32 16v16h-32v-16zm-32-48v-16h32v16zm0-32v-16h32v16zm0-32v-16h32v16zm0 160v-16h32v16zm0 0" fill="#53a2ab"/><path d="m72 272c0 17.671875-14.328125 32-32 32s-32-14.328125-32-32 14.328125-32 32-32 32 14.328125 32 32zm0 0" fill="#333"/><path d="m176 272c0 17.671875-14.328125 32-32 32s-32-14.328125-32-32 14.328125-32 32-32 32 14.328125 32 32zm0 0" fill="#333"/><path d="m368 272c0 17.671875-14.328125 32-32 32s-32-14.328125-32-32 14.328125-32 32-32 32 14.328125 32 32zm0 0" fill="#333"/><path d="m472 272c0 17.671875-14.328125 32-32 32s-32-14.328125-32-32 14.328125-32 32-32 32 14.328125 32 32zm0 0" fill="#333"/><g fill="#226c8a"><path d="m40 272h104l16-32h-136zm0 0"/><path d="m336 272h104l16-32h-136zm0 0"/><path d="m72 56h56v16h-56zm0 0"/><path d="m72 88h40v16h-40zm0 0"/><path d="m288 72h80v16h-80zm0 0"/><path d="m288 96h48v16h-48zm0 0"/><path d="m288 120h24v16h-24zm0 0"/></g><path d="m159.128906 64-20.6875 33.335938c-6.574218 9.863281-5.277344 23 3.101563 31.382812 9.71875 9.726562 25.484375 9.726562 35.199219 0 8.386718-8.382812 9.6875-21.515625 3.113281-31.382812zm0 0" fill="#1a1a1a"/></svg>