<svg height="480pt" viewBox="0 -24 480 480" width="480pt" xmlns="http://www.w3.org/2000/svg"><path d="m344 200h112v168h-112zm0 0" fill="#c69c6d"/><path d="m376 232h48v104h-48zm0 0" fill="#a67c52"/><path d="m376 336 48-104v104zm0 0" fill="#8c6239"/><path d="m328 360h152v16h-152zm0 0" fill="#ed242d"/><path d="m200 368h-192v-144c0-13.253906 10.746094-24 24-24h32v-104h136l96 184zm0 0" fill="#ffcd34"/><path d="m96 312v-32h96l56-24v68l-48 44h-104zm0 0" fill="#e8b542"/><path d="m312 288v-288h32v368" fill="#ed242d"/><path d="m144 368c0 30.929688-25.070312 56-56 56s-56-25.070312-56-56 25.070312-56 56-56 56 25.070312 56 56zm0 0" fill="#4d4d4d"/><path d="m112 368c0 13.253906-10.746094 24-24 24s-24-10.746094-24-24 10.746094-24 24-24 24 10.746094 24 24zm0 0" fill="#ffcd34"/><path d="m344 352c0 39.765625-32.234375 72-72 72s-72-32.234375-72-72 32.234375-72 72-72 72 32.234375 72 72zm0 0" fill="#4d4d4d"/><path d="m312 352c0 22.089844-17.910156 40-40 40s-40-17.910156-40-40 17.910156-40 40-40 40 17.910156 40 40zm0 0" fill="#ffcd34"/><path d="m96 128v152h96l56-24-64-128zm0 0" fill="#0080a4"/><path d="m184 128 8 152 56-24zm0 0" fill="#4ec3c7"/><path d="m32 224h40v16h-40zm0 0" fill="#2f7a92"/><path d="m32 256h40v16h-40zm0 0" fill="#2f7a92"/><path d="m0 416h480v16h-480zm0 0" fill="#333"/></svg>