<svg height="480pt" viewBox="0 -84 480 480" width="480pt" xmlns="http://www.w3.org/2000/svg"><path d="m8 208h304v48h-304zm0 0" fill="#226c8a"/><path d="m472 256h-160v-184c0-8.835938 7.164062-16 16-16h113.871094c8.070312 0 14.878906 6.007812 15.882812 14.015625l14.246094 113.984375zm0 0" fill="#0080a4"/><path d="m208 264c0 22.089844-17.910156 40-40 40s-40-17.910156-40-40 17.910156-40 40-40 40 17.910156 40 40zm0 0" fill="#666"/><path d="m440 264c0 22.089844-17.910156 40-40 40s-40-17.910156-40-40 17.910156-40 40-40 40 17.910156 40 40zm0 0" fill="#666"/><path d="m100 24h96c50.808594 0 92 41.191406 92 92s-41.191406 92-92 92h-96c-50.808594 0-92-41.191406-92-92s41.191406-92 92-92zm0 0" fill="#ffcd34"/><path d="m112 0h72v24h-72zm0 0" fill="#fbb03b"/><path d="m168 16h-40c-4.417969 0-8 3.582031-8 8v184c0 4.417969 3.582031 8 8 8h40c4.417969 0 8-3.582031 8-8v-184c0-4.417969-3.582031-8-8-8zm-8 16v16h-24v-16zm-24 112v-16h24v16zm24 16v16h-24v-16zm-24-48v-16h24v16zm0-32v-16h24v16zm0 120v-8h24v8zm0 0" fill="#4997a5"/><path d="m460 88h-116v80h126zm0 0" fill="#acdee0"/><path d="m440 192h32v32h-32zm0 0" fill="#f2f2f2"/><path d="m112 264c0 22.089844-17.910156 40-40 40s-40-17.910156-40-40 17.910156-40 40-40 40 17.910156 40 40zm0 0" fill="#666"/><g fill="#53a2ab"><path d="m72 248c-8.835938 0-16 7.164062-16 16s7.164062 16 16 16 16-7.164062 16-16-7.164062-16-16-16z"/><path d="m168 280c-8.835938 0-16-7.164062-16-16s7.164062-16 16-16 16 7.164062 16 16-7.164062 16-16 16z"/><path d="m400 280c-8.835938 0-16-7.164062-16-16s7.164062-16 16-16 16 7.164062 16 16-7.164062 16-16 16z"/></g><path d="m0 296h480v16h-480zm0 0" fill="#603813"/></svg>