<?xml version="1.0" encoding="utf-8"?>
<!-- Generator: Adobe Illustrator 23.0.4, SVG Export Plug-In . SVG Version: 6.00 Build 0)  -->
<svg version="1.1" id="Layer_35" xmlns="http://www.w3.org/2000/svg" xmlns:xlink="http://www.w3.org/1999/xlink" x="0px" y="0px"
	 viewBox="0 0 512 512" style="enable-background:new 0 0 512 512;" xml:space="preserve">
<style type="text/css">
	.st0{fill:#FF9900;}
</style>
<path class="st0" d="M464,8H160c-22.1,0-40,17.9-40,40v56H24v96H8v208c0,52.9,43.1,96,96,96h360c22.1,0,40-17.9,40-40V48
	C504,25.9,486.1,8,464,8z M40,120h128v80H40V120z M184,184h80v112h-64v-96h-16V184z M200,312h160v80H200V312z M376,312h80v80h-80
	V312z M456,296H280V184h176V296z M456,168h-80V56h80V168z M360,168H184v-64h-16V56h192V168z M184,216v32H24v-32H184z M24,408V264
	h160v144c0,44.1-35.9,80-80,80S24,452.1,24,408z M488,464c0,13.2-10.8,24-24,24H157c25.9-17.2,43-46.6,43-80h256c8.8,0,16-7.2,16-16
	V56c0-8.8-7.2-16-16-16H168c-8.8,0-16,7.2-16,16v48h-16V48c0-13.2,10.8-24,24-24h304c13.2,0,24,10.8,24,24V464z M360,472h112v-48
	H360V472z M376,440h80v16h-80V440z M240,424c-13.2,0-24,10.8-24,24s10.8,24,24,24s24-10.8,24-24S253.2,424,240,424z M240,456
	c-4.4,0-8-3.6-8-8s3.6-8,8-8s8,3.6,8,8S244.4,456,240,456z M304,424c-13.2,0-24,10.8-24,24s10.8,24,24,24s24-10.8,24-24
	S317.2,424,304,424z M304,456c-4.4,0-8-3.6-8-8s3.6-8,8-8s8,3.6,8,8S308.4,456,304,456z M104,344c-35.3,0-64,28.7-64,64
	s28.7,64,64,64s64-28.7,64-64S139.3,344,104,344z M104,456c-26.5,0-48-21.5-48-48s21.5-48,48-48s48,21.5,48,48S130.5,456,104,456z
	 M344,72H200v80h144V72z M328,136H216V88h112V136z M440,120h-16v-16h16V120z M440,152h-16v-16h16V152z M392,152v-16h16v16H392z
	 M408,120h-16v-16h16V120z M440,88h-16V72h16V88z M408,88h-16V72h16V88z M216,328v48h128v-48H216z M328,360h-96v-16h96V360z
	 M424,328h16v16h-16V328z M392,328h16v16h-16V328z M440,280v-80H296v80H440z M312,216h112v48H312V216z M392,360h16v16h-16V360z
	 M424,360h16v16h-16V360z M248,216h-16v-16h16V216z M248,248h-16v-16h16V248z M248,280h-16v-16h16V280z M56,136h32v16H56V136z
	 M152,136v16h-32v-16H152z"/>
</svg>
