<?xml version="1.0" encoding="utf-8"?>
<!-- Generator: Adobe Illustrator 23.0.4, SVG Export Plug-In . SVG Version: 6.00 Build 0)  -->
<svg version="1.1" id="Layer_35" xmlns="http://www.w3.org/2000/svg" xmlns:xlink="http://www.w3.org/1999/xlink" x="0px" y="0px"
	 viewBox="0 0 512 512" style="enable-background:new 0 0 512 512;" xml:space="preserve">
<style type="text/css">
	.st0{fill:#FF9900;}
</style>
<path class="st0" d="M312,96c0-48.5-39.5-88-88-88c-29.9,0-57.3,15.1-73.4,39.8c-9.2-5-19.6-7.8-30.6-7.8c-35.3,0-64,28.7-64,64v0.6
	C28.9,108.5,8,131.8,8,160c0,30.9,25.1,56,56,56h120v32H8v256h320V360h176V104H311.6C311.8,101.3,312,98.7,312,96z M64,200
	c-22.1,0-40-17.9-40-40s17.9-40,39.7-40l10.1,0l-1.3-9.1c-0.4-2.7-0.6-4.9-0.6-6.9c0-26.5,21.5-48,48-48c21,0,39.4,13.4,45.8,33.4
	l15.2-4.8c-3.4-10.8-9.6-20.1-17.5-27.4C176.7,36.6,199.3,24,224,24c39.7,0,72,32.3,72,72c0,2.7-0.2,5.4-0.4,8H184v96L64,200z
	 M312,264v48H24v-48H312z M24,488V328h288v160H24z M328,344v-96H200v-64h288v160H328z M488,168H200v-48h288V168z M56,296H40v-16h16
	V296z M88,296H72v-16h16V296z M120,296h-16v-16h16V296z M232,152h-16v-16h16V152z M264,152h-16v-16h16V152z M296,152h-16v-16h16V152
	z M132.5,412c7.1-7.2,11.5-17.1,11.5-28c0-22.1-17.9-40-40-40s-40,17.9-40,40c0,10.9,4.4,20.7,11.5,28C54.7,420.2,40,440.4,40,464v8
	h128v-8C168,440.4,153.3,420.2,132.5,412z M104,360c13.2,0,24,10.8,24,24s-10.8,24-24,24s-24-10.8-24-24S90.8,360,104,360z
	 M56.8,456c3.7-18.2,19.9-32,39.2-32h16c19.3,0,35.5,13.8,39.2,32H56.8z M436.5,268c7.1-7.2,11.5-17.1,11.5-28c0-22.1-17.9-40-40-40
	s-40,17.9-40,40c0,10.9,4.4,20.7,11.5,28c-20.7,8.2-35.5,28.4-35.5,52v8h128v-8C472,296.4,457.3,276.2,436.5,268z M408,216
	c13.2,0,24,10.8,24,24s-10.8,24-24,24s-24-10.8-24-24S394.8,216,408,216z M360.8,312c3.7-18.2,19.9-32,39.2-32h16
	c19.3,0,35.5,13.8,39.2,32H360.8z M344,216H216v-16h128V216z M184,344h112v16H184V344z M184,376h112v16H184V376z M184,408h112v16
	H184V408z M280,440h16v16h-16V440z M248,440h16v16h-16V440z M216,440h16v16h-16V440z"/>
</svg>
