<?xml version="1.0" encoding="utf-8"?>
<!-- Generator: Adobe Illustrator 23.0.4, SVG Export Plug-In . SVG Version: 6.00 Build 0)  -->
<svg version="1.1" id="Layer_35" xmlns="http://www.w3.org/2000/svg" xmlns:xlink="http://www.w3.org/1999/xlink" x="0px" y="0px"
	 viewBox="0 0 512 512" style="enable-background:new 0 0 512 512;" xml:space="preserve">
<style type="text/css">
	.st0{fill:#FF9900;}
</style>
<path class="st0" d="M391.1,149.5l1.7,15.9c-5.4,0.6-10.8,1.1-16.2,1.5l-1.1-16C380.7,150.5,385.9,150,391.1,149.5z M406.6,147.5
	l2.4,15.8c5.5-0.8,10.8-1.8,16.1-2.8l-3.1-15.7C417,145.8,411.8,146.7,406.6,147.5L406.6,147.5z M437.2,141.3l4,15.5
	c5.4-1.4,10.7-2.9,15.8-4.6l-4.9-15.2C447.3,138.6,442.3,140,437.2,141.3L437.2,141.3z M406.6,275.5l2.4,15.8
	c5.5-0.8,10.8-1.8,16.1-2.8l-3.1-15.7C417,273.8,411.8,274.7,406.6,275.5L406.6,275.5z M375.4,278.9l1.1,16
	c5.5-0.4,10.9-0.9,16.2-1.5l-1.7-15.9C385.9,278,380.7,278.5,375.4,278.9z M437.2,269.3l4,15.5c5.4-1.4,10.7-2.9,15.8-4.6l-4.9-15.2
	C447.3,266.6,442.3,268,437.2,269.3L437.2,269.3z M504,72v192c0,41.2-81,63.6-157.9,64c-20.2,38-60.1,64-106.1,64
	c-24.1,0-46.4-7.2-65.3-19.4L159.3,388l12,12l-91.7,91.7c-7.9,7.9-18.5,12.3-29.7,12.3C26.8,504,8,485.2,8,462.1
	c0-11.2,4.4-21.7,12.3-29.7l91.7-91.7l12,12l15.4-15.4C127.2,318.4,120,296.1,120,272c0-45.9,26-85.9,64-106V72
	c0-41.6,82.4-64,160-64S504,30.4,504,72z M148.7,400L112,363.3l-80.4,80.4c-4.9,4.9-7.6,11.4-7.6,18.3c0,14.3,11.6,25.9,25.9,25.9
	c6.9,0,13.4-2.7,18.3-7.6L148.7,400z M161.8,362.9c-4.5-3.9-8.8-8.2-12.7-12.7L135.3,364l12.7,12.7L161.8,362.9z M344,272
	c0-57.3-46.7-104-104-104s-104,46.7-104,104s46.7,104,104,104S344,329.3,344,272z M488,264v-34.9c-25,20.8-76.2,32.6-128.4,34.6
	c0.2,2.8,0.4,5.5,0.4,8.3c0,14-2.5,27.3-6.9,39.8C433,310.1,488,285.9,488,264z M488,200v-34.9c-27.7,22.8-87.1,34.9-144,34.9
	c-2.8,0-5.6-0.2-8.4-0.3c10.6,14,18.3,30.2,22,48C434.7,245.1,488,221,488,200z M488,136v-34.9c-27.7,22.8-87.1,34.9-144,34.9
	s-116.3-12.1-144-34.9V159c12.5-4.4,26-7,40-7c31,0,59.2,11.9,80.5,31.2c7.8,0.4,15.6,0.8,23.5,0.8C428.9,184,488,158.7,488,136z
	 M488,72c0-22.7-59.1-48-144-48S200,49.3,200,72s59.1,48,144,48S488,94.7,488,72z M456,72c0,31.1-100.5,32-112,32s-112-0.9-112-32
	s100.5-32,112-32S456,40.9,456,72z M439.6,72c-5.7-6.1-40.1-16-95.6-16s-89.8,9.9-95.6,16c5.7,6.1,40.1,16,95.6,16
	S433.8,78.1,439.6,72z M8,72C8,36.7,36.7,8,72,8h32c35.3,0,64,28.7,64,64v64H72C36.7,136,8,107.3,8,72z M24,72c0,26.5,21.5,48,48,48
	h80V72c0-26.5-21.5-48-48-48H72C45.5,24,24,45.5,24,72z M504,400c0,30.9-25.1,56-56,56h-48c-30.9,0-56-25.1-56-56v-56h104
	C478.9,344,504,369.1,504,400z M488,400c0-22.1-17.9-40-40-40h-88v40c0,22.1,17.9,40,40,40h48C470.1,440,488,422.1,488,400z M136,88
	h-16V40h-16v48H88V56H72v32H56V40H40v64h96V88z M328,272c0,48.5-39.5,88-88,88s-88-39.5-88-88s39.5-88,88-88S328,223.5,328,272z
	 M240,200c-13.2,0-25.6,3.6-36.2,9.9c11.2,15.4,47.5,31.2,103.4,36.4C296.8,219.3,270.6,200,240,200z M240,344
	c19.1,0,36.4-7.5,49.3-19.7C224.8,315.5,184,292.5,184,264v-37.2c-10,12.4-16,28.1-16,45.2C168,311.7,200.3,344,240,344z M312,272
	c0-3.2-0.3-6.3-0.7-9.3c-50.3-4-90.4-16.4-111.3-33.8V264c0,17,35.5,38.4,101.2,45.7C308,298.7,312,285.8,312,272z M392,376h-16v16
	h16V376z M424,376h-16v16h16V376z M376,424h96v-16h-96V424z M456,376h-16v16h16V376z"/>
</svg>
