<?xml version="1.0" encoding="utf-8"?>
<!-- Generator: Adobe Illustrator 23.0.4, SVG Export Plug-In . SVG Version: 6.00 Build 0)  -->
<svg version="1.1" id="Layer_35" xmlns="http://www.w3.org/2000/svg" xmlns:xlink="http://www.w3.org/1999/xlink" x="0px" y="0px"
	 viewBox="0 0 512 512" style="enable-background:new 0 0 512 512;" xml:space="preserve">
<style type="text/css">
	.st0{fill:#FF9900;}
</style>
<path class="st0" d="M472,224h-38.3l16.6-16.6l-11.9-19.7c1.2-2.6,2.3-5.3,3.3-8l22.4-5.5v-60.5l-22.4-5.5c-1-2.7-2.1-5.3-3.3-8
	l11.9-19.7l-42.8-42.8l-19.7,11.9c-2.6-1.2-5.3-2.3-8-3.3L374.3,24h-60.5l-5.5,22.4c-2.7,1-5.3,2.1-8,3.3l-19.7-11.9l-42.8,42.8
	l12.1,19.9c-2.3,5.5-5.4,13.9-7.4,19.5h-96.2c13.3-11.7,21.8-28.9,21.8-48c0-35.3-28.7-64-64-64S40,36.7,40,72
	c0,20.1,9.4,38.1,24,49.9c-32,7.3-56,36-56,70.1v80c0,22.1,17.9,40,40,40v160c0,17.6,14.4,32,32,32c9.6,0,18.1-4.3,24-11.1
	c5.9,6.7,14.4,11.1,24,11.1c17.6,0,32-14.4,32-32V184c0-4.4,3.6-8,8-8h77.3c1.3,3.5,3,8,4.5,11.6l-12,19.9l16.5,16.6H216v32h-32v224
	h129c3.6,13.8,16.1,24,31,24s27.4-10.2,31-24h129V256h-32V224z M456,240v192H352V264h22.3l5.5-22.4c2.7-1,5.3-2.1,8-3.3l19.7,11.9
	l10.2-10.3H456z M56,72c0-26.5,21.5-48,48-48s48,21.5,48,48s-21.5,48-48,48S56,98.5,56,72z M144,184v288c0,8.8-7.2,16-16,16
	s-16-7.2-16-16V280H96v192c0,8.8-7.2,16-16,16s-16-7.2-16-16V168H48v128c-13.2,0-24-10.8-24-24v-80c0-30.9,25.1-56,56-56h188
	c6.6,0,12,5.4,12,12s-5.4,12-12,12H168C154.8,160,144,170.8,144,184z M289.7,130.5C295.8,105.7,318,88,344,88c30.9,0,56,25.1,56,56
	s-25.1,56-56,56c-23.6,0-44.5-15.1-52.5-36.9c2.8-4.4,4.5-9.5,4.5-15.1C296,141.3,293.6,135.3,289.7,130.5z M268,176
	c3.7,0,7.3-0.8,10.5-2.1c11.6,25.2,37.1,42.1,65.5,42.1c39.7,0,72-32.3,72-72s-32.3-72-72-72c-31.4,0-58.6,20.2-68.3,49.2
	c-2.5-0.7-5-1.2-7.7-1.2h-8.6c2.7-7.2,5.4-14.4,6.5-16.4l2.1-4l-10-16.6L283,57.9l16.6,10l4-2.1c4.6-2.4,9.2-4.3,13.8-5.8l4.3-1.4
	l4.6-18.8h35.5l4.6,18.8l4.3,1.4c4.6,1.4,9.2,3.4,13.8,5.8l4,2.1l16.6-10L430.1,83l-10,16.6l2.1,4c2.4,4.6,4.3,9.2,5.8,13.8l1.4,4.3
	l18.8,4.6v35.5l-18.8,4.6l-1.4,4.3c-1.5,4.6-3.4,9.2-5.8,13.8l-2.1,4l10,16.6L405,230.1l-16.6-10l-4,2.1c-4.6,2.4-9.2,4.3-13.8,5.8
	l-4.3,1.4l-4.6,18.8h-35.5l-4.6-18.8l-4.3-1.4c-4.6-1.5-9.2-3.4-13.8-5.8l-4-2.1l-16.6,10L257.9,205l10-16.6l-2.1-4
	c-0.8-1.6-2.1-4.8-3.5-8.4L268,176L268,176z M232,240h38.3l10.3,10.3l19.7-11.9c2.6,1.2,5.3,2.3,8,3.3l5.5,22.4H336v168H232V240z
	 M488,272v192H360v8c0,8.8-7.2,16-16,16s-16-7.2-16-16v-8H200V272h16v176h256V272H488z M344,184c22.1,0,40-17.9,40-40
	s-17.9-40-40-40s-40,17.9-40,40S321.9,184,344,184z M344,120c13.2,0,24,10.8,24,24s-10.8,24-24,24s-24-10.8-24-24S330.8,120,344,120
	z M392,272h48v16h-48V272z M368,304h72v16h-72V304z M368,336h72v16h-72V336z M368,368h72v16h-72V368z M368,400h72v16h-72V400z
	 M296,288h-48v-16h48V288z M320,304v16h-72v-16H320z M248,336h72v16h-72V336z M248,368h72v16h-72V368z M248,400h72v16h-72V400z"/>
</svg>
