<?xml version="1.0" encoding="utf-8"?>
<!-- Generator: Adobe Illustrator 23.0.4, SVG Export Plug-In . SVG Version: 6.00 Build 0)  -->
<svg version="1.1" id="Layer_35" xmlns="http://www.w3.org/2000/svg" xmlns:xlink="http://www.w3.org/1999/xlink" x="0px" y="0px"
	 viewBox="0 0 512 512" style="enable-background:new 0 0 512 512;" xml:space="preserve">
<style type="text/css">
	.st0{fill:#FF9900;}
</style>
<path class="st0" d="M464,472h-32v-16h32V472z M464,424h-32v16h32V424z M48,280h32v-16H48V280z M48,248h32v-16H48V248z M344,8h160
	v112H344V72h-32c-13.2,0-24,10.8-24,24v48h56c13.2,0,24,10.8,24,24v16c0,13.2-10.8,24-24,24h-1.5c0.9,2.5,1.5,5.2,1.5,8
	s-0.6,5.5-1.5,8h1.5c13.2,0,24,10.8,24,24h40v-48h96v112h-96v-48h-40c0,13.2-10.8,24-24,24h-1.5c0.9,2.5,1.5,5.2,1.5,8
	s-0.6,5.5-1.5,8h1.5c13.2,0,24,10.8,24,24v16c0,13.2-10.8,24-24,24h-56v48c0,13.2,10.8,24,24,24h80.6c3.9-27.1,27.2-48,55.4-48
	c30.9,0,56,25.1,56,56s-25.1,56-56,56c-28.2,0-51.5-20.9-55.4-48H312c-22.1,0-40-17.9-40-40v-48h-32v48c0,22.1-17.9,40-40,40h-32v48
	H8V392h160v48h32c13.2,0,24-10.8,24-24v-48h-56c-13.2,0-24-10.8-24-24v-16c0-13.2,10.8-24,24-24h1.5c-0.9-2.5-1.5-5.2-1.5-8
	s0.6-5.5,1.5-8H168c-13.2,0-24-10.8-24-24h-24.6c-3.9,27.1-27.2,48-55.4,48c-30.9,0-56-25.1-56-56s25.1-56,56-56
	c28.2,0,51.5,20.9,55.4,48H144c0-13.2,10.8-24,24-24h1.5c-0.9-2.5-1.5-5.2-1.5-8s0.6-5.5,1.5-8H168c-13.2,0-24-10.8-24-24v-16
	c0-13.2,10.8-24,24-24h56v-40c0-13.2-10.8-24-24-24h-45.3L88,130L10.7,72L88,14l66.7,50H200c22.1,0,40,17.9,40,40v40h32V96
	c0-22.1,17.9-40,40-40h32V8z M138.7,72L88,34L37.3,72L88,110L138.7,72z M104,256c0-22.1-17.9-40-40-40s-40,17.9-40,40s17.9,40,40,40
	S104,278.1,104,256z M152,408H24v80h128V408z M408,448c0,22.1,17.9,40,40,40s40-17.9,40-40s-17.9-40-40-40S408,425.9,408,448z
	 M424,296h64v-80h-64V296z M344,320h-24H192h-24c-4.4,0-8,3.6-8,8v16c0,4.4,3.6,8,8,8h176c4.4,0,8-3.6,8-8v-16
	C352,323.6,348.4,320,344,320z M320,288H192c-4.4,0-8,3.6-8,8s3.6,8,8,8h128c4.4,0,8-3.6,8-8S324.4,288,320,288z M344,240h-24H192
	h-24c-4.4,0-8,3.6-8,8v16c0,4.4,3.6,8,8,8h24h128h24c4.4,0,8-3.6,8-8v-16C352,243.6,348.4,240,344,240z M320,208H192
	c-4.4,0-8,3.6-8,8s3.6,8,8,8h128c4.4,0,8-3.6,8-8S324.4,208,320,208z M344,160H168c-4.4,0-8,3.6-8,8v16c0,4.4,3.6,8,8,8h24h128h24
	c4.4,0,8-3.6,8-8v-16C352,163.6,348.4,160,344,160z M360,104h128V24H360V104z M56,424H40v16h16V424z M88,424H72v16h16V424z M136,424
	h-32v16h32V424z M136,456H40v16h96V456z M376,56h96V40h-96V56z M376,88h96V72h-96V88z M64,80h48V64H64V80z M440,248h32v-16h-32V248z
	 M440,280h32v-16h-32V280z"/>
</svg>
