<svg id="Layer_35" enable-background="new 0 0 64 64" height="512" viewBox="0 0 64 64" width="512" xmlns="http://www.w3.org/2000/svg" xmlns:xlink="http://www.w3.org/1999/xlink"><linearGradient id="SVGID_1_" gradientUnits="userSpaceOnUse" x1="32" x2="32" y1="63" y2="1"><stop offset="0" stop-color="#9f2fff"/><stop offset="1" stop-color="#0bb1d3"/></linearGradient><path d="m35 11h-30v38h13.426c-.192.675-.322 1.375-.381 2.096-2.301.448-4.045 2.474-4.045 4.904h-13v7h13 30 19v-7h-19c0-2.336-1.617-4.287-3.785-4.833.244-.811.696-1.553 1.326-2.167h17.459v-24h4v-24h-28zm-6 16.589c-.726.295-1.398.692-2 1.176v-5.765h2zm3 1.411c3.309 0 6 2.691 6 6s-2.691 6-6 6-6-2.691-6-6 2.691-6 6-6zm1 14h2.687c2.404 0 4.664-.936 6.364-2.636l7.828-7.828c.345-.346.804-.536 1.292-.536 1.009 0 1.829.82 1.829 1.836 0 .485-.188.942-.53 1.287l-12.257 12.37c-1.01.947-1.69 2.172-2.005 3.507h-18.149c.5-4.493 4.317-8 8.941-8zm-30 18v-3h11v3zm58-3v3h-17v-3zm-19-2v5h-26v-5c0-1.654 1.346-3 3-3h20c1.654 0 3 1.346 3 3zm15-9h-13.484l10.375-10.469c.715-.721 1.109-1.678 1.109-2.702 0-2.112-1.717-3.829-3.829-3.829-1.022 0-1.984.398-2.707 1.122l-7.828 7.828c-.868.868-1.926 1.474-3.078 1.792 1.503-1.455 2.442-3.49 2.442-5.742 0-4.411-3.589-8-8-8-.339 0-.672.028-1 .069v-6.069h-6v10.136c-.636 1.147-1 2.463-1 3.864 0 2.498 1.152 4.73 2.951 6.199-3.38.64-6.212 2.83-7.737 5.801h-12.214v-34h28v12h22zm-20-44h24v20h-24zm-22 22h-6v8h6zm-2 6h-2v-4h2zm4 2h6v-18h-6zm2-16h2v14h-2zm30-12c-4.411 0-8 3.589-8 8s3.589 8 8 8 8-3.589 8-8-3.589-8-8-8zm-1 2.09v4.91h-4.91c.424-2.507 2.403-4.486 4.91-4.91zm-4.91 6.91h5.496l3.885 3.885c-.981.699-2.177 1.115-3.471 1.115-2.967 0-5.431-2.167-5.91-5zm10.795 2.471-3.885-3.885v-5.496c2.833.478 5 2.942 5 5.91 0 1.294-.416 2.49-1.115 3.471zm-42.885 20.529h-2v-2h2zm2 0v-2h2v2zm4-2h2v2h-2zm-8 4h10v2h-10zm0 4h10v2h-10z" fill="url(#SVGID_1_)"/></svg>