<?xml version="1.0" encoding="utf-8"?>
<!-- Generator: Adobe Illustrator 23.0.4, SVG Export Plug-In . SVG Version: 6.00 Build 0)  -->
<svg version="1.1" id="Layer_35" xmlns="http://www.w3.org/2000/svg" xmlns:xlink="http://www.w3.org/1999/xlink" x="0px" y="0px"
	 viewBox="0 0 512 512" style="enable-background:new 0 0 512 512;" xml:space="preserve">
<style type="text/css">
	.st0{fill:#FF9900;}
</style>
<path class="st0" d="M280,88H40v304h107.4c-1.5,5.4-2.6,11-3,16.8C126,412.4,112,428.6,112,448H8v56h104h240h152v-56H352
	c0-18.7-12.9-34.3-30.3-38.7c2-6.5,5.6-12.4,10.6-17.3H472V200h32V8H280V88z M232,220.7c-5.8,2.4-11.2,5.5-16,9.4V184h16V220.7z
	 M256,232c26.5,0,48,21.5,48,48c0,26.5-21.5,48-48,48s-48-21.5-48-48S229.5,232,256,232z M264,344h21.5c19.2,0,37.3-7.5,50.9-21.1
	l62.6-62.6c2.8-2.8,6.4-4.3,10.3-4.3c8.1,0,14.6,6.6,14.6,14.7c0,3.9-1.5,7.5-4.2,10.3l-98.1,99c-8.1,7.6-13.5,17.4-16,28.1H160.5
	c4-35.9,34.5-64,71.5-64L264,344z M24,488v-24h88v24H24z M488,464v24H352v-24H488z M336,448v40H128v-40c0-13.2,10.8-24,24-24h160
	C325.2,424,336,434.8,336,448z M456,376H348.1l83-83.8c5.7-5.8,8.9-13.4,8.9-21.6c0-16.9-13.7-30.6-30.6-30.6
	c-8.2,0-15.9,3.2-21.7,9l-62.6,62.6c-6.9,6.9-15.4,11.8-24.6,14.3c12-11.6,19.5-27.9,19.5-45.9c0-35.3-28.7-64-64-64
	c-2.7,0-5.4,0.2-8,0.6V168h-48v81.1c-5.1,9.2-8,19.7-8,30.9c0,20,9.2,37.8,23.6,49.6c-27,5.1-49.7,22.6-61.9,46.4H56V104h224v96h176
	L456,376z M296,24h192v160H296V24z M120,200H72v64h48V200z M104,248H88v-32h16V248z M136,264h48V120h-48V264z M152,136h16v112h-16
	V136z M392,40c-35.3,0-64,28.7-64,64s28.7,64,64,64s64-28.7,64-64S427.3,40,392,40z M384,56.7V96h-39.3
	C348.1,75.9,363.9,60.1,384,56.7z M344.7,112h44l31.1,31.1c-7.8,5.6-17.4,8.9-27.8,8.9C368.3,152,348.6,134.7,344.7,112L344.7,112z
	 M431.1,131.8L400,100.7v-44c22.7,3.8,40,23.5,40,47.3C440,114.4,436.7,123.9,431.1,131.8z M88,296H72v-16h16V296z M104,296v-16h16
	v16H104z M136,280h16v16h-16V280z M72,312h80v16H72V312z M72,344h80v16H72V344z"/>
</svg>
