<?xml version="1.0" encoding="utf-8"?>
<!-- Generator: Adobe Illustrator 23.0.4, SVG Export Plug-In . SVG Version: 6.00 Build 0)  -->
<svg version="1.1" id="Layer_35" xmlns="http://www.w3.org/2000/svg" xmlns:xlink="http://www.w3.org/1999/xlink" x="0px" y="0px"
	 viewBox="0 0 512 512" style="enable-background:new 0 0 512 512;" xml:space="preserve">
<style type="text/css">
	.st0{fill:#FF9900;}
</style>
<path class="st0" d="M472,192c0-22.1-17.9-40-40-40H224c-6.3,0-12.1,1.6-17.4,4.2c-12.1-14-27.2-24.4-44.2-30.3
	C180.2,114.5,192,94.6,192,72c0-35.3-28.7-64-64-64S64,36.7,64,72c0,22.7,11.9,42.6,29.7,53.9C53.2,140.2,24,178.7,24,224v40H8v240
	h496V264h-32V192z M272,392v-32h112v32H272z M224,344c-13.2,0-24-10.8-24-24v-8h256v8c0,13.2-10.8,24-24,24H224z M432,168
	c13.2,0,24,10.8,24,24v104H200V192c0-13.2,10.8-24,24-24H432z M80,72c0-26.5,21.5-48,48-48s48,21.5,48,48s-21.5,48-48,48
	S80,98.5,80,72z M40,224c0-48.5,39.5-88,88-88c25.6,0,49.2,10.9,65.9,29.9c-6.1,7-9.9,16.1-9.9,26.1v72H80v-72H64v72H40V224z
	 M24,488v-32h464v32H24z M488,280v160H24V280h160v40c0,22.1,17.9,40,40,40h32v32h-32v16h208v-16h-32v-32h32c22.1,0,40-17.9,40-40
	v-40H488z M112,296c-24.3,0-72,9.7-72,32v64c0,22.3,47.7,32,72,32s72-9.7,72-32v-64C184,305.7,136.3,296,112,296z M112,312
	c27.2,0,53.8,10.6,56,16c-2.1,5.4-28.8,16-56,16c-27.4,0-54.3-10.8-56-15.8v-0.1C57.7,322.8,84.6,312,112,312z M56,347.7
	c16.1,8.4,40.7,12.3,56,12.3c15.3,0,39.9-3.8,56-12.3v12.1c-1.6,5.3-28.5,16.2-56,16.2c-27.5,0-54.4-10.8-56-16V347.7z M112,408
	c-27.5,0-54.4-10.8-56-16v-12.3c16.1,8.4,40.7,12.3,56,12.3c15.3,0,39.9-3.8,56-12.3v12.1C166.4,397.2,139.5,408,112,408z M232,40
	c-13.2,0-24,10.8-24,24s10.8,24,24,24c4.9,0,9.5-1.5,13.3-4l27.9,20.9c-0.7,2.3-1.2,4.6-1.2,7.1c0,13.2,10.8,24,24,24s24-10.8,24-24
	c0-3.7-0.9-7.2-2.4-10.3l32.1-32.1c3.1,1.5,6.6,2.4,10.3,2.4s7.2-0.9,10.3-2.4l16.1,16.1c-1.5,3.1-2.4,6.6-2.4,10.3
	c0,13.2,10.8,24,24,24s24-10.8,24-24c0-3.7-0.9-7.2-2.4-10.3l32.1-32.1c3.1,1.5,6.6,2.4,10.3,2.4c13.2,0,24-10.8,24-24
	S485.2,8,472,8s-24,10.8-24,24c0,3.7,0.9,7.2,2.4,10.3l-32.1,32.1c-3.1-1.5-6.6-2.4-10.3-2.4s-7.2,0.9-10.3,2.4l-16.1-16.1
	c1.5-3.1,2.4-6.6,2.4-10.3c0-13.2-10.8-24-24-24s-24,10.8-24,24c0,3.7,0.9,7.2,2.4,10.3l-32.1,32.1c-3.1-1.5-6.6-2.4-10.3-2.4
	c-4.9,0-9.5,1.5-13.3,4l-27.9-20.9c0.7-2.3,1.2-4.6,1.2-7.1C256,50.8,245.2,40,232,40L232,40z M232,72c-4.4,0-8-3.6-8-8s3.6-8,8-8
	s8,3.6,8,8S236.4,72,232,72z M472,24c4.4,0,8,3.6,8,8s-3.6,8-8,8s-8-3.6-8-8S467.6,24,472,24z M416,96c0,4.4-3.6,8-8,8s-8-3.6-8-8
	s3.6-8,8-8S416,91.6,416,96z M360,40c4.4,0,8,3.6,8,8s-3.6,8-8,8s-8-3.6-8-8S355.6,40,360,40z M296,104c4.4,0,8,3.6,8,8s-3.6,8-8,8
	s-8-3.6-8-8S291.6,104,296,104z M432,264h-16v-80h-48v80h-16v-48h-48v48h-16v-64h-48v64h-16v16h208V264z M384,200h16v64h-16V200z
	 M320,232h16v32h-16V232z M256,216h16v48h-16V216z"/>
</svg>
