<svg height="512pt" viewBox="0 0 512 512.00001" width="512pt" xmlns="http://www.w3.org/2000/svg"><path d="m206.136719 74.753906-179.570313 238.476563 23.945313 18.109375 175.898437-232.535156zm0 0" fill="#ffde00"/><path d="m122.472656 481.980469h314.136719v30.019531h-314.136719zm0 0" fill="#ffde00"/><path d="m345.242188 481.980469h91.367187v30.019531h-91.367187zm0 0" fill="#ffbc17"/><path d="m481.976562 166.738281v271.738281h30.019532l-.078125-271.738281zm0 0" fill="#ffbc17"/><path d="m230.003906 389.480469c0 59.378906-48.140625 107.507812-107.53125 107.507812-59.378906 0-107.519531-48.128906-107.519531-107.507812 0-59.378907 48.140625-107.511719 107.519531-107.511719 59.390625 0 107.53125 48.132812 107.53125 107.511719zm0 0" fill="#aab5c6"/><path d="m230.003906 389.480469c0 59.378906-48.140625 107.507812-107.53125 107.507812v-215.019531c59.390625 0 107.53125 48.132812 107.53125 107.511719zm0 0" fill="#909fb4"/><path d="m209.121094 302.851562c-23.886719-23.890624-55.265625-35.832031-86.648438-35.832031-31.378906 0-62.746094 11.941407-86.636718 35.832031-47.78125 47.769532-47.78125 125.488282 0 173.269532 23.890624 23.878906 55.257812 35.820312 86.636718 35.820312 31.382813 0 62.761719-11.941406 86.648438-35.820312 47.773437-47.78125 47.773437-125.5 0-173.269532zm-21.226563 152.039063c-18.042969 18.039063-41.730469 27.058594-65.421875 27.050781-23.699218 0-47.367187-9.019531-65.40625-27.050781-36.070312-36.070313-36.070312-94.75 0-130.820313 18.027344-18.03125 41.71875-27.050781 65.40625-27.050781 23.691406 0 47.390625 9.019531 65.421875 27.050781 36.070313 36.070313 36.070313 94.75 0 130.820313zm0 0" fill="#697e97"/><path d="m497.148438 166.738281c0 83.882813-68.007813 151.890625-151.90625 151.890625-83.890626 0-151.910157-68.007812-151.910157-151.890625 0-83.886719 68.019531-151.886719 151.910157-151.886719 83.898437 0 151.90625 68 151.90625 151.886719zm0 0" fill="#aab5c6"/><path d="m497.148438 166.738281c0 83.882813-68.007813 151.890625-151.90625 151.890625v-303.777344c83.898437 0 151.90625 68 151.90625 151.886719zm0 0" fill="#909fb4"/><path d="m378.519531 166.738281c0 18.371094-14.898437 33.273438-33.277343 33.273438-18.382813 0-33.28125-14.902344-33.28125-33.273438 0-18.378906 14.898437-33.277343 33.28125-33.277343 18.378906 0 33.277343 14.898437 33.277343 33.277343zm0 0" fill="#e3eeff"/><path d="m378.519531 166.738281c0 18.371094-14.898437 33.273438-33.277343 33.273438v-66.550781c18.378906 0 33.277343 14.898437 33.277343 33.277343zm0 0" fill="#d7e2f2"/><path d="m463.160156 48.839844c-31.5-31.5-73.378906-48.839844-117.917968-48.839844-44.539063 0-86.417969 17.339844-117.910157 48.839844-65.019531 65.011718-65.019531 170.789062 0 235.800781 31.492188 31.488281 73.371094 48.839844 117.910157 48.839844 44.539062 0 86.417968-17.351563 117.917968-48.839844 65.011719-65.011719 65.011719-170.789063 0-235.800781zm-21.230468 214.570312c-25.828126 25.828125-60.167969 40.050782-96.6875 40.050782-36.519532 0-70.859376-14.222657-96.6875-40.050782-53.3125-53.300781-53.3125-140.039062 0-193.351562 25.828124-25.820313 60.167968-40.039063 96.6875-40.039063 36.519531 0 70.859374 14.21875 96.6875 40.039063 53.308593 53.3125 53.308593 140.050781 0 193.351562zm0 0" fill="#697e97"/><path d="m496.988281 436.621094c0 33.339844-27.027343 60.367187-60.378906 60.367187-33.339844 0-60.367187-27.027343-60.367187-60.367187s27.03125-60.359375 60.367187-60.359375c33.351563 0 60.378906 27.019531 60.378906 60.359375zm0 0" fill="#aab5c6"/><path d="m496.988281 436.621094c0 33.339844-27.027343 60.367187-60.378906 60.367187v-120.726562c33.351563 0 60.378906 27.019531 60.378906 60.359375zm0 0" fill="#909fb4"/><path d="m436.609375 361.25c-41.558594 0-75.378906 33.808594-75.378906 75.371094 0 41.570312 33.820312 75.378906 75.378906 75.378906 41.570313 0 75.390625-33.808594 75.390625-75.378906 0-41.5625-33.820312-75.371094-75.390625-75.371094zm0 120.730469c-25.007813 0-45.359375-20.339844-45.359375-45.359375 0-25.011719 20.351562-45.351563 45.359375-45.351563 25.023437 0 45.371094 20.339844 45.371094 45.351563 0 25.019531-20.351563 45.359375-45.371094 45.359375zm0 0" fill="#697e97"/><path d="m360.089844 75.351562c.019531 8.25-6.617188 14.949219-14.847656 15.027344h-.132813c-13.429687.03125-26.609375 3.582032-38.136719 10.269532-2.382812 1.382812-4.972656 2.03125-7.53125 2.03125-5.171875 0-10.210937-2.679688-12.992187-7.46875-4.160157-7.171876-1.726563-16.359376 5.441406-20.519532 16.089844-9.339844 34.46875-14.292968 53.167969-14.320312h.019531.160156c8.214844.089844 14.84375 6.75 14.851563 14.980468zm0 0" fill="#697e97"/><path d="m451.621094 166.527344c0-8.289063-6.71875-15.007813-15.007813-15.007813-8.289062 0-15.011719 6.71875-15.011719 15.007813v.210937c0 13.421875-3.527343 26.621094-10.203124 38.160157-4.148438 7.175781-1.695313 16.355468 5.480468 20.503906 2.367188 1.371094 4.949219 2.019531 7.5 2.019531 5.183594 0 10.226563-2.6875 13.007813-7.496094 9.3125-16.101562 14.234375-34.492187 14.234375-53.1875zm0 0" fill="#38506e"/><path d="m398.480469 258.839844c-16.089844 9.332031-34.480469 14.261718-53.179688 14.269531 0 0 0 0-.007812 0h-.050781c-8.261719-.03125-14.949219-6.738281-14.960938-15 0-8.28125 6.699219-14.988281 14.960938-15.019531h.039062c13.429688-.011719 26.621094-3.539063 38.160156-10.21875 7.179688-4.152344 16.359375-1.710938 20.511719 5.46875 4.15625 7.171875 1.707031 16.351562-5.472656 20.5zm0 0" fill="#697e97"/><path d="m307.117188 232.910156c-11.59375-6.695312-21.273438-16.355468-27.992188-27.941406-4.15625-7.167969-13.34375-9.609375-20.511719-5.453125-7.171875 4.15625-9.617187 13.339844-5.457031 20.511719 9.34375 16.113281 22.8125 29.558594 38.945312 38.875 2.367188 1.367187 4.945313 2.015625 7.492188 2.015625 5.1875 0 10.230469-2.691407 13.011719-7.503907 4.148437-7.179687 1.691406-16.355468-5.488281-20.503906zm0 0" fill="#697e97"/><path d="m268.882812 166.84375v-.105469c0-13.394531 3.511719-26.5625 10.15625-38.085937 4.144532-7.179688 1.679688-16.355469-5.5-20.496094-7.183593-4.144531-16.359374-1.679688-20.503906 5.5-9.269531 16.074219-14.171875 34.429688-14.171875 53.082031v.105469c0 8.289062 6.71875 15.007812 15.007813 15.007812 8.289062 0 15.011718-6.71875 15.011718-15.007812zm0 0" fill="#697e97"/><path d="m383.292969 100.519531c11.601562 6.683594 21.292969 16.332031 28.023437 27.910157 2.785156 4.792968 7.816406 7.46875 12.988282 7.46875 2.5625 0 5.15625-.660157 7.53125-2.039063 7.164062-4.164063 9.597656-13.351563 5.429687-20.515625-9.363281-16.105469-22.84375-29.535156-38.988281-38.832031-7.1875-4.136719-16.363282-1.667969-20.5 5.511719-4.136719 7.183593-1.667969 16.359374 5.515625 20.496093zm0 0" fill="#38506e"/><path d="m155.042969 389.480469c0 17.980469-14.578125 32.558593-32.570313 32.558593-17.980468 0-32.558594-14.578124-32.558594-32.558593s14.578126-32.558594 32.558594-32.558594c17.992188 0 32.570313 14.578125 32.570313 32.558594zm0 0" fill="#e3eeff"/><path d="m155.042969 389.480469c0 17.980469-14.578125 32.558593-32.570313 32.558593v-65.117187c17.992188 0 32.570313 14.578125 32.570313 32.558594zm0 0" fill="#d7e2f2"/><path d="m345.242188 119.128906c-26.25 0-47.609376 21.359375-47.609376 47.609375s21.359376 47.613281 47.609376 47.613281c26.261718 0 47.621093-21.363281 47.621093-47.613281s-21.363281-47.609375-47.621093-47.609375zm0 65.199219c-9.699219 0-17.601563-7.886719-17.601563-17.589844 0-9.699219 7.902344-17.597656 17.601563-17.597656 9.699218 0 17.601562 7.898437 17.601562 17.597656 0 9.703125-7.902344 17.589844-17.601562 17.589844zm0 0" fill="#697e97"/><path d="m122.472656 341.871094c-26.25 0-47.609375 21.359375-47.609375 47.609375s21.359375 47.609375 47.609375 47.609375c26.261719 0 47.621094-21.359375 47.621094-47.609375s-21.359375-47.609375-47.621094-47.609375zm0 65.207031c-9.699218 0-17.589844-7.898437-17.589844-17.597656s7.890626-17.589844 17.589844-17.589844c9.710938 0 17.601563 7.890625 17.601563 17.589844s-7.890625 17.597656-17.601563 17.597656zm0 0" fill="#697e97"/><path d="m451.621094 431.621094v10.007812c0 8.292969-6.71875 15.011719-15.011719 15.011719-8.289063 0-15.007813-6.71875-15.007813-15.011719v-10.007812c0-8.292969 6.71875-15.011719 15.007813-15.011719 8.292969 0 15.011719 6.71875 15.011719 15.011719zm0 0" fill="#697e97"/><g fill="#38506e"><path d="m345.242188 90.378906v-30.007812c8.210937.089844 14.839843 6.75 14.851562 14.980468.015625 8.25-6.621094 14.949219-14.851562 15.027344zm0 0"/><path d="m392.859375 166.738281c0 26.25-21.359375 47.613281-47.617187 47.613281v-30.023437c9.699218 0 17.597656-7.886719 17.597656-17.589844 0-9.699219-7.898438-17.597656-17.597656-17.597656v-30.011719c26.257812 0 47.617187 21.359375 47.617187 47.609375zm0 0"/><path d="m345.292969 273.109375h-.050781v-30.019531h.039062c13.429688-.011719 26.621094-3.539063 38.160156-10.21875 7.179688-4.152344 16.359375-1.710938 20.511719 5.46875 4.160156 7.171875 1.707031 16.351562-5.472656 20.5-16.089844 9.332031-34.476563 14.261718-53.175781 14.269531-.003907 0-.003907 0-.011719 0zm0 0"/><path d="m463.160156 284.640625c-31.5 31.488281-73.378906 48.839844-117.917968 48.839844v-30.019531c36.519531 0 70.859374-14.222657 96.6875-40.050782 53.308593-53.300781 53.308593-140.039062 0-193.351562-25.828126-25.820313-60.167969-40.039063-96.6875-40.039063v-30.019531c44.539062 0 86.417968 17.339844 117.917968 48.839844 65.011719 65.011718 65.011719 170.789062 0 235.800781zm0 0"/><path d="m170.09375 389.480469c0 26.25-21.359375 47.609375-47.621094 47.609375v-30.011719c9.710938 0 17.601563-7.898437 17.601563-17.597656s-7.890625-17.589844-17.601563-17.589844v-30.019531c26.261719 0 47.621094 21.359375 47.621094 47.609375zm0 0"/><path d="m209.121094 476.121094c-23.886719 23.878906-55.265625 35.820312-86.648438 35.820312v-30c23.691406.007813 47.382813-9.011718 65.421875-27.050781 36.070313-36.070313 36.070313-94.75 0-130.820313-18.03125-18.03125-41.730469-27.050781-65.421875-27.050781v-30c31.382813 0 62.761719 11.941407 86.648438 35.832031 47.773437 47.769532 47.773437 125.488282 0 173.269532zm0 0"/><path d="m436.609375 456.640625v-40.03125c8.292969 0 15.011719 6.71875 15.011719 15.011719v10.007812c0 8.292969-6.71875 15.011719-15.011719 15.011719zm0 0"/><path d="m512 436.621094c0 41.570312-33.820312 75.378906-75.390625 75.378906v-30.019531c25.023437 0 45.371094-20.339844 45.371094-45.359375 0-25.011719-20.347657-45.351563-45.371094-45.351563v-30.019531c41.570313 0 75.390625 33.808594 75.390625 75.371094zm0 0"/></g></svg>