<svg id="Flat" height="512" viewBox="0 0 64 64" width="512" xmlns="http://www.w3.org/2000/svg"><g id="Stroke_copy_2" data-name="Stroke copy 2"><path d="m61 61h-58v-16l8.06-8h42.77l7.17 8z" fill="#93999a"/><path d="m25 45h36a0 0 0 0 1 0 0v12a0 0 0 0 1 0 0h-24a12 12 0 0 1 -12-12 0 0 0 0 1 0 0z" fill="#d0d8da"/><path d="m3 61h16v-16l-7.94-8-8.06 8z" fill="#656b76"/><path d="m61 45h-42l-8-8h42.83z" fill="#f9e109"/><path d="m40 42a5 5 0 0 1 -5-5h-24l8 8h42l-2.69-3z" fill="#fcbc04"/><path d="m44 41h-20v-6l3-4h14l3 4z" fill="#93999a"/><path d="m41 35h3a0 0 0 0 1 0 0v4a0 0 0 0 1 0 0h-1a2 2 0 0 1 -2-2v-2a0 0 0 0 1 0 0z" fill="#d0d8da"/><path d="m36 35h3a0 0 0 0 1 0 0v4a0 0 0 0 1 0 0h-1a2 2 0 0 1 -2-2v-2a0 0 0 0 1 0 0z" fill="#d0d8da"/><path d="m31 35h3a0 0 0 0 1 0 0v4a0 0 0 0 1 0 0h-1a2 2 0 0 1 -2-2v-2a0 0 0 0 1 0 0z" fill="#d0d8da"/><path d="m26 35h3a0 0 0 0 1 0 0v4a0 0 0 0 1 0 0h-1a2 2 0 0 1 -2-2v-2a0 0 0 0 1 0 0z" fill="#d0d8da"/><path d="m41 31h-14l-3 4h20z" fill="#fcbc04"/><path d="m32 33h10.5l-1.5-2h-11a2 2 0 0 0 2 2z" fill="#f9e109"/><path d="m44 19h6v18h-6z" fill="#93999a"/><path d="m47 19h3a0 0 0 0 1 0 0v14a0 0 0 0 1 0 0 3 3 0 0 1 -3-3v-11a0 0 0 0 1 0 0z" fill="#d0d8da"/><path d="m31 19h6v12h-6z" fill="#93999a"/><path d="m34 19h3a0 0 0 0 1 0 0v10a0 0 0 0 1 0 0 3 3 0 0 1 -3-3v-7a0 0 0 0 1 0 0z" fill="#d0d8da"/><path d="m18 19h6v18h-6z" fill="#93999a"/><path d="m21 19h3a0 0 0 0 1 0 0v14a0 0 0 0 1 0 0 3 3 0 0 1 -3-3v-11a0 0 0 0 1 0 0z" fill="#d0d8da"/><path d="m7 49h8v12h-8z" fill="#57b7eb"/><path d="m7 49v12h8v-4a8 8 0 0 1 -8-8z" fill="#4891d3"/><path d="m24 50h8v6h-8z" fill="#57b7eb"/><path d="m26.1 50h-2.1v6h8v-.1a12.09 12.09 0 0 1 -5.9-5.9z" fill="#4891d3"/><g fill="#57b7eb"><path d="m36 50h8v6h-8z"/><path d="m48 50h8v6h-8z"/><path d="m26 7a3 3 0 0 0 -2.92 2.32 2 2 0 1 0 .66 2.68 3 3 0 1 0 2.26-5z"/><path d="m40 7a3 3 0 0 0 -2.92 2.32 2 2 0 1 0 .66 2.68 3 3 0 1 0 2.26-5z"/><path d="m55 9a3 3 0 0 0 -2.92 2.32 2 2 0 1 0 .66 2.68 3 3 0 1 0 2.26-5z"/></g><path d="m27 11a3 3 0 0 1 -2.26-1 2 2 0 0 1 -1.74 1 2 2 0 0 1 -2-1.74 2 2 0 0 0 1 3.74 2 2 0 0 0 1.74-1 3 3 0 0 0 5.26-1.76 3 3 0 0 1 -2 .76z" fill="#4891d3"/><path d="m41 11a3 3 0 0 1 -2.26-1 2 2 0 0 1 -1.74 1 2 2 0 0 1 -2-1.74 2 2 0 0 0 1 3.74 2 2 0 0 0 1.74-1 3 3 0 0 0 5.26-1.76 3 3 0 0 1 -2 .76z" fill="#4891d3"/><path d="m56 13a3 3 0 0 1 -2.26-1 2 2 0 0 1 -1.74 1 2 2 0 0 1 -2-1.74 2 2 0 0 0 1 3.74 2 2 0 0 0 1.74-1 3 3 0 0 0 5.26-1.76 3 3 0 0 1 -2 .76z" fill="#4891d3"/><path d="m7 52h8v2h-8z" fill="#2d72bc"/><path d="m7 57h8v2h-8z" fill="#2d72bc"/><path d="m27 50h2v6h-2z" fill="#d0d8da"/><path d="m39 50h2v6h-2z" fill="#d0d8da"/><path d="m51 50h2v6h-2z" fill="#d0d8da"/><path d="m27 51.6v4.4h2v-2.09a12.26 12.26 0 0 1 -2-2.31z" fill="#93999a"/><path d="m7.59 52a7.84 7.84 0 0 0 1.17 2h6.24v-2z" fill="#4891d3"/></g></svg>