<svg height="512" viewBox="0 0 64 64" width="512" xmlns="http://www.w3.org/2000/svg"><path d="m43 7h9a3 3 0 0 1 3 3 3 3 0 0 1 -3 3h-6a3 3 0 0 1 -3-3v-3a0 0 0 0 1 0 0z" fill="#4891d3"/><path d="m46 19h6a4 4 0 0 1 4 4v6a0 0 0 0 1 0 0h-14a0 0 0 0 1 0 0v-6a4 4 0 0 1 4-4z" fill="#a1d51c"/><path d="m47 17h4a0 0 0 0 1 0 0v4a2 2 0 0 1 -2 2 2 2 0 0 1 -2-2v-4a0 0 0 0 1 0 0z" fill="#fcbc04"/><path d="m47 20.86a4.09 4.09 0 0 0 1 .14 4 4 0 0 0 3-1.38v-2.62h-4z" fill="#e59730"/><path d="m45 11h8a0 0 0 0 1 0 0v4a4 4 0 0 1 -4 4 4 4 0 0 1 -4-4v-4a0 0 0 0 1 0 0z" fill="#f9e109"/><path d="m44 21v-1.45a4 4 0 0 0 -2 3.45v6h14v-2h-6a6 6 0 0 1 -6-6z" fill="#7ab92d"/><path d="m48 9h6.82a3 3 0 0 0 -2.82-2h-6a2 2 0 0 0 2 2z" fill="#57b7eb"/><path d="m47 15a2 2 0 0 1 2-2h4v-2h-8v4a4 4 0 0 0 4 4 4.09 4.09 0 0 0 1-.14 4 4 0 0 1 -3-3.86z" fill="#fcbc04"/><path d="m9 7h9a3 3 0 0 1 3 3 3 3 0 0 1 -3 3h-6a3 3 0 0 1 -3-3v-3a0 0 0 0 1 0 0z" fill="#4891d3"/><path d="m12 19h6a4 4 0 0 1 4 4v6a0 0 0 0 1 0 0h-14a0 0 0 0 1 0 0v-6a4 4 0 0 1 4-4z" fill="#a1d51c"/><path d="m13 17h4a0 0 0 0 1 0 0v4a2 2 0 0 1 -2 2 2 2 0 0 1 -2-2v-4a0 0 0 0 1 0 0z" fill="#fcbc04"/><path d="m13 20.86a4.09 4.09 0 0 0 1 .14 4 4 0 0 0 3-1.38v-2.62h-4z" fill="#e59730"/><path d="m11 11h8a0 0 0 0 1 0 0v4a4 4 0 0 1 -4 4 4 4 0 0 1 -4-4v-4a0 0 0 0 1 0 0z" fill="#f9e109"/><path d="m10 21v-1.45a4 4 0 0 0 -2 3.45v6h14v-2h-6a6 6 0 0 1 -6-6z" fill="#7ab92d"/><path d="m14 9h6.82a3 3 0 0 0 -2.82-2h-6a2 2 0 0 0 2 2z" fill="#57b7eb"/><path d="m13 15a2 2 0 0 1 2-2h4v-2h-8v4a4 4 0 0 0 4 4 4.09 4.09 0 0 0 1-.14 4 4 0 0 1 -3-3.86z" fill="#fcbc04"/><path d="m26 20h12a4 4 0 0 1 4 4v9a0 0 0 0 1 0 0h-20a0 0 0 0 1 0 0v-9a4 4 0 0 1 4-4z" fill="#a1d51c"/><path d="m38 31v-5a2 2 0 0 0 -2 2v3a8 8 0 0 1 -8-8v-3h-2a4 4 0 0 0 -4 4v9h20v-2z" fill="#7ab92d"/><path d="m38 29h4v4h-4z" fill="#f9e109"/><g fill="#fcbc04"><path d="m39 30v-1h-1v4h4v-1h-1a2 2 0 0 1 -2-2z"/><path d="m22 29h4v4h-4z" transform="matrix(-1 0 0 -1 48 62)"/><path d="m28 16v4l4 5 4-5v-4z"/></g><path d="m28 20 1.43 1.78a5.84 5.84 0 0 0 1.57.22 6 6 0 0 0 5-2.69v-3.31h-8z" fill="#e59730"/><path d="m23 3h13a5 5 0 0 1 5 5 5 5 0 0 1 -5 5h-8a5 5 0 0 1 -5-5v-5a0 0 0 0 1 0 0z" fill="#4891d3"/><path d="m26 3h11a4 4 0 0 1 4 4 0 0 0 0 1 0 0h-11a4 4 0 0 1 -4-4 0 0 0 0 1 0 0z" fill="#57b7eb"/><path d="m26 8h12a0 0 0 0 1 0 0v6a6 6 0 0 1 -6 6 6 6 0 0 1 -6-6v-6a0 0 0 0 1 0 0z" fill="#f9e109"/><path d="m29 14a3 3 0 0 1 3-3h6v-3h-12v6a6 6 0 0 0 6 6 5.71 5.71 0 0 0 1.5-.2 6 6 0 0 1 -4.5-5.8z" fill="#fcbc04"/><circle cx="29" cy="12" fill="#2d72bc" r="1"/><circle cx="35" cy="12" fill="#2d72bc" r="1"/><path d="m32 17a3 3 0 0 1 -2.12-.88 1 1 0 0 1 1.41-1.41 1 1 0 0 0 1.42 0 1 1 0 0 1 1.41 1.41 3 3 0 0 1 -2.12.88z" fill="#2d72bc"/><path d="m47 61h-12v-12h10z" fill="#fcbc04"/><path d="m57.66 36-7.66 7h-9a6 6 0 0 0 -6 6h14.94a6 6 0 0 0 4.86-2.47l5.83-8a1.91 1.91 0 0 0 .3-1.64c-.43-1.65-2.02-1.99-3.27-.89z" fill="#f9e109"/><path d="m17 61h12v-12h-10z" fill="#fcbc04"/><path d="m6.34 36 7.66 7h9a6 6 0 0 1 6 6h-14.94a6 6 0 0 1 -4.86-2.47l-5.83-8a1.91 1.91 0 0 1 -.3-1.64c.43-1.65 2.02-1.99 3.27-.89z" fill="#fcbc04"/><path d="m8.64 42.06a4.24 4.24 0 0 0 5.36.94l-7.66-7a1.87 1.87 0 0 0 -2.88 0z" fill="#f9e109"/><path d="m19.77 46.06 5.46-2-4.34-6.15a2.2 2.2 0 0 0 -2.9-.64 2.21 2.21 0 0 0 -.91 2.81z" fill="#fcbc04"/><path d="m45 49h-3.49a.68.68 0 0 0 -.51 1.13l5.19 5.93z" fill="#e59730"/><path d="m44.34 45.83 4.23-2.83h-2.96z" fill="#fcbc04"/><path d="m60.38 35.86-5.58 7.67a6 6 0 0 1 -4.86 2.47h-2.94a6 6 0 0 1 -5.19-3h-.81a6 6 0 0 0 -6 6h14.94a6 6 0 0 0 4.86-2.47l5.83-8a1.91 1.91 0 0 0 .3-1.64 2.23 2.23 0 0 0 -.55-1.03z" fill="#fcbc04"/><path d="m44.23 46.06-5.46-2 4.34-6.15a2.2 2.2 0 0 1 2.9-.64 2.21 2.21 0 0 1 .91 2.81z" fill="#f9e109"/><path d="m43.78 38.8 1.27-1.8a2.2 2.2 0 0 0 -1.94.92l-4.34 6.15 5.46 2 .71-1.57a4 4 0 0 1 -1.16-5.7z" fill="#fcbc04"/><path d="m19 49h3.49a.68.68 0 0 1 .51 1.13l-5.19 5.93z" fill="#e59730"/><path d="m24.65 43.23-3.76-5.32a2.2 2.2 0 0 0 -2.78-.69l1.65 3.31a21.16 21.16 0 0 0 1.47 2.47 21.26 21.26 0 0 0 4.77 5v7a3 3 0 0 0 3 3v-9a6 6 0 0 0 -4.35-5.77z" fill="#f9e109"/><path d="m19.57 45.83-4.23-2.83h2.96z" fill="#e59730"/></svg>