<?xml version="1.0" encoding="iso-8859-1"?>
<!-- Generator: Adobe Illustrator 19.0.0, SVG Export Plug-In . SVG Version: 6.00 Build 0)  -->
<svg version="1.1" id="Capa_1" xmlns="http://www.w3.org/2000/svg" xmlns:xlink="http://www.w3.org/1999/xlink" x="0px" y="0px"
	 viewBox="0 0 496.485 496.485" style="enable-background:new 0 0 496.485 496.485;" xml:space="preserve">
<circle style="fill:#E1E6E9;" cx="248.242" cy="248.242" r="248.242"/>
<path style="fill:#FFFFFF;" d="M356.073,366.933v23.273l0,0l0,0c-100.848,67.491-215.661,0-215.661,0v-23.273H22.497v20.945
	c0,26.376,17.842,50.424,42.667,58.182c118.691,37.236,246.691,37.236,365.382,0c25.6-7.758,42.667-31.806,42.667-58.182v-20.945
	H356.073z"/>
<path style="fill:#2EA2DB;" d="M140.412,366.933v-35.685c0-10.085-7.758-17.842-17.842-17.842h-82.23
	c-10.085,0-17.842,7.758-17.842,17.842v35.685"/>
<path style="fill:#193651;" d="M140.412,374.691c-4.655,0-7.758-3.103-7.758-7.758v-35.685c0-5.43-4.655-10.085-10.085-10.085
	h-82.23c-5.43,0-10.085,4.655-10.085,10.085v35.685c0,4.655-3.103,7.758-7.758,7.758s-7.758-3.103-7.758-7.758v-35.685
	c0-13.964,11.636-25.6,25.6-25.6h82.23c13.964,0,25.6,11.636,25.6,25.6v35.685C148.17,371.588,145.067,374.691,140.412,374.691z"/>
<path style="fill:#2EA2DB;" d="M473.988,366.933v-35.685c0-10.085-7.758-17.842-17.842-17.842h-82.23
	c-10.085,0-17.842,7.758-17.842,17.842v35.685"/>
<g>
	<path style="fill:#193651;" d="M473.988,374.691c-4.655,0-7.758-3.103-7.758-7.758v-35.685c0-5.43-4.655-10.085-10.085-10.085
		h-82.23c-5.43,0-10.085,4.655-10.085,10.085v35.685c0,4.655-3.103,7.758-7.758,7.758s-7.758-3.103-7.758-7.758v-35.685
		c0-13.964,11.636-25.6,25.6-25.6h82.23c13.964,0,25.6,11.636,25.6,25.6v35.685C481.745,371.588,478.642,374.691,473.988,374.691z"
		/>
	<path style="fill:#193651;" d="M248.242,481.745c-62.061,0-124.897-9.309-185.406-28.703
		c-28.703-9.309-48.097-35.685-48.097-65.939v-20.945c0-4.655,3.103-7.758,7.758-7.758s7.758,3.103,7.758,7.758v21.721
		c0,23.273,14.739,44.218,37.236,51.2c117.915,37.236,242.812,37.236,360.727,0c22.497-6.982,37.236-27.152,37.236-51.2v-20.945
		c0-4.655,3.103-7.758,7.758-7.758s7.758,3.103,7.758,7.758v20.945c0,30.255-19.394,56.63-48.097,65.939
		C373.139,472.436,310.303,481.745,248.242,481.745z"/>
	<path style="fill:#193651;" d="M255.224,427.442c-38.788,0-73.697-10.861-95.418-20.17c-16.291-6.982-27.152-22.497-27.152-41.115
		c0-4.655,3.103-7.758,7.758-7.758c4.655,0,7.758,3.103,7.758,7.758c0,11.636,6.982,21.721,17.842,26.376
		c34.133,13.964,101.624,33.358,166.788,0.776c9.309-4.655,15.515-14.739,15.515-25.6v-1.552c0-4.655,3.103-7.758,7.758-7.758
		s7.758,3.103,7.758,7.758v1.552c0,17.067-9.309,32.582-24.048,39.564C311.079,422.788,281.6,427.442,255.224,427.442z"/>
</g>
<path style="fill:#4FBF9F;" d="M25.6,124.897c0-56.63,58.182-102.4,130.327-102.4s130.327,45.77,130.327,102.4
	c0,50.424-45.77,91.539-105.503,100.848c-16.291,19.394-48.873,42.667-108.606,48.097c0,0,33.358-24.824,29.479-55.079
	C56.63,202.473,25.6,166.788,25.6,124.897z"/>
<path style="fill:#193651;" d="M64.388,276.945c-1.552-3.103,0-6.982,2.327-9.309c0,0,26.376-20.17,27.152-43.442
	c-46.545-18.618-76.024-56.63-76.024-98.521c0-61.285,62.061-110.158,138.085-110.158s138.085,49.648,138.085,110.158
	c0,52.752-45.77,97.745-109.382,107.83c-17.842,20.17-51.2,43.442-111.709,48.097C69.042,281.6,65.939,280.048,64.388,276.945z
	 M155.927,30.255c-67.491,0-122.57,42.667-122.57,94.642c0,36.461,27.927,70.594,70.594,86.109c3.103,0.776,4.655,3.879,5.43,6.206
	c1.552,17.842-6.982,34.133-16.291,45.77c43.442-7.758,67.491-26.376,80.679-41.891c1.552-1.552,3.103-2.327,4.655-2.327
	c57.406-8.533,99.297-48.097,99.297-93.091C278.497,72.921,223.418,30.255,155.927,30.255z"/>
<path style="fill:#FFFFFF;" d="M155.927,195.491c52.752,0,97.745-31.806,97.745-70.594c0-38.012-44.994-70.594-97.745-70.594
	s-97.745,31.806-97.745,70.594C58.182,162.909,103.176,195.491,155.927,195.491z"/>
<g>
	<rect x="148.17" y="117.139" style="fill:#193651;" width="15.515" height="16.291"/>
	<rect x="103.952" y="117.139" style="fill:#193651;" width="15.515" height="16.291"/>
</g>
<path style="fill:#FDBF5E;" d="M470.885,124.897c0-56.63-58.182-102.4-130.327-102.4s-130.327,45.77-130.327,102.4
	c0,50.424,45.77,91.539,105.503,100.848c16.291,19.394,48.873,42.667,108.606,48.097c0,0-33.358-24.824-29.479-55.079
	C439.855,202.473,470.885,166.788,470.885,124.897z"/>
<path style="fill:#193651;" d="M424.339,281.6c-60.509-4.655-93.867-28.703-111.709-48.097
	c-63.612-10.861-109.382-55.855-109.382-107.83c0-61.285,62.061-110.158,138.085-110.158s138.085,49.648,138.085,110.158
	c0,41.891-29.479,79.903-76.024,98.521c0.776,23.273,26.376,43.442,27.152,43.442c3.103,2.327,3.879,5.43,2.327,9.309
	C430.545,280.048,427.442,281.6,424.339,281.6z M340.558,30.255c-67.491,0-122.57,42.667-122.57,94.642
	c0,45.77,41.891,84.558,99.297,93.091c1.552,0,3.879,1.552,4.655,2.327c13.188,15.515,37.236,34.133,80.679,41.891
	c-9.309-11.636-17.842-27.152-16.291-45.77c0-3.103,2.327-5.43,5.43-6.206c42.667-15.515,70.594-49.648,70.594-86.109
	C463.127,72.921,408.048,30.255,340.558,30.255z"/>
<path style="fill:#FFFFFF;" d="M340.558,195.491c-52.751,0-97.745-31.806-97.745-70.594c0-38.012,44.994-70.594,97.745-70.594
	s97.745,31.806,97.745,70.594C438.303,162.909,393.309,195.491,340.558,195.491z"/>
<g>
	<rect x="289.358" y="117.139" style="fill:#193651;" width="15.515" height="16.291"/>
	<rect x="332.8" y="117.139" style="fill:#193651;" width="15.515" height="16.291"/>
	<rect x="377.018" y="117.139" style="fill:#193651;" width="15.515" height="16.291"/>
	<path style="fill:#193651;" d="M166.788,319.612c-3.103-3.103-3.103-7.758,0-10.861c44.994-44.994,117.915-44.994,162.909,0
		c3.103,3.103,3.103,7.758,0,10.861c-3.103,3.103-7.758,3.103-10.861,0c-38.788-38.788-102.4-38.788-141.188,0
		C174.545,322.715,169.891,322.715,166.788,319.612z"/>
	<path style="fill:#193651;" d="M190.836,343.661c-3.103-3.103-3.103-7.758,0-10.861c31.806-31.806,83.782-31.806,115.588,0
		c3.103,3.103,3.103,7.758,0,10.861c-3.103,3.103-7.758,3.103-10.861,0c-25.6-25.6-67.491-25.6-93.091,0
		C198.594,346.764,193.939,346.764,190.836,343.661z"/>
	<path style="fill:#193651;" d="M270.739,366.933c-12.412-12.412-33.358-12.412-45.77,0c-3.103,3.103-7.758,3.103-10.861,0
		c-3.103-3.103-3.103-7.758,0-10.861c18.618-18.618,48.873-18.618,67.491,0c3.103,3.103,3.103,7.758,0,10.861
		C279.273,370.036,273.842,370.036,270.739,366.933z"/>
</g>
<g>
</g>
<g>
</g>
<g>
</g>
<g>
</g>
<g>
</g>
<g>
</g>
<g>
</g>
<g>
</g>
<g>
</g>
<g>
</g>
<g>
</g>
<g>
</g>
<g>
</g>
<g>
</g>
<g>
</g>
</svg>
