<svg height="512" viewBox="0 0 64 64" width="512" xmlns="http://www.w3.org/2000/svg"><path d="m32 53h16a0 0 0 0 1 0 0v2a2 2 0 0 1 -2 2h-12a2 2 0 0 1 -2-2v-2a0 0 0 0 1 0 0z" fill="#57b7eb"/><path d="m36 57h8v4h-8z" fill="#57b7eb"/><path d="m32 53v2a2 2 0 0 0 2 2h1a2 2 0 0 1 2-2h11v-2z" fill="#4891d3"/><path d="m36 57v4h2a2 2 0 0 1 2-2h4v-2z" fill="#4891d3"/><path d="m20 48h-15a3 3 0 0 1 0-6h5a2 2 0 0 0 2-2v-4a1 1 0 0 1 2 0v4a4 4 0 0 1 -4 4h-5a1 1 0 0 0 0 2h15a1 1 0 0 1 0 2z" fill="#fcbc04"/><path d="m11 18h4v19h-4z" fill="#57b7eb"/><path d="m15 22.62v-4.62h-4v11h4v-2a2 2 0 0 1 -2-2v-1.14a4 4 0 0 0 2-1.24z" fill="#4891d3"/><path d="m9 29h10a0 0 0 0 1 0 0v4a0 0 0 0 1 0 0h-10a2 2 0 0 1 -2-2 2 2 0 0 1 2-2z" fill="#aae1f9"/><rect fill="#f9e109" height="19" rx="4" width="8" x="9" y="3"/><path d="m16 29a2 2 0 0 1 -2 2h-7a2 2 0 0 0 2 2h10v-4z" fill="#57b7eb"/><path d="m11 33h4v2h-4z" fill="#4891d3"/><path d="m13 13v-10a4 4 0 0 0 -4 4v11a4 4 0 0 0 8 0v-1a4 4 0 0 1 -4-4z" fill="#fcbc04"/><g fill="#e59730"><path d="m9 8h2a1 1 0 0 1 0 2h-2z"/><path d="m17 10h-2a1 1 0 0 1 0-2h2z"/><path d="m9 12h2a1 1 0 0 1 0 2h-2z"/><path d="m17 14h-2a1 1 0 0 1 0-2h2z"/><path d="m9 16h2a1 1 0 0 1 0 2h-2z"/><path d="m17 18h-2a1 1 0 0 1 0-2h2z"/></g><rect fill="#c4f236" height="28" rx="4" width="42" x="19" y="25"/><path d="m31 7h24a2 2 0 0 1 2 2v16a0 0 0 0 1 0 0h-28a0 0 0 0 1 0 0v-16a2 2 0 0 1 2-2z" fill="#aae1f9"/><path d="m33 13v-6h-2a2 2 0 0 0 -2 2v16h28v-4h-16a8 8 0 0 1 -8-8z" fill="#57b7eb"/><circle cx="40" cy="39" fill="#57b7eb" r="8"/><circle cx="40" cy="39" fill="#4891d3" r="4"/><path d="m51 29h6v4h-6z" fill="#57b7eb"/><circle cx="43" cy="15" fill="#f9e109" r="4"/><path d="m39 19h8a2 2 0 0 1 2 2v4a0 0 0 0 1 0 0h-12a0 0 0 0 1 0 0v-4a2 2 0 0 1 2-2z" fill="#f9e109"/><path d="m25 21h2a2 2 0 0 1 2 2v2a0 0 0 0 1 0 0h-6a0 0 0 0 1 0 0v-2a2 2 0 0 1 2-2z" fill="#f8664f"/><path d="m45 17a4 4 0 0 1 -4-4 3.9 3.9 0 0 1 .36-1.64 4 4 0 1 0 5.28 5.28 3.9 3.9 0 0 1 -1.64.36z" fill="#fcbc04"/><path d="m41 21a7.94 7.94 0 0 1 -3.76-.94 2 2 0 0 0 -.24.94v4h12v-4z" fill="#fcbc04"/><path d="m40 19h-1a2 2 0 0 0 -2 2v4h12v-2h-5a4 4 0 0 1 -4-4z" fill="#fcbc04"/><path d="m40.54 21a8 8 0 0 1 -3.3-.91 1.92 1.92 0 0 0 -.16.42s0 0 0 0a1.91 1.91 0 0 0 -.08.49v4h12v-2h-5a4 4 0 0 1 -3.46-2z" fill="#e59730"/><path d="m25 21h1a0 0 0 0 1 0 0v1a2 2 0 0 1 -2 2h-1a0 0 0 0 1 0 0v-1a2 2 0 0 1 2-2z" fill="#f89c8d"/><circle cx="41.5" cy="37.5" fill="#aae1f9" r="1.5"/><path d="m51 29v1h3a2 2 0 0 1 2 2v1h1v-4z" fill="#4891d3"/><path d="m23 37v-12a4 4 0 0 0 -4 4v20a4 4 0 0 0 4 4h34a4 4 0 0 0 4-4h-26a12 12 0 0 1 -12-12z" fill="#a1d51c"/></svg>